<ttFont>
    <TTGlyph name=".notdef" xMin="85" yMin="0" xMax="453" yMax="678">
      <contour>
        <pt x="156" y="546" on="1"/>
        <pt x="156" y="130" on="1"/>
        <pt x="156" y="98" on="0"/>
        <pt x="179" y="71" on="0"/>
        <pt x="210" y="71" on="1"/>
        <pt x="328" y="71" on="1"/>
        <pt x="359" y="71" on="0"/>
        <pt x="382" y="98" on="0"/>
        <pt x="382" y="130" on="1"/>
        <pt x="382" y="546" on="1"/>
        <pt x="382" y="578" on="0"/>
        <pt x="359" y="606" on="0"/>
        <pt x="328" y="606" on="1"/>
        <pt x="210" y="606" on="1"/>
        <pt x="179" y="606" on="0"/>
        <pt x="156" y="578" on="0"/>
      </contour>
      <contour>
        <pt x="85" y="0" on="1"/>
        <pt x="85" y="678" on="1"/>
        <pt x="453" y="678" on="1"/>
        <pt x="453" y="0" on="1"/>
      </contour>
    </TTGlyph>
    <TTGlyph name="A" xMin="23" yMin="-16" xMax="525" yMax="636">
      <contour>
        <pt x="44" y="-16" on="1"/>
        <pt x="23" y="-16" on="0"/>
        <pt x="23" y="4" on="1"/>
        <pt x="23" y="10" on="0"/>
        <pt x="26" y="18" on="1"/>
        <pt x="251" y="636" on="1"/>
        <pt x="297" y="636" on="1"/>
        <pt x="522" y="18" on="1"/>
        <pt x="525" y="10" on="0"/>
        <pt x="525" y="4" on="1"/>
        <pt x="525" y="-16" on="0"/>
        <pt x="504" y="-16" on="1"/>
        <pt x="490" y="-16" on="0"/>
        <pt x="482" y="4" on="1"/>
        <pt x="410" y="204" on="1"/>
        <pt x="138" y="204" on="1"/>
        <pt x="66" y="4" on="1"/>
        <pt x="57" y="-16" on="0"/>
      </contour>
      <contour>
        <pt x="154" y="246" on="1"/>
        <pt x="394" y="246" on="1"/>
        <pt x="273" y="575" on="1"/>
      </contour>
    </TTGlyph>
    <TTGlyph name="A.sc" xMin="24" yMin="-7" xMax="526" yMax="552">
      <contour>
        <pt x="45" y="-7" on="1"/>
        <pt x="24" y="-7" on="0"/>
        <pt x="24" y="10" on="1"/>
        <pt x="24" y="16" on="0"/>
        <pt x="27" y="22" on="1"/>
        <pt x="252" y="552" on="1"/>
        <pt x="298" y="552" on="1"/>
        <pt x="523" y="22" on="1"/>
        <pt x="526" y="16" on="0"/>
        <pt x="526" y="10" on="1"/>
        <pt x="526" y="-7" on="0"/>
        <pt x="505" y="-7" on="1"/>
        <pt x="488" y="-7" on="0"/>
        <pt x="480" y="10" on="1"/>
        <pt x="408" y="182" on="1"/>
        <pt x="142" y="182" on="1"/>
        <pt x="70" y="10" on="1"/>
        <pt x="63" y="-7" on="0"/>
      </contour>
      <contour>
        <pt x="160" y="224" on="1"/>
        <pt x="390" y="224" on="1"/>
        <pt x="274" y="497" on="1"/>
      </contour>
    </TTGlyph>
    <TTGlyph name="AE" xMin="8" yMin="-16" xMax="798" yMax="636">
      <contour>
        <pt x="435" y="337" on="1"/>
        <pt x="435" y="42" on="1"/>
        <pt x="769" y="42" on="1"/>
        <pt x="798" y="42" on="0"/>
        <pt x="798" y="19" on="1"/>
        <pt x="798" y="0" on="0"/>
        <pt x="769" y="0" on="1"/>
        <pt x="413" y="0" on="1"/>
        <pt x="394" y="0" on="0"/>
        <pt x="394" y="31" on="1"/>
        <pt x="394" y="204" on="1"/>
        <pt x="175" y="204" on="1"/>
        <pt x="52" y="5" on="1"/>
        <pt x="39" y="-16" on="0"/>
        <pt x="23" y="-16" on="1"/>
        <pt x="8" y="-16" on="0"/>
        <pt x="8" y="-3" on="1"/>
        <pt x="8" y="7" on="0"/>
        <pt x="15" y="18" on="1"/>
        <pt x="398" y="628" on="1"/>
        <pt x="403" y="636" on="0"/>
        <pt x="413" y="636" on="1"/>
        <pt x="769" y="636" on="1"/>
        <pt x="798" y="636" on="0"/>
        <pt x="798" y="613" on="1"/>
        <pt x="798" y="594" on="0"/>
        <pt x="769" y="594" on="1"/>
        <pt x="435" y="594" on="1"/>
        <pt x="435" y="379" on="1"/>
        <pt x="650" y="379" on="1"/>
        <pt x="681" y="379" on="0"/>
        <pt x="681" y="356" on="1"/>
        <pt x="681" y="337" on="0"/>
        <pt x="650" y="337" on="1"/>
      </contour>
      <contour>
        <pt x="394" y="246" on="1"/>
        <pt x="394" y="550" on="1"/>
        <pt x="203" y="246" on="1"/>
      </contour>
    </TTGlyph>
    <TTGlyph name="Aacute" xMin="23" yMin="-16" xMax="525" yMax="819">
      <component glyphName="acutecomb" x="605" y="188" flags="0x1004"/>
      <component glyphName="A" x="0" y="0" flags="0x1204"/>
    </TTGlyph>
    <TTGlyph name="Abreve" xMin="23" yMin="-16" xMax="525" yMax="819">
      <contour>
        <pt x="389" y="819" on="1"/>
        <pt x="389" y="771" on="0"/>
        <pt x="321" y="698" on="0"/>
        <pt x="227" y="698" on="0"/>
        <pt x="159" y="771" on="0"/>
        <pt x="159" y="819" on="1"/>
        <pt x="202" y="819" on="1"/>
        <pt x="202" y="785" on="0"/>
        <pt x="241" y="742" on="0"/>
        <pt x="307" y="742" on="0"/>
        <pt x="346" y="785" on="0"/>
        <pt x="346" y="819" on="1"/>
      </contour>
      <contour>
        <pt x="44" y="-16" on="1"/>
        <pt x="23" y="-16" on="0"/>
        <pt x="23" y="4" on="1"/>
        <pt x="23" y="10" on="0"/>
        <pt x="26" y="18" on="1"/>
        <pt x="251" y="636" on="1"/>
        <pt x="297" y="636" on="1"/>
        <pt x="522" y="18" on="1"/>
        <pt x="525" y="10" on="0"/>
        <pt x="525" y="4" on="1"/>
        <pt x="525" y="-16" on="0"/>
        <pt x="504" y="-16" on="1"/>
        <pt x="490" y="-16" on="0"/>
        <pt x="482" y="4" on="1"/>
        <pt x="410" y="204" on="1"/>
        <pt x="138" y="204" on="1"/>
        <pt x="66" y="4" on="1"/>
        <pt x="57" y="-16" on="0"/>
      </contour>
      <contour>
        <pt x="154" y="246" on="1"/>
        <pt x="394" y="246" on="1"/>
        <pt x="273" y="575" on="1"/>
      </contour>
    </TTGlyph>
    <TTGlyph name="Acircumflex" xMin="23" yMin="-16" xMax="525" yMax="819">
      <component glyphName="uni0302" x="576" y="141" flags="0x1004"/>
      <component glyphName="A" x="0" y="0" flags="0x1204"/>
    </TTGlyph>
    <TTGlyph name="Acyrillic" xMin="23" yMin="-16" xMax="525" yMax="636">
      <component glyphName="A" x="0" y="0" flags="0x1004"/>
    </TTGlyph>
    <TTGlyph name="Adieresis" xMin="23" yMin="-16" xMax="525" yMax="778">
      <component glyphName="dieresis" x="90" y="112" flags="0x1004"/>
      <component glyphName="A" x="0" y="0" flags="0x1204"/>
    </TTGlyph>
    <TTGlyph name="Agrave" xMin="23" yMin="-16" xMax="525" yMax="819">
      <component glyphName="gravecomb" x="541" y="188" flags="0x1004"/>
      <component glyphName="A" x="0" y="0" flags="0x1204"/>
    </TTGlyph>
    <TTGlyph name="Alpha" xMin="23" yMin="-16" xMax="525" yMax="636">
      <component glyphName="A" x="0" y="0" flags="0x1004"/>
    </TTGlyph>
    <TTGlyph name="Alphatonos" xMin="29" yMin="-16" xMax="531" yMax="750">
      <component glyphName="tonos" x="35" y="102" flags="0x1004"/>
      <component glyphName="Alpha" x="6" y="0" flags="0x1004"/>
    </TTGlyph>
    <TTGlyph name="Amacron" xMin="23" yMin="-16" xMax="525" yMax="749">
      <contour>
        <pt x="150" y="706" on="1"/>
        <pt x="124" y="706" on="0"/>
        <pt x="124" y="728" on="1"/>
        <pt x="124" y="749" on="0"/>
        <pt x="150" y="749" on="1"/>
        <pt x="395" y="749" on="1"/>
        <pt x="424" y="749" on="0"/>
        <pt x="424" y="726" on="1"/>
        <pt x="424" y="706" on="0"/>
        <pt x="395" y="706" on="1"/>
      </contour>
      <contour>
        <pt x="44" y="-16" on="1"/>
        <pt x="23" y="-16" on="0"/>
        <pt x="23" y="4" on="1"/>
        <pt x="23" y="10" on="0"/>
        <pt x="26" y="18" on="1"/>
        <pt x="251" y="636" on="1"/>
        <pt x="297" y="636" on="1"/>
        <pt x="522" y="18" on="1"/>
        <pt x="525" y="10" on="0"/>
        <pt x="525" y="4" on="1"/>
        <pt x="525" y="-16" on="0"/>
        <pt x="504" y="-16" on="1"/>
        <pt x="490" y="-16" on="0"/>
        <pt x="482" y="4" on="1"/>
        <pt x="410" y="204" on="1"/>
        <pt x="138" y="204" on="1"/>
        <pt x="66" y="4" on="1"/>
        <pt x="57" y="-16" on="0"/>
      </contour>
      <contour>
        <pt x="154" y="246" on="1"/>
        <pt x="394" y="246" on="1"/>
        <pt x="273" y="575" on="1"/>
      </contour>
    </TTGlyph>
    <TTGlyph name="Aogonek" xMin="23" yMin="-205" xMax="581" yMax="636">
      <contour>
        <pt x="581" y="-160" on="1"/>
        <pt x="581" y="-184" on="0"/>
        <pt x="530" y="-205" on="0"/>
        <pt x="507" y="-205" on="1"/>
        <pt x="467" y="-205" on="0"/>
        <pt x="416" y="-150" on="0"/>
        <pt x="416" y="-106" on="1"/>
        <pt x="416" y="-84" on="0"/>
        <pt x="456" y="-13" on="0"/>
        <pt x="479" y="13" on="1"/>
        <pt x="410" y="204" on="1"/>
        <pt x="138" y="204" on="1"/>
        <pt x="66" y="4" on="1"/>
        <pt x="57" y="-16" on="0"/>
        <pt x="44" y="-16" on="1"/>
        <pt x="23" y="-16" on="0"/>
        <pt x="23" y="4" on="1"/>
        <pt x="23" y="10" on="0"/>
        <pt x="26" y="18" on="1"/>
        <pt x="251" y="636" on="1"/>
        <pt x="297" y="636" on="1"/>
        <pt x="522" y="18" on="1"/>
        <pt x="525" y="10" on="0"/>
        <pt x="525" y="4" on="1"/>
        <pt x="525" y="-13" on="0"/>
        <pt x="507" y="-16" on="1"/>
        <pt x="489" y="-34" on="0"/>
        <pt x="458" y="-91" on="0"/>
        <pt x="458" y="-106" on="1"/>
        <pt x="458" y="-165" on="0"/>
        <pt x="505" y="-165" on="1"/>
        <pt x="522" y="-165" on="0"/>
        <pt x="568" y="-147" on="0"/>
        <pt x="571" y="-147" on="1"/>
        <pt x="581" y="-147" on="0"/>
      </contour>
      <contour>
        <pt x="154" y="246" on="1"/>
        <pt x="394" y="246" on="1"/>
        <pt x="273" y="575" on="1"/>
      </contour>
    </TTGlyph>
    <TTGlyph name="Aring" xMin="23" yMin="-16" xMax="525" yMax="792">
      <component glyphName="uni030A" x="581" y="130" flags="0x1004"/>
      <component glyphName="A" x="0" y="0" flags="0x1204"/>
    </TTGlyph>
    <TTGlyph name="Atilde" xMin="23" yMin="-16" xMax="525" yMax="794">
      <component glyphName="tilde" x="73" y="524" flags="0x1004"/>
      <component glyphName="A" x="0" y="0" flags="0x1204"/>
    </TTGlyph>
    <TTGlyph name="B" xMin="84" yMin="0" xMax="528" yMax="636">
      <contour>
        <pt x="126" y="42" on="1"/>
        <pt x="321" y="42" on="1"/>
        <pt x="368" y="42" on="0"/>
        <pt x="421" y="49" on="0"/>
        <pt x="467" y="76" on="0"/>
        <pt x="486" y="130" on="0"/>
        <pt x="486" y="175" on="1"/>
        <pt x="486" y="204" on="1"/>
        <pt x="486" y="249" on="0"/>
        <pt x="467" y="303" on="0"/>
        <pt x="421" y="330" on="0"/>
        <pt x="368" y="337" on="0"/>
        <pt x="321" y="337" on="1"/>
        <pt x="126" y="337" on="1"/>
      </contour>
      <contour>
        <pt x="84" y="31" on="1"/>
        <pt x="84" y="605" on="1"/>
        <pt x="84" y="636" on="0"/>
        <pt x="103" y="636" on="1"/>
        <pt x="279" y="636" on="1"/>
        <pt x="382" y="636" on="0"/>
        <pt x="486" y="572" on="0"/>
        <pt x="486" y="486" on="1"/>
        <pt x="486" y="402" on="0"/>
        <pt x="431" y="367" on="1"/>
        <pt x="480" y="352" on="0"/>
        <pt x="528" y="276" on="0"/>
        <pt x="528" y="204" on="1"/>
        <pt x="528" y="175" on="1"/>
        <pt x="528" y="70" on="0"/>
        <pt x="426" y="0" on="0"/>
        <pt x="321" y="0" on="1"/>
        <pt x="103" y="0" on="1"/>
        <pt x="84" y="0" on="0"/>
      </contour>
      <contour>
        <pt x="279" y="379" on="1"/>
        <pt x="369" y="379" on="0"/>
        <pt x="444" y="421" on="0"/>
        <pt x="444" y="486" on="1"/>
        <pt x="444" y="552" on="0"/>
        <pt x="369" y="594" on="0"/>
        <pt x="279" y="594" on="1"/>
        <pt x="126" y="594" on="1"/>
        <pt x="126" y="379" on="1"/>
      </contour>
    </TTGlyph>
    <TTGlyph name="Becyrillic" xMin="84" yMin="-7" xMax="486" yMax="636">
      <contour>
        <pt x="423" y="636" on="1"/>
        <pt x="453" y="636" on="0"/>
        <pt x="453" y="594" on="0"/>
        <pt x="423" y="594" on="1"/>
        <pt x="126" y="594" on="1"/>
        <pt x="126" y="461" on="1"/>
        <pt x="279" y="461" on="1"/>
        <pt x="369" y="461" on="0"/>
        <pt x="486" y="322" on="0"/>
        <pt x="486" y="227" on="1"/>
        <pt x="486" y="131" on="0"/>
        <pt x="370" y="-7" on="0"/>
        <pt x="279" y="-7" on="1"/>
        <pt x="103" y="-7" on="1"/>
        <pt x="84" y="-7" on="0"/>
        <pt x="84" y="24" on="1"/>
        <pt x="84" y="636" on="1"/>
      </contour>
      <contour>
        <pt x="279" y="419" on="1"/>
        <pt x="126" y="419" on="1"/>
        <pt x="126" y="35" on="1"/>
        <pt x="279" y="35" on="1"/>
        <pt x="357" y="35" on="0"/>
        <pt x="444" y="150" on="0"/>
        <pt x="444" y="304" on="0"/>
        <pt x="357" y="419" on="0"/>
      </contour>
    </TTGlyph>
    <TTGlyph name="Beta" xMin="84" yMin="0" xMax="528" yMax="636">
      <component glyphName="B" x="0" y="0" flags="0x1004"/>
    </TTGlyph>
    <TTGlyph name="C" xMin="72" yMin="0" xMax="516" yMax="636">
      <contour>
        <pt x="421" y="0" on="1"/>
        <pt x="280" y="0" on="1"/>
        <pt x="174" y="0" on="0"/>
        <pt x="72" y="70" on="0"/>
        <pt x="72" y="175" on="1"/>
        <pt x="72" y="461" on="1"/>
        <pt x="72" y="566" on="0"/>
        <pt x="174" y="636" on="0"/>
        <pt x="280" y="636" on="1"/>
        <pt x="421" y="636" on="1"/>
        <pt x="452" y="636" on="0"/>
        <pt x="493" y="618" on="0"/>
        <pt x="510" y="584" on="0"/>
        <pt x="516" y="552" on="0"/>
        <pt x="516" y="529" on="1"/>
        <pt x="516" y="499" on="0"/>
        <pt x="474" y="499" on="0"/>
        <pt x="474" y="527" on="1"/>
        <pt x="474" y="563" on="0"/>
        <pt x="448" y="594" on="0"/>
        <pt x="414" y="594" on="1"/>
        <pt x="280" y="594" on="1"/>
        <pt x="232" y="594" on="0"/>
        <pt x="179" y="587" on="0"/>
        <pt x="133" y="560" on="0"/>
        <pt x="114" y="506" on="0"/>
        <pt x="114" y="461" on="1"/>
        <pt x="114" y="175" on="1"/>
        <pt x="114" y="130" on="0"/>
        <pt x="133" y="76" on="0"/>
        <pt x="179" y="49" on="0"/>
        <pt x="232" y="42" on="0"/>
        <pt x="280" y="42" on="1"/>
        <pt x="414" y="42" on="1"/>
        <pt x="448" y="42" on="0"/>
        <pt x="474" y="72" on="0"/>
        <pt x="474" y="109" on="1"/>
        <pt x="474" y="137" on="0"/>
        <pt x="516" y="137" on="0"/>
        <pt x="516" y="106" on="1"/>
        <pt x="516" y="84" on="0"/>
        <pt x="510" y="52" on="0"/>
        <pt x="493" y="18" on="0"/>
        <pt x="452" y="0" on="0"/>
      </contour>
    </TTGlyph>
    <TTGlyph name="Cacute" xMin="72" yMin="0" xMax="516" yMax="820">
      <contour>
        <pt x="413" y="800" on="1"/>
        <pt x="413" y="792" on="0"/>
        <pt x="402" y="779" on="1"/>
        <pt x="332" y="710" on="1"/>
        <pt x="322" y="699" on="0"/>
        <pt x="312" y="699" on="1"/>
        <pt x="304" y="699" on="0"/>
        <pt x="291" y="712" on="0"/>
        <pt x="291" y="718" on="1"/>
        <pt x="291" y="728" on="0"/>
        <pt x="303" y="740" on="1"/>
        <pt x="372" y="809" on="1"/>
        <pt x="382" y="820" on="0"/>
        <pt x="393" y="820" on="1"/>
        <pt x="401" y="820" on="0"/>
        <pt x="413" y="806" on="0"/>
      </contour>
      <contour>
        <pt x="421" y="0" on="1"/>
        <pt x="280" y="0" on="1"/>
        <pt x="174" y="0" on="0"/>
        <pt x="72" y="70" on="0"/>
        <pt x="72" y="175" on="1"/>
        <pt x="72" y="461" on="1"/>
        <pt x="72" y="566" on="0"/>
        <pt x="174" y="636" on="0"/>
        <pt x="280" y="636" on="1"/>
        <pt x="421" y="636" on="1"/>
        <pt x="452" y="636" on="0"/>
        <pt x="493" y="618" on="0"/>
        <pt x="510" y="584" on="0"/>
        <pt x="516" y="552" on="0"/>
        <pt x="516" y="529" on="1"/>
        <pt x="516" y="499" on="0"/>
        <pt x="474" y="499" on="0"/>
        <pt x="474" y="527" on="1"/>
        <pt x="474" y="563" on="0"/>
        <pt x="448" y="594" on="0"/>
        <pt x="414" y="594" on="1"/>
        <pt x="280" y="594" on="1"/>
        <pt x="232" y="594" on="0"/>
        <pt x="179" y="587" on="0"/>
        <pt x="133" y="560" on="0"/>
        <pt x="114" y="506" on="0"/>
        <pt x="114" y="461" on="1"/>
        <pt x="114" y="175" on="1"/>
        <pt x="114" y="130" on="0"/>
        <pt x="133" y="76" on="0"/>
        <pt x="179" y="49" on="0"/>
        <pt x="232" y="42" on="0"/>
        <pt x="280" y="42" on="1"/>
        <pt x="414" y="42" on="1"/>
        <pt x="448" y="42" on="0"/>
        <pt x="474" y="72" on="0"/>
        <pt x="474" y="109" on="1"/>
        <pt x="474" y="137" on="0"/>
        <pt x="516" y="137" on="0"/>
        <pt x="516" y="106" on="1"/>
        <pt x="516" y="84" on="0"/>
        <pt x="510" y="52" on="0"/>
        <pt x="493" y="18" on="0"/>
        <pt x="452" y="0" on="0"/>
      </contour>
    </TTGlyph>
    <TTGlyph name="Ccaron" xMin="72" yMin="0" xMax="516" yMax="812">
      <contour>
        <pt x="323" y="678" on="1"/>
        <pt x="271" y="678" on="1"/>
        <pt x="169" y="785" on="1"/>
        <pt x="163" y="791" on="0"/>
        <pt x="163" y="797" on="1"/>
        <pt x="163" y="812" on="0"/>
        <pt x="181" y="812" on="1"/>
        <pt x="191" y="812" on="0"/>
        <pt x="210" y="796" on="1"/>
        <pt x="297" y="724" on="1"/>
        <pt x="384" y="796" on="1"/>
        <pt x="403" y="812" on="0"/>
        <pt x="413" y="812" on="1"/>
        <pt x="431" y="812" on="0"/>
        <pt x="431" y="797" on="1"/>
        <pt x="431" y="791" on="0"/>
        <pt x="425" y="785" on="1"/>
      </contour>
      <contour>
        <pt x="421" y="0" on="1"/>
        <pt x="280" y="0" on="1"/>
        <pt x="174" y="0" on="0"/>
        <pt x="72" y="70" on="0"/>
        <pt x="72" y="175" on="1"/>
        <pt x="72" y="461" on="1"/>
        <pt x="72" y="566" on="0"/>
        <pt x="174" y="636" on="0"/>
        <pt x="280" y="636" on="1"/>
        <pt x="421" y="636" on="1"/>
        <pt x="452" y="636" on="0"/>
        <pt x="493" y="618" on="0"/>
        <pt x="510" y="584" on="0"/>
        <pt x="516" y="552" on="0"/>
        <pt x="516" y="529" on="1"/>
        <pt x="516" y="499" on="0"/>
        <pt x="474" y="499" on="0"/>
        <pt x="474" y="527" on="1"/>
        <pt x="474" y="563" on="0"/>
        <pt x="448" y="594" on="0"/>
        <pt x="414" y="594" on="1"/>
        <pt x="280" y="594" on="1"/>
        <pt x="232" y="594" on="0"/>
        <pt x="179" y="587" on="0"/>
        <pt x="133" y="560" on="0"/>
        <pt x="114" y="506" on="0"/>
        <pt x="114" y="461" on="1"/>
        <pt x="114" y="175" on="1"/>
        <pt x="114" y="130" on="0"/>
        <pt x="133" y="76" on="0"/>
        <pt x="179" y="49" on="0"/>
        <pt x="232" y="42" on="0"/>
        <pt x="280" y="42" on="1"/>
        <pt x="414" y="42" on="1"/>
        <pt x="448" y="42" on="0"/>
        <pt x="474" y="72" on="0"/>
        <pt x="474" y="109" on="1"/>
        <pt x="474" y="137" on="0"/>
        <pt x="516" y="137" on="0"/>
        <pt x="516" y="106" on="1"/>
        <pt x="516" y="84" on="0"/>
        <pt x="510" y="52" on="0"/>
        <pt x="493" y="18" on="0"/>
        <pt x="452" y="0" on="0"/>
      </contour>
    </TTGlyph>
    <TTGlyph name="Ccedilla" xMin="72" yMin="-165" xMax="516" yMax="636">
      <contour>
        <pt x="220" y="-120" on="1"/>
        <pt x="220" y="-107" on="0"/>
        <pt x="230" y="-107" on="1"/>
        <pt x="233" y="-107" on="0"/>
        <pt x="279" y="-125" on="0"/>
        <pt x="296" y="-125" on="1"/>
        <pt x="343" y="-125" on="0"/>
        <pt x="343" y="-94" on="1"/>
        <pt x="343" y="-80" on="0"/>
        <pt x="313" y="-55" on="0"/>
        <pt x="279" y="-23" on="0"/>
        <pt x="275" y="0" on="1"/>
        <pt x="172" y="1" on="0"/>
        <pt x="72" y="71" on="0"/>
        <pt x="72" y="175" on="1"/>
        <pt x="72" y="461" on="1"/>
        <pt x="72" y="566" on="0"/>
        <pt x="174" y="636" on="0"/>
        <pt x="280" y="636" on="1"/>
        <pt x="421" y="636" on="1"/>
        <pt x="452" y="636" on="0"/>
        <pt x="493" y="618" on="0"/>
        <pt x="510" y="584" on="0"/>
        <pt x="516" y="552" on="0"/>
        <pt x="516" y="529" on="1"/>
        <pt x="516" y="499" on="0"/>
        <pt x="474" y="499" on="0"/>
        <pt x="474" y="527" on="1"/>
        <pt x="474" y="563" on="0"/>
        <pt x="448" y="594" on="0"/>
        <pt x="414" y="594" on="1"/>
        <pt x="280" y="594" on="1"/>
        <pt x="232" y="594" on="0"/>
        <pt x="179" y="587" on="0"/>
        <pt x="133" y="560" on="0"/>
        <pt x="114" y="506" on="0"/>
        <pt x="114" y="461" on="1"/>
        <pt x="114" y="175" on="1"/>
        <pt x="114" y="130" on="0"/>
        <pt x="133" y="76" on="0"/>
        <pt x="179" y="49" on="0"/>
        <pt x="232" y="42" on="0"/>
        <pt x="280" y="42" on="1"/>
        <pt x="414" y="42" on="1"/>
        <pt x="448" y="42" on="0"/>
        <pt x="474" y="72" on="0"/>
        <pt x="474" y="109" on="1"/>
        <pt x="474" y="137" on="0"/>
        <pt x="516" y="137" on="0"/>
        <pt x="516" y="106" on="1"/>
        <pt x="516" y="84" on="0"/>
        <pt x="510" y="52" on="0"/>
        <pt x="493" y="18" on="0"/>
        <pt x="452" y="0" on="0"/>
        <pt x="421" y="0" on="1"/>
        <pt x="318" y="0" on="1"/>
        <pt x="322" y="-15" on="0"/>
        <pt x="357" y="-40" on="0"/>
        <pt x="385" y="-68" on="0"/>
        <pt x="385" y="-89" on="1"/>
        <pt x="385" y="-122" on="0"/>
        <pt x="333" y="-165" on="0"/>
        <pt x="294" y="-165" on="1"/>
        <pt x="271" y="-165" on="0"/>
        <pt x="220" y="-144" on="0"/>
      </contour>
    </TTGlyph>
    <TTGlyph name="Ccircumflex" xMin="72" yMin="0" xMax="516" yMax="819">
      <contour>
        <pt x="307" y="773" on="1"/>
        <pt x="304" y="773" on="1"/>
        <pt x="212" y="669" on="1"/>
        <pt x="196" y="651" on="0"/>
        <pt x="188" y="651" on="1"/>
        <pt x="170" y="651" on="0"/>
        <pt x="170" y="669" on="1"/>
        <pt x="170" y="678" on="0"/>
        <pt x="174" y="682" on="1"/>
        <pt x="278" y="819" on="1"/>
        <pt x="333" y="819" on="1"/>
        <pt x="439" y="682" on="1"/>
        <pt x="443" y="677" on="0"/>
        <pt x="443" y="669" on="1"/>
        <pt x="443" y="651" on="0"/>
        <pt x="425" y="651" on="1"/>
        <pt x="421" y="651" on="0"/>
        <pt x="414" y="654" on="0"/>
        <pt x="411" y="657" on="0"/>
        <pt x="403" y="667" on="0"/>
        <pt x="401" y="669" on="1"/>
      </contour>
      <contour>
        <pt x="421" y="0" on="1"/>
        <pt x="280" y="0" on="1"/>
        <pt x="174" y="0" on="0"/>
        <pt x="72" y="70" on="0"/>
        <pt x="72" y="175" on="1"/>
        <pt x="72" y="461" on="1"/>
        <pt x="72" y="566" on="0"/>
        <pt x="174" y="636" on="0"/>
        <pt x="280" y="636" on="1"/>
        <pt x="421" y="636" on="1"/>
        <pt x="452" y="636" on="0"/>
        <pt x="493" y="618" on="0"/>
        <pt x="510" y="584" on="0"/>
        <pt x="516" y="552" on="0"/>
        <pt x="516" y="529" on="1"/>
        <pt x="516" y="499" on="0"/>
        <pt x="474" y="499" on="0"/>
        <pt x="474" y="527" on="1"/>
        <pt x="474" y="563" on="0"/>
        <pt x="448" y="594" on="0"/>
        <pt x="414" y="594" on="1"/>
        <pt x="280" y="594" on="1"/>
        <pt x="232" y="594" on="0"/>
        <pt x="179" y="587" on="0"/>
        <pt x="133" y="560" on="0"/>
        <pt x="114" y="506" on="0"/>
        <pt x="114" y="461" on="1"/>
        <pt x="114" y="175" on="1"/>
        <pt x="114" y="130" on="0"/>
        <pt x="133" y="76" on="0"/>
        <pt x="179" y="49" on="0"/>
        <pt x="232" y="42" on="0"/>
        <pt x="280" y="42" on="1"/>
        <pt x="414" y="42" on="1"/>
        <pt x="448" y="42" on="0"/>
        <pt x="474" y="72" on="0"/>
        <pt x="474" y="109" on="1"/>
        <pt x="474" y="137" on="0"/>
        <pt x="516" y="137" on="0"/>
        <pt x="516" y="106" on="1"/>
        <pt x="516" y="84" on="0"/>
        <pt x="510" y="52" on="0"/>
        <pt x="493" y="18" on="0"/>
        <pt x="452" y="0" on="0"/>
      </contour>
    </TTGlyph>
    <TTGlyph name="Cdotaccent" xMin="72" yMin="0" xMax="516" yMax="778">
      <contour>
        <pt x="245" y="728" on="0"/>
        <pt x="245" y="756" on="0"/>
        <pt x="275" y="778" on="0"/>
        <pt x="291" y="778" on="1"/>
        <pt x="306" y="778" on="0"/>
        <pt x="337" y="756" on="0"/>
        <pt x="337" y="728" on="0"/>
        <pt x="306" y="706" on="0"/>
        <pt x="291" y="706" on="1"/>
        <pt x="275" y="706" on="0"/>
      </contour>
      <contour>
        <pt x="421" y="0" on="1"/>
        <pt x="280" y="0" on="1"/>
        <pt x="174" y="0" on="0"/>
        <pt x="72" y="70" on="0"/>
        <pt x="72" y="175" on="1"/>
        <pt x="72" y="461" on="1"/>
        <pt x="72" y="566" on="0"/>
        <pt x="174" y="636" on="0"/>
        <pt x="280" y="636" on="1"/>
        <pt x="421" y="636" on="1"/>
        <pt x="452" y="636" on="0"/>
        <pt x="493" y="618" on="0"/>
        <pt x="510" y="584" on="0"/>
        <pt x="516" y="552" on="0"/>
        <pt x="516" y="529" on="1"/>
        <pt x="516" y="499" on="0"/>
        <pt x="474" y="499" on="0"/>
        <pt x="474" y="527" on="1"/>
        <pt x="474" y="563" on="0"/>
        <pt x="448" y="594" on="0"/>
        <pt x="414" y="594" on="1"/>
        <pt x="280" y="594" on="1"/>
        <pt x="232" y="594" on="0"/>
        <pt x="179" y="587" on="0"/>
        <pt x="133" y="560" on="0"/>
        <pt x="114" y="506" on="0"/>
        <pt x="114" y="461" on="1"/>
        <pt x="114" y="175" on="1"/>
        <pt x="114" y="130" on="0"/>
        <pt x="133" y="76" on="0"/>
        <pt x="179" y="49" on="0"/>
        <pt x="232" y="42" on="0"/>
        <pt x="280" y="42" on="1"/>
        <pt x="414" y="42" on="1"/>
        <pt x="448" y="42" on="0"/>
        <pt x="474" y="72" on="0"/>
        <pt x="474" y="109" on="1"/>
        <pt x="474" y="137" on="0"/>
        <pt x="516" y="137" on="0"/>
        <pt x="516" y="106" on="1"/>
        <pt x="516" y="84" on="0"/>
        <pt x="510" y="52" on="0"/>
        <pt x="493" y="18" on="0"/>
        <pt x="452" y="0" on="0"/>
      </contour>
    </TTGlyph>
    <TTGlyph name="Checyrillic" xMin="57" yMin="-7" xMax="501" yMax="643">
      <contour>
        <pt x="293" y="217" on="1"/>
        <pt x="373" y="217" on="0"/>
        <pt x="459" y="314" on="0"/>
        <pt x="459" y="404" on="1"/>
        <pt x="459" y="613" on="1"/>
        <pt x="459" y="643" on="0"/>
        <pt x="501" y="643" on="0"/>
        <pt x="501" y="613" on="1"/>
        <pt x="501" y="24" on="1"/>
        <pt x="501" y="-7" on="0"/>
        <pt x="482" y="-7" on="1"/>
        <pt x="459" y="-7" on="0"/>
        <pt x="459" y="24" on="1"/>
        <pt x="459" y="247" on="1"/>
        <pt x="403" y="175" on="0"/>
        <pt x="293" y="175" on="1"/>
        <pt x="264" y="175" on="1"/>
        <pt x="159" y="175" on="0"/>
        <pt x="57" y="245" on="0"/>
        <pt x="57" y="350" on="1"/>
        <pt x="57" y="613" on="1"/>
        <pt x="57" y="643" on="0"/>
        <pt x="77" y="643" on="1"/>
        <pt x="99" y="643" on="0"/>
        <pt x="99" y="613" on="1"/>
        <pt x="99" y="350" on="1"/>
        <pt x="99" y="305" on="0"/>
        <pt x="118" y="251" on="0"/>
        <pt x="164" y="224" on="0"/>
        <pt x="217" y="217" on="0"/>
        <pt x="264" y="217" on="1"/>
      </contour>
    </TTGlyph>
    <TTGlyph name="Chi" xMin="35" yMin="-7" xMax="502" yMax="643">
      <component glyphName="X" x="0" y="0" flags="0x1004"/>
    </TTGlyph>
    <TTGlyph name="D" xMin="84" yMin="0" xMax="528" yMax="636">
      <contour>
        <pt x="528" y="461" on="1"/>
        <pt x="528" y="175" on="1"/>
        <pt x="528" y="70" on="0"/>
        <pt x="426" y="0" on="0"/>
        <pt x="321" y="0" on="1"/>
        <pt x="103" y="0" on="1"/>
        <pt x="84" y="0" on="0"/>
        <pt x="84" y="31" on="1"/>
        <pt x="84" y="605" on="1"/>
        <pt x="84" y="636" on="0"/>
        <pt x="103" y="636" on="1"/>
        <pt x="321" y="636" on="1"/>
        <pt x="426" y="636" on="0"/>
        <pt x="528" y="566" on="0"/>
      </contour>
      <contour>
        <pt x="486" y="175" on="1"/>
        <pt x="486" y="461" on="1"/>
        <pt x="486" y="506" on="0"/>
        <pt x="467" y="560" on="0"/>
        <pt x="421" y="587" on="0"/>
        <pt x="368" y="594" on="0"/>
        <pt x="321" y="594" on="1"/>
        <pt x="126" y="594" on="1"/>
        <pt x="126" y="42" on="1"/>
        <pt x="321" y="42" on="1"/>
        <pt x="368" y="42" on="0"/>
        <pt x="421" y="49" on="0"/>
        <pt x="467" y="76" on="0"/>
        <pt x="486" y="130" on="0"/>
      </contour>
    </TTGlyph>
    <TTGlyph name="Dcaron" xMin="84" yMin="0" xMax="528" yMax="812">
      <contour>
        <pt x="313" y="678" on="1"/>
        <pt x="261" y="678" on="1"/>
        <pt x="159" y="785" on="1"/>
        <pt x="153" y="791" on="0"/>
        <pt x="153" y="797" on="1"/>
        <pt x="153" y="812" on="0"/>
        <pt x="171" y="812" on="1"/>
        <pt x="181" y="812" on="0"/>
        <pt x="200" y="796" on="1"/>
        <pt x="287" y="724" on="1"/>
        <pt x="374" y="796" on="1"/>
        <pt x="393" y="812" on="0"/>
        <pt x="403" y="812" on="1"/>
        <pt x="421" y="812" on="0"/>
        <pt x="421" y="797" on="1"/>
        <pt x="421" y="791" on="0"/>
        <pt x="415" y="785" on="1"/>
      </contour>
      <contour>
        <pt x="528" y="461" on="1"/>
        <pt x="528" y="175" on="1"/>
        <pt x="528" y="70" on="0"/>
        <pt x="426" y="0" on="0"/>
        <pt x="321" y="0" on="1"/>
        <pt x="103" y="0" on="1"/>
        <pt x="84" y="0" on="0"/>
        <pt x="84" y="31" on="1"/>
        <pt x="84" y="605" on="1"/>
        <pt x="84" y="636" on="0"/>
        <pt x="103" y="636" on="1"/>
        <pt x="321" y="636" on="1"/>
        <pt x="426" y="636" on="0"/>
        <pt x="528" y="566" on="0"/>
      </contour>
      <contour>
        <pt x="486" y="175" on="1"/>
        <pt x="486" y="461" on="1"/>
        <pt x="486" y="506" on="0"/>
        <pt x="467" y="560" on="0"/>
        <pt x="421" y="587" on="0"/>
        <pt x="368" y="594" on="0"/>
        <pt x="321" y="594" on="1"/>
        <pt x="126" y="594" on="1"/>
        <pt x="126" y="42" on="1"/>
        <pt x="321" y="42" on="1"/>
        <pt x="368" y="42" on="0"/>
        <pt x="421" y="49" on="0"/>
        <pt x="467" y="76" on="0"/>
        <pt x="486" y="130" on="0"/>
      </contour>
    </TTGlyph>
    <TTGlyph name="Dcroat" xMin="49" yMin="0" xMax="528" yMax="636">
      <contour>
        <pt x="76" y="303" on="1"/>
        <pt x="49" y="303" on="0"/>
        <pt x="49" y="326" on="1"/>
        <pt x="49" y="346" on="0"/>
        <pt x="76" y="346" on="1"/>
        <pt x="84" y="346" on="1"/>
        <pt x="84" y="605" on="1"/>
        <pt x="84" y="636" on="0"/>
        <pt x="103" y="636" on="1"/>
        <pt x="321" y="636" on="1"/>
        <pt x="426" y="636" on="0"/>
        <pt x="528" y="566" on="0"/>
        <pt x="528" y="461" on="1"/>
        <pt x="528" y="175" on="1"/>
        <pt x="528" y="70" on="0"/>
        <pt x="426" y="0" on="0"/>
        <pt x="321" y="0" on="1"/>
        <pt x="103" y="0" on="1"/>
        <pt x="84" y="0" on="0"/>
        <pt x="84" y="31" on="1"/>
        <pt x="84" y="303" on="1"/>
      </contour>
      <contour>
        <pt x="486" y="175" on="1"/>
        <pt x="486" y="461" on="1"/>
        <pt x="486" y="506" on="0"/>
        <pt x="467" y="560" on="0"/>
        <pt x="421" y="587" on="0"/>
        <pt x="368" y="594" on="0"/>
        <pt x="321" y="594" on="1"/>
        <pt x="126" y="594" on="1"/>
        <pt x="126" y="346" on="1"/>
        <pt x="232" y="346" on="1"/>
        <pt x="261" y="346" on="0"/>
        <pt x="261" y="324" on="1"/>
        <pt x="261" y="303" on="0"/>
        <pt x="232" y="303" on="1"/>
        <pt x="126" y="303" on="1"/>
        <pt x="126" y="42" on="1"/>
        <pt x="321" y="42" on="1"/>
        <pt x="368" y="42" on="0"/>
        <pt x="421" y="49" on="0"/>
        <pt x="467" y="76" on="0"/>
        <pt x="486" y="130" on="0"/>
      </contour>
    </TTGlyph>
    <TTGlyph name="Decyrillic" xMin="10" yMin="-92" xMax="510" yMax="636">
      <contour>
        <pt x="52" y="-62" on="1"/>
        <pt x="52" y="-92" on="0"/>
        <pt x="10" y="-92" on="0"/>
        <pt x="10" y="-62" on="1"/>
        <pt x="10" y="-10" on="1"/>
        <pt x="10" y="42" on="0"/>
        <pt x="56" y="42" on="1"/>
        <pt x="69" y="42" on="1"/>
        <pt x="100" y="94" on="0"/>
        <pt x="170" y="482" on="0"/>
        <pt x="170" y="636" on="1"/>
        <pt x="450" y="636" on="1"/>
        <pt x="450" y="42" on="1"/>
        <pt x="464" y="42" on="1"/>
        <pt x="510" y="42" on="0"/>
        <pt x="510" y="-10" on="1"/>
        <pt x="510" y="-62" on="1"/>
        <pt x="510" y="-92" on="0"/>
        <pt x="468" y="-92" on="0"/>
        <pt x="468" y="-62" on="1"/>
        <pt x="468" y="0" on="1"/>
        <pt x="52" y="0" on="1"/>
      </contour>
      <contour>
        <pt x="408" y="594" on="1"/>
        <pt x="211" y="594" on="1"/>
        <pt x="211" y="463" on="0"/>
        <pt x="144" y="92" on="0"/>
        <pt x="115" y="42" on="1"/>
        <pt x="408" y="42" on="1"/>
      </contour>
    </TTGlyph>
    <TTGlyph name="Delta" xMin="25" yMin="0" xMax="507" yMax="644">
      <contour>
        <pt x="485" y="0" on="1"/>
        <pt x="47" y="0" on="1"/>
        <pt x="25" y="0" on="0"/>
        <pt x="25" y="20" on="1"/>
        <pt x="25" y="26" on="0"/>
        <pt x="28" y="34" on="1"/>
        <pt x="243" y="624" on="1"/>
        <pt x="250" y="644" on="0"/>
        <pt x="282" y="644" on="0"/>
        <pt x="289" y="624" on="1"/>
        <pt x="504" y="34" on="1"/>
        <pt x="507" y="26" on="0"/>
        <pt x="507" y="20" on="1"/>
        <pt x="507" y="0" on="0"/>
      </contour>
      <contour>
        <pt x="456" y="43" on="1"/>
        <pt x="266" y="564" on="1"/>
        <pt x="76" y="43" on="1"/>
      </contour>
    </TTGlyph>
    <TTGlyph name="Djecyrillic" xMin="26" yMin="-205" xMax="624" yMax="636">
      <contour>
        <pt x="404" y="636" on="1"/>
        <pt x="432" y="636" on="0"/>
        <pt x="432" y="614" on="1"/>
        <pt x="432" y="594" on="0"/>
        <pt x="404" y="594" on="1"/>
        <pt x="251" y="594" on="1"/>
        <pt x="251" y="389" on="1"/>
        <pt x="307" y="461" on="0"/>
        <pt x="417" y="461" on="1"/>
        <pt x="522" y="461" on="0"/>
        <pt x="624" y="391" on="0"/>
        <pt x="624" y="286" on="1"/>
        <pt x="624" y="-81" on="1"/>
        <pt x="624" y="-158" on="0"/>
        <pt x="574" y="-205" on="0"/>
        <pt x="522" y="-205" on="1"/>
        <pt x="491" y="-205" on="0"/>
        <pt x="491" y="-163" on="0"/>
        <pt x="522" y="-163" on="1"/>
        <pt x="556" y="-163" on="0"/>
        <pt x="582" y="-133" on="0"/>
        <pt x="582" y="-98" on="1"/>
        <pt x="582" y="286" on="1"/>
        <pt x="582" y="331" on="0"/>
        <pt x="563" y="385" on="0"/>
        <pt x="517" y="412" on="0"/>
        <pt x="464" y="419" on="0"/>
        <pt x="417" y="419" on="1"/>
        <pt x="337" y="419" on="0"/>
        <pt x="251" y="322" on="0"/>
        <pt x="251" y="232" on="1"/>
        <pt x="251" y="23" on="1"/>
        <pt x="251" y="-7" on="0"/>
        <pt x="209" y="-7" on="0"/>
        <pt x="209" y="23" on="1"/>
        <pt x="209" y="594" on="1"/>
        <pt x="54" y="594" on="1"/>
        <pt x="26" y="594" on="0"/>
        <pt x="26" y="636" on="0"/>
        <pt x="54" y="636" on="1"/>
      </contour>
    </TTGlyph>
    <TTGlyph name="Dzecyrillic" xMin="62" yMin="-8" xMax="508" yMax="644">
      <component glyphName="S" x="0" y="0" flags="0x1004"/>
    </TTGlyph>
    <TTGlyph name="Dzhecyrillic" xMin="84" yMin="-92" xMax="518" yMax="601">
      <contour>
        <pt x="280" y="0" on="1"/>
        <pt x="84" y="0" on="1"/>
        <pt x="84" y="571" on="1"/>
        <pt x="84" y="601" on="0"/>
        <pt x="104" y="601" on="1"/>
        <pt x="126" y="601" on="0"/>
        <pt x="126" y="571" on="1"/>
        <pt x="126" y="42" on="1"/>
        <pt x="476" y="42" on="1"/>
        <pt x="476" y="571" on="1"/>
        <pt x="476" y="601" on="0"/>
        <pt x="518" y="601" on="0"/>
        <pt x="518" y="571" on="1"/>
        <pt x="518" y="0" on="1"/>
        <pt x="322" y="0" on="1"/>
        <pt x="322" y="-62" on="1"/>
        <pt x="322" y="-92" on="0"/>
        <pt x="280" y="-92" on="0"/>
        <pt x="280" y="-62" on="1"/>
      </contour>
    </TTGlyph>
    <TTGlyph name="E" xMin="84" yMin="0" xMax="528" yMax="636">
      <contour>
        <pt x="126" y="337" on="1"/>
        <pt x="126" y="42" on="1"/>
        <pt x="499" y="42" on="1"/>
        <pt x="528" y="42" on="0"/>
        <pt x="528" y="19" on="1"/>
        <pt x="528" y="0" on="0"/>
        <pt x="499" y="0" on="1"/>
        <pt x="103" y="0" on="1"/>
        <pt x="84" y="0" on="0"/>
        <pt x="84" y="31" on="1"/>
        <pt x="84" y="605" on="1"/>
        <pt x="84" y="636" on="0"/>
        <pt x="103" y="636" on="1"/>
        <pt x="499" y="636" on="1"/>
        <pt x="528" y="636" on="0"/>
        <pt x="528" y="613" on="1"/>
        <pt x="528" y="594" on="0"/>
        <pt x="499" y="594" on="1"/>
        <pt x="126" y="594" on="1"/>
        <pt x="126" y="379" on="1"/>
        <pt x="381" y="379" on="1"/>
        <pt x="411" y="379" on="0"/>
        <pt x="411" y="356" on="1"/>
        <pt x="411" y="337" on="0"/>
        <pt x="381" y="337" on="1"/>
      </contour>
    </TTGlyph>
    <TTGlyph name="E.sc" xMin="87" yMin="0" xMax="531" yMax="552">
      <contour>
        <pt x="129" y="276" on="1"/>
        <pt x="129" y="42" on="1"/>
        <pt x="502" y="42" on="1"/>
        <pt x="531" y="42" on="0"/>
        <pt x="531" y="19" on="1"/>
        <pt x="531" y="0" on="0"/>
        <pt x="502" y="0" on="1"/>
        <pt x="106" y="0" on="1"/>
        <pt x="87" y="0" on="0"/>
        <pt x="87" y="31" on="1"/>
        <pt x="87" y="521" on="1"/>
        <pt x="87" y="552" on="0"/>
        <pt x="106" y="552" on="1"/>
        <pt x="502" y="552" on="1"/>
        <pt x="531" y="552" on="0"/>
        <pt x="531" y="529" on="1"/>
        <pt x="531" y="510" on="0"/>
        <pt x="502" y="510" on="1"/>
        <pt x="129" y="510" on="1"/>
        <pt x="129" y="318" on="1"/>
        <pt x="384" y="318" on="1"/>
        <pt x="414" y="318" on="0"/>
        <pt x="414" y="295" on="1"/>
        <pt x="414" y="276" on="0"/>
        <pt x="384" y="276" on="1"/>
      </contour>
    </TTGlyph>
    <TTGlyph name="Eacute" xMin="84" yMin="0" xMax="528" yMax="819">
      <component glyphName="acutecomb" x="620" y="188" flags="0x1004"/>
      <component glyphName="E" x="0" y="0" flags="0x1204"/>
    </TTGlyph>
    <TTGlyph name="Ecaron" xMin="84" yMin="0" xMax="528" yMax="812">
      <contour>
        <pt x="324" y="678" on="1"/>
        <pt x="272" y="678" on="1"/>
        <pt x="170" y="785" on="1"/>
        <pt x="164" y="791" on="0"/>
        <pt x="164" y="797" on="1"/>
        <pt x="164" y="812" on="0"/>
        <pt x="182" y="812" on="1"/>
        <pt x="192" y="812" on="0"/>
        <pt x="211" y="796" on="1"/>
        <pt x="298" y="724" on="1"/>
        <pt x="385" y="796" on="1"/>
        <pt x="404" y="812" on="0"/>
        <pt x="414" y="812" on="1"/>
        <pt x="432" y="812" on="0"/>
        <pt x="432" y="797" on="1"/>
        <pt x="432" y="791" on="0"/>
        <pt x="426" y="785" on="1"/>
      </contour>
      <contour>
        <pt x="126" y="337" on="1"/>
        <pt x="126" y="42" on="1"/>
        <pt x="499" y="42" on="1"/>
        <pt x="528" y="42" on="0"/>
        <pt x="528" y="19" on="1"/>
        <pt x="528" y="0" on="0"/>
        <pt x="499" y="0" on="1"/>
        <pt x="103" y="0" on="1"/>
        <pt x="84" y="0" on="0"/>
        <pt x="84" y="31" on="1"/>
        <pt x="84" y="605" on="1"/>
        <pt x="84" y="636" on="0"/>
        <pt x="103" y="636" on="1"/>
        <pt x="499" y="636" on="1"/>
        <pt x="528" y="636" on="0"/>
        <pt x="528" y="613" on="1"/>
        <pt x="528" y="594" on="0"/>
        <pt x="499" y="594" on="1"/>
        <pt x="126" y="594" on="1"/>
        <pt x="126" y="379" on="1"/>
        <pt x="381" y="379" on="1"/>
        <pt x="411" y="379" on="0"/>
        <pt x="411" y="356" on="1"/>
        <pt x="411" y="337" on="0"/>
        <pt x="381" y="337" on="1"/>
      </contour>
    </TTGlyph>
    <TTGlyph name="Ecircumflex" xMin="84" yMin="0" xMax="528" yMax="819">
      <component glyphName="uni0302" x="603" y="141" flags="0x1004"/>
      <component glyphName="E" x="0" y="0" flags="0x1204"/>
    </TTGlyph>
    <TTGlyph name="Edieresis" xMin="84" yMin="0" xMax="528" yMax="778">
      <component glyphName="dieresis" x="117" y="112" flags="0x1004"/>
      <component glyphName="E" x="0" y="0" flags="0x1204"/>
    </TTGlyph>
    <TTGlyph name="Edotaccent" xMin="84" yMin="0" xMax="528" yMax="778">
      <contour>
        <pt x="255" y="728" on="0"/>
        <pt x="255" y="756" on="0"/>
        <pt x="285" y="778" on="0"/>
        <pt x="301" y="778" on="1"/>
        <pt x="316" y="778" on="0"/>
        <pt x="347" y="756" on="0"/>
        <pt x="347" y="728" on="0"/>
        <pt x="316" y="706" on="0"/>
        <pt x="301" y="706" on="1"/>
        <pt x="285" y="706" on="0"/>
      </contour>
      <contour>
        <pt x="126" y="337" on="1"/>
        <pt x="126" y="42" on="1"/>
        <pt x="499" y="42" on="1"/>
        <pt x="528" y="42" on="0"/>
        <pt x="528" y="19" on="1"/>
        <pt x="528" y="0" on="0"/>
        <pt x="499" y="0" on="1"/>
        <pt x="103" y="0" on="1"/>
        <pt x="84" y="0" on="0"/>
        <pt x="84" y="31" on="1"/>
        <pt x="84" y="605" on="1"/>
        <pt x="84" y="636" on="0"/>
        <pt x="103" y="636" on="1"/>
        <pt x="499" y="636" on="1"/>
        <pt x="528" y="636" on="0"/>
        <pt x="528" y="613" on="1"/>
        <pt x="528" y="594" on="0"/>
        <pt x="499" y="594" on="1"/>
        <pt x="126" y="594" on="1"/>
        <pt x="126" y="379" on="1"/>
        <pt x="381" y="379" on="1"/>
        <pt x="411" y="379" on="0"/>
        <pt x="411" y="356" on="1"/>
        <pt x="411" y="337" on="0"/>
        <pt x="381" y="337" on="1"/>
      </contour>
    </TTGlyph>
    <TTGlyph name="Efcyrillic" xMin="43" yMin="-7" xMax="487" yMax="643">
      <contour>
        <pt x="288" y="20" on="1"/>
        <pt x="288" y="-7" on="0"/>
        <pt x="266" y="-7" on="1"/>
        <pt x="246" y="-7" on="0"/>
        <pt x="246" y="20" on="1"/>
        <pt x="246" y="77" on="1"/>
        <pt x="156" y="83" on="0"/>
        <pt x="43" y="207" on="0"/>
        <pt x="43" y="312" on="1"/>
        <pt x="43" y="324" on="1"/>
        <pt x="43" y="429" on="0"/>
        <pt x="156" y="553" on="0"/>
        <pt x="246" y="559" on="1"/>
        <pt x="246" y="615" on="1"/>
        <pt x="246" y="643" on="0"/>
        <pt x="288" y="643" on="0"/>
        <pt x="288" y="615" on="1"/>
        <pt x="288" y="559" on="1"/>
        <pt x="376" y="551" on="0"/>
        <pt x="487" y="427" on="0"/>
        <pt x="487" y="324" on="1"/>
        <pt x="487" y="312" on="1"/>
        <pt x="487" y="209" on="0"/>
        <pt x="376" y="85" on="0"/>
        <pt x="288" y="77" on="1"/>
      </contour>
      <contour>
        <pt x="288" y="119" on="1"/>
        <pt x="362" y="126" on="0"/>
        <pt x="445" y="228" on="0"/>
        <pt x="445" y="312" on="1"/>
        <pt x="445" y="324" on="1"/>
        <pt x="445" y="408" on="0"/>
        <pt x="362" y="509" on="0"/>
        <pt x="288" y="517" on="1"/>
      </contour>
      <contour>
        <pt x="246" y="119" on="1"/>
        <pt x="246" y="517" on="1"/>
        <pt x="170" y="511" on="0"/>
        <pt x="85" y="409" on="0"/>
        <pt x="85" y="324" on="1"/>
        <pt x="85" y="312" on="1"/>
        <pt x="85" y="226" on="0"/>
        <pt x="170" y="125" on="0"/>
      </contour>
    </TTGlyph>
    <TTGlyph name="Egrave" xMin="84" yMin="0" xMax="528" yMax="819">
      <component glyphName="gravecomb" x="569" y="188" flags="0x1004"/>
      <component glyphName="E" x="0" y="0" flags="0x1204"/>
    </TTGlyph>
    <TTGlyph name="Elcyrillic" xMin="20" yMin="-7" xMax="468" yMax="636">
      <contour>
        <pt x="468" y="24" on="1"/>
        <pt x="468" y="-7" on="0"/>
        <pt x="446" y="-7" on="1"/>
        <pt x="426" y="-7" on="0"/>
        <pt x="426" y="24" on="1"/>
        <pt x="426" y="594" on="1"/>
        <pt x="213" y="594" on="1"/>
        <pt x="179" y="594" on="0"/>
        <pt x="153" y="564" on="0"/>
        <pt x="153" y="529" on="1"/>
        <pt x="153" y="124" on="1"/>
        <pt x="153" y="47" on="0"/>
        <pt x="103" y="0" on="0"/>
        <pt x="51" y="0" on="1"/>
        <pt x="20" y="0" on="0"/>
        <pt x="20" y="22" on="1"/>
        <pt x="20" y="42" on="0"/>
        <pt x="51" y="42" on="1"/>
        <pt x="85" y="42" on="0"/>
        <pt x="111" y="71" on="0"/>
        <pt x="111" y="106" on="1"/>
        <pt x="111" y="512" on="1"/>
        <pt x="111" y="582" on="0"/>
        <pt x="151" y="636" on="0"/>
        <pt x="206" y="636" on="1"/>
        <pt x="468" y="636" on="1"/>
      </contour>
    </TTGlyph>
    <TTGlyph name="Emacron" xMin="84" yMin="0" xMax="528" yMax="749">
      <contour>
        <pt x="177" y="706" on="1"/>
        <pt x="151" y="706" on="0"/>
        <pt x="151" y="728" on="1"/>
        <pt x="151" y="749" on="0"/>
        <pt x="177" y="749" on="1"/>
        <pt x="422" y="749" on="1"/>
        <pt x="451" y="749" on="0"/>
        <pt x="451" y="726" on="1"/>
        <pt x="451" y="706" on="0"/>
        <pt x="422" y="706" on="1"/>
      </contour>
      <contour>
        <pt x="126" y="337" on="1"/>
        <pt x="126" y="42" on="1"/>
        <pt x="499" y="42" on="1"/>
        <pt x="528" y="42" on="0"/>
        <pt x="528" y="19" on="1"/>
        <pt x="528" y="0" on="0"/>
        <pt x="499" y="0" on="1"/>
        <pt x="103" y="0" on="1"/>
        <pt x="84" y="0" on="0"/>
        <pt x="84" y="31" on="1"/>
        <pt x="84" y="605" on="1"/>
        <pt x="84" y="636" on="0"/>
        <pt x="103" y="636" on="1"/>
        <pt x="499" y="636" on="1"/>
        <pt x="528" y="636" on="0"/>
        <pt x="528" y="613" on="1"/>
        <pt x="528" y="594" on="0"/>
        <pt x="499" y="594" on="1"/>
        <pt x="126" y="594" on="1"/>
        <pt x="126" y="379" on="1"/>
        <pt x="381" y="379" on="1"/>
        <pt x="411" y="379" on="0"/>
        <pt x="411" y="356" on="1"/>
        <pt x="411" y="337" on="0"/>
        <pt x="381" y="337" on="1"/>
      </contour>
    </TTGlyph>
    <TTGlyph name="Emcyrillic" xMin="84" yMin="-7" xMax="549" yMax="643">
      <component glyphName="M" x="0" y="0" flags="0x1004"/>
    </TTGlyph>
    <TTGlyph name="Encyrillic" xMin="84" yMin="-7" xMax="528" yMax="643">
      <component glyphName="H" x="0" y="0" flags="0x1004"/>
    </TTGlyph>
    <TTGlyph name="Eng" xMin="84" yMin="-175" xMax="528" yMax="643">
      <contour>
        <pt x="486" y="84" on="1"/>
        <pt x="486" y="612" on="1"/>
        <pt x="486" y="643" on="0"/>
        <pt x="506" y="643" on="1"/>
        <pt x="528" y="643" on="0"/>
        <pt x="528" y="612" on="1"/>
        <pt x="528" y="0" on="1"/>
        <pt x="528" y="-56" on="0"/>
        <pt x="500" y="-128" on="0"/>
        <pt x="440" y="-163" on="0"/>
        <pt x="372" y="-175" on="0"/>
        <pt x="320" y="-175" on="1"/>
        <pt x="289" y="-175" on="0"/>
        <pt x="289" y="-153" on="1"/>
        <pt x="289" y="-133" on="0"/>
        <pt x="320" y="-133" on="1"/>
        <pt x="368" y="-133" on="0"/>
        <pt x="421" y="-126" on="0"/>
        <pt x="467" y="-99" on="0"/>
        <pt x="486" y="-45" on="0"/>
        <pt x="486" y="0" on="1"/>
        <pt x="486" y="9" on="1"/>
        <pt x="126" y="557" on="1"/>
        <pt x="126" y="23" on="1"/>
        <pt x="126" y="-7" on="0"/>
        <pt x="84" y="-7" on="0"/>
        <pt x="84" y="23" on="1"/>
        <pt x="84" y="612" on="1"/>
        <pt x="84" y="643" on="0"/>
        <pt x="103" y="643" on="1"/>
        <pt x="118" y="643" on="0"/>
        <pt x="129" y="626" on="1"/>
      </contour>
    </TTGlyph>
    <TTGlyph name="Eogonek" xMin="84" yMin="-201" xMax="528" yMax="636">
      <contour>
        <pt x="401" y="-156" on="1"/>
        <pt x="401" y="-180" on="0"/>
        <pt x="350" y="-201" on="0"/>
        <pt x="327" y="-201" on="1"/>
        <pt x="287" y="-201" on="0"/>
        <pt x="236" y="-146" on="0"/>
        <pt x="236" y="-102" on="1"/>
        <pt x="236" y="-65" on="0"/>
        <pt x="285" y="0" on="1"/>
        <pt x="103" y="0" on="1"/>
        <pt x="84" y="0" on="0"/>
        <pt x="84" y="31" on="1"/>
        <pt x="84" y="605" on="1"/>
        <pt x="84" y="636" on="0"/>
        <pt x="103" y="636" on="1"/>
        <pt x="499" y="636" on="1"/>
        <pt x="528" y="636" on="0"/>
        <pt x="528" y="613" on="1"/>
        <pt x="528" y="594" on="0"/>
        <pt x="499" y="594" on="1"/>
        <pt x="126" y="594" on="1"/>
        <pt x="126" y="379" on="1"/>
        <pt x="381" y="379" on="1"/>
        <pt x="411" y="379" on="0"/>
        <pt x="411" y="356" on="1"/>
        <pt x="411" y="337" on="0"/>
        <pt x="381" y="337" on="1"/>
        <pt x="126" y="337" on="1"/>
        <pt x="126" y="42" on="1"/>
        <pt x="499" y="42" on="1"/>
        <pt x="528" y="42" on="0"/>
        <pt x="528" y="19" on="1"/>
        <pt x="528" y="0" on="0"/>
        <pt x="499" y="0" on="1"/>
        <pt x="341" y="0" on="1"/>
        <pt x="322" y="-11" on="0"/>
        <pt x="278" y="-84" on="0"/>
        <pt x="278" y="-102" on="1"/>
        <pt x="278" y="-161" on="0"/>
        <pt x="325" y="-161" on="1"/>
        <pt x="342" y="-161" on="0"/>
        <pt x="388" y="-143" on="0"/>
        <pt x="391" y="-143" on="1"/>
        <pt x="401" y="-143" on="0"/>
      </contour>
    </TTGlyph>
    <TTGlyph name="Epsilon" xMin="84" yMin="0" xMax="528" yMax="636">
      <component glyphName="E" x="0" y="0" flags="0x1004"/>
    </TTGlyph>
    <TTGlyph name="Epsilontonos" xMin="19" yMin="0" xMax="565" yMax="750">
      <component glyphName="tonos" x="-56" y="102" flags="0x1004"/>
      <component glyphName="Epsilon" x="37" y="0" flags="0x1004"/>
    </TTGlyph>
    <TTGlyph name="Ercyrillic" xMin="84" yMin="-7" xMax="486" yMax="636">
      <component glyphName="P" x="0" y="0" flags="0x1004"/>
    </TTGlyph>
    <TTGlyph name="Ereversedcyrillic" xMin="54" yMin="0" xMax="498" yMax="636">
      <contour>
        <pt x="149" y="636" on="1"/>
        <pt x="290" y="636" on="1"/>
        <pt x="396" y="636" on="0"/>
        <pt x="498" y="566" on="0"/>
        <pt x="498" y="461" on="1"/>
        <pt x="498" y="175" on="1"/>
        <pt x="498" y="70" on="0"/>
        <pt x="396" y="0" on="0"/>
        <pt x="290" y="0" on="1"/>
        <pt x="149" y="0" on="1"/>
        <pt x="118" y="0" on="0"/>
        <pt x="77" y="18" on="0"/>
        <pt x="60" y="52" on="0"/>
        <pt x="54" y="84" on="0"/>
        <pt x="54" y="107" on="1"/>
        <pt x="54" y="137" on="0"/>
        <pt x="96" y="137" on="0"/>
        <pt x="96" y="109" on="1"/>
        <pt x="96" y="73" on="0"/>
        <pt x="122" y="42" on="0"/>
        <pt x="156" y="42" on="1"/>
        <pt x="290" y="42" on="1"/>
        <pt x="338" y="42" on="0"/>
        <pt x="391" y="49" on="0"/>
        <pt x="437" y="76" on="0"/>
        <pt x="456" y="130" on="0"/>
        <pt x="456" y="175" on="1"/>
        <pt x="456" y="312" on="1"/>
        <pt x="202" y="312" on="1"/>
        <pt x="172" y="312" on="0"/>
        <pt x="172" y="335" on="1"/>
        <pt x="172" y="354" on="0"/>
        <pt x="202" y="354" on="1"/>
        <pt x="456" y="354" on="1"/>
        <pt x="456" y="461" on="1"/>
        <pt x="456" y="506" on="0"/>
        <pt x="437" y="560" on="0"/>
        <pt x="391" y="587" on="0"/>
        <pt x="338" y="594" on="0"/>
        <pt x="290" y="594" on="1"/>
        <pt x="156" y="594" on="1"/>
        <pt x="122" y="594" on="0"/>
        <pt x="96" y="564" on="0"/>
        <pt x="96" y="527" on="1"/>
        <pt x="96" y="499" on="0"/>
        <pt x="54" y="499" on="0"/>
        <pt x="54" y="530" on="1"/>
        <pt x="54" y="552" on="0"/>
        <pt x="60" y="584" on="0"/>
        <pt x="77" y="618" on="0"/>
        <pt x="118" y="636" on="0"/>
      </contour>
    </TTGlyph>
    <TTGlyph name="Escyrillic" xMin="72" yMin="0" xMax="516" yMax="636">
      <component glyphName="C" x="0" y="0" flags="0x1004"/>
    </TTGlyph>
    <TTGlyph name="Eta" xMin="84" yMin="-7" xMax="528" yMax="643">
      <component glyphName="H" x="0" y="0" flags="0x1004"/>
    </TTGlyph>
    <TTGlyph name="Etatonos" xMin="20" yMin="-7" xMax="564" yMax="750">
      <component glyphName="tonos" x="-55" y="102" flags="0x1004"/>
      <component glyphName="Eta" x="36" y="0" flags="0x1004"/>
    </TTGlyph>
    <TTGlyph name="Eth" xMin="49" yMin="0" xMax="528" yMax="636">
      <contour>
        <pt x="76" y="303" on="1"/>
        <pt x="49" y="303" on="0"/>
        <pt x="49" y="326" on="1"/>
        <pt x="49" y="346" on="0"/>
        <pt x="76" y="346" on="1"/>
        <pt x="84" y="346" on="1"/>
        <pt x="84" y="605" on="1"/>
        <pt x="84" y="636" on="0"/>
        <pt x="103" y="636" on="1"/>
        <pt x="321" y="636" on="1"/>
        <pt x="426" y="636" on="0"/>
        <pt x="528" y="566" on="0"/>
        <pt x="528" y="461" on="1"/>
        <pt x="528" y="175" on="1"/>
        <pt x="528" y="70" on="0"/>
        <pt x="426" y="0" on="0"/>
        <pt x="321" y="0" on="1"/>
        <pt x="103" y="0" on="1"/>
        <pt x="84" y="0" on="0"/>
        <pt x="84" y="31" on="1"/>
        <pt x="84" y="303" on="1"/>
      </contour>
      <contour>
        <pt x="486" y="175" on="1"/>
        <pt x="486" y="461" on="1"/>
        <pt x="486" y="506" on="0"/>
        <pt x="467" y="560" on="0"/>
        <pt x="421" y="587" on="0"/>
        <pt x="368" y="594" on="0"/>
        <pt x="321" y="594" on="1"/>
        <pt x="126" y="594" on="1"/>
        <pt x="126" y="346" on="1"/>
        <pt x="232" y="346" on="1"/>
        <pt x="261" y="346" on="0"/>
        <pt x="261" y="324" on="1"/>
        <pt x="261" y="303" on="0"/>
        <pt x="232" y="303" on="1"/>
        <pt x="126" y="303" on="1"/>
        <pt x="126" y="42" on="1"/>
        <pt x="321" y="42" on="1"/>
        <pt x="368" y="42" on="0"/>
        <pt x="421" y="49" on="0"/>
        <pt x="467" y="76" on="0"/>
        <pt x="486" y="130" on="0"/>
      </contour>
    </TTGlyph>
    <TTGlyph name="Euro" xMin="44" yMin="0" xMax="488" yMax="636">
      <contour>
        <pt x="393" y="636" on="1"/>
        <pt x="424" y="636" on="0"/>
        <pt x="465" y="618" on="0"/>
        <pt x="482" y="584" on="0"/>
        <pt x="488" y="552" on="0"/>
        <pt x="488" y="529" on="1"/>
        <pt x="488" y="499" on="0"/>
        <pt x="446" y="499" on="0"/>
        <pt x="446" y="527" on="1"/>
        <pt x="446" y="563" on="0"/>
        <pt x="420" y="594" on="0"/>
        <pt x="386" y="594" on="1"/>
        <pt x="330" y="594" on="1"/>
        <pt x="244" y="594" on="0"/>
        <pt x="149" y="499" on="0"/>
        <pt x="149" y="409" on="1"/>
        <pt x="149" y="399" on="1"/>
        <pt x="348" y="399" on="1"/>
        <pt x="377" y="399" on="0"/>
        <pt x="377" y="377" on="1"/>
        <pt x="377" y="356" on="0"/>
        <pt x="348" y="356" on="1"/>
        <pt x="149" y="356" on="1"/>
        <pt x="149" y="281" on="1"/>
        <pt x="348" y="281" on="1"/>
        <pt x="377" y="281" on="0"/>
        <pt x="377" y="258" on="1"/>
        <pt x="377" y="238" on="0"/>
        <pt x="348" y="238" on="1"/>
        <pt x="149" y="238" on="1"/>
        <pt x="149" y="227" on="1"/>
        <pt x="149" y="137" on="0"/>
        <pt x="244" y="42" on="0"/>
        <pt x="330" y="42" on="1"/>
        <pt x="386" y="42" on="1"/>
        <pt x="420" y="42" on="0"/>
        <pt x="446" y="72" on="0"/>
        <pt x="446" y="109" on="1"/>
        <pt x="446" y="137" on="0"/>
        <pt x="488" y="137" on="0"/>
        <pt x="488" y="106" on="1"/>
        <pt x="488" y="84" on="0"/>
        <pt x="482" y="52" on="0"/>
        <pt x="465" y="18" on="0"/>
        <pt x="424" y="0" on="0"/>
        <pt x="393" y="0" on="1"/>
        <pt x="330" y="0" on="1"/>
        <pt x="231" y="0" on="0"/>
        <pt x="107" y="118" on="0"/>
        <pt x="107" y="227" on="1"/>
        <pt x="107" y="238" on="1"/>
        <pt x="71" y="238" on="1"/>
        <pt x="44" y="238" on="0"/>
        <pt x="44" y="260" on="1"/>
        <pt x="44" y="281" on="0"/>
        <pt x="71" y="281" on="1"/>
        <pt x="107" y="281" on="1"/>
        <pt x="107" y="356" on="1"/>
        <pt x="71" y="356" on="1"/>
        <pt x="44" y="356" on="0"/>
        <pt x="44" y="379" on="1"/>
        <pt x="44" y="399" on="0"/>
        <pt x="71" y="399" on="1"/>
        <pt x="107" y="399" on="1"/>
        <pt x="107" y="409" on="1"/>
        <pt x="107" y="518" on="0"/>
        <pt x="231" y="636" on="0"/>
        <pt x="330" y="636" on="1"/>
      </contour>
    </TTGlyph>
    <TTGlyph name="F" xMin="84" yMin="-7" xMax="528" yMax="636">
      <contour>
        <pt x="126" y="23" on="1"/>
        <pt x="126" y="-7" on="0"/>
        <pt x="84" y="-7" on="0"/>
        <pt x="84" y="23" on="1"/>
        <pt x="84" y="605" on="1"/>
        <pt x="84" y="636" on="0"/>
        <pt x="103" y="636" on="1"/>
        <pt x="499" y="636" on="1"/>
        <pt x="528" y="636" on="0"/>
        <pt x="528" y="613" on="1"/>
        <pt x="528" y="594" on="0"/>
        <pt x="499" y="594" on="1"/>
        <pt x="126" y="594" on="1"/>
        <pt x="126" y="379" on="1"/>
        <pt x="381" y="379" on="1"/>
        <pt x="411" y="379" on="0"/>
        <pt x="411" y="356" on="1"/>
        <pt x="411" y="337" on="0"/>
        <pt x="381" y="337" on="1"/>
        <pt x="126" y="337" on="1"/>
      </contour>
    </TTGlyph>
    <TTGlyph name="Fitacyrillic" xMin="65" yMin="-9" xMax="509" yMax="645">
      <contour>
        <pt x="467" y="303" on="1"/>
        <pt x="436" y="280" on="0"/>
        <pt x="402" y="280" on="1"/>
        <pt x="366" y="280" on="0"/>
        <pt x="200" y="320" on="0"/>
        <pt x="183" y="320" on="1"/>
        <pt x="168" y="320" on="0"/>
        <pt x="130" y="304" on="0"/>
        <pt x="118" y="296" on="1"/>
        <pt x="107" y="287" on="1"/>
        <pt x="107" y="227" on="1"/>
        <pt x="107" y="136" on="0"/>
        <pt x="203" y="33" on="0"/>
        <pt x="371" y="33" on="0"/>
        <pt x="467" y="136" on="0"/>
        <pt x="467" y="227" on="1"/>
      </contour>
      <contour>
        <pt x="467" y="409" on="1"/>
        <pt x="467" y="500" on="0"/>
        <pt x="371" y="603" on="0"/>
        <pt x="203" y="603" on="0"/>
        <pt x="107" y="500" on="0"/>
        <pt x="107" y="409" on="1"/>
        <pt x="107" y="339" on="1"/>
        <pt x="136" y="362" on="0"/>
        <pt x="170" y="362" on="1"/>
        <pt x="206" y="362" on="0"/>
        <pt x="372" y="322" on="0"/>
        <pt x="389" y="322" on="1"/>
        <pt x="404" y="322" on="0"/>
        <pt x="443" y="339" on="0"/>
        <pt x="455" y="348" on="1"/>
        <pt x="467" y="356" on="1"/>
      </contour>
      <contour>
        <pt x="509" y="227" on="1"/>
        <pt x="509" y="117" on="0"/>
        <pt x="384" y="-9" on="0"/>
        <pt x="190" y="-9" on="0"/>
        <pt x="65" y="117" on="0"/>
        <pt x="65" y="227" on="1"/>
        <pt x="65" y="409" on="1"/>
        <pt x="65" y="519" on="0"/>
        <pt x="190" y="645" on="0"/>
        <pt x="384" y="645" on="0"/>
        <pt x="509" y="519" on="0"/>
        <pt x="509" y="409" on="1"/>
      </contour>
    </TTGlyph>
    <TTGlyph name="G" xMin="72" yMin="0" xMax="516" yMax="636">
      <contour>
        <pt x="474" y="251" on="1"/>
        <pt x="341" y="251" on="1"/>
        <pt x="311" y="251" on="0"/>
        <pt x="311" y="271" on="1"/>
        <pt x="311" y="293" on="0"/>
        <pt x="341" y="293" on="1"/>
        <pt x="516" y="293" on="1"/>
        <pt x="516" y="106" on="1"/>
        <pt x="516" y="84" on="0"/>
        <pt x="510" y="52" on="0"/>
        <pt x="493" y="18" on="0"/>
        <pt x="452" y="0" on="0"/>
        <pt x="421" y="0" on="1"/>
        <pt x="280" y="0" on="1"/>
        <pt x="228" y="0" on="0"/>
        <pt x="160" y="12" on="0"/>
        <pt x="100" y="48" on="0"/>
        <pt x="72" y="120" on="0"/>
        <pt x="72" y="175" on="1"/>
        <pt x="72" y="461" on="1"/>
        <pt x="72" y="516" on="0"/>
        <pt x="100" y="588" on="0"/>
        <pt x="160" y="624" on="0"/>
        <pt x="228" y="636" on="0"/>
        <pt x="280" y="636" on="1"/>
        <pt x="421" y="636" on="1"/>
        <pt x="452" y="636" on="0"/>
        <pt x="493" y="618" on="0"/>
        <pt x="510" y="584" on="0"/>
        <pt x="516" y="552" on="0"/>
        <pt x="516" y="530" on="1"/>
        <pt x="516" y="499" on="0"/>
        <pt x="474" y="499" on="0"/>
        <pt x="474" y="528" on="1"/>
        <pt x="474" y="564" on="0"/>
        <pt x="448" y="594" on="0"/>
        <pt x="414" y="594" on="1"/>
        <pt x="280" y="594" on="1"/>
        <pt x="232" y="594" on="0"/>
        <pt x="179" y="587" on="0"/>
        <pt x="133" y="560" on="0"/>
        <pt x="114" y="506" on="0"/>
        <pt x="114" y="461" on="1"/>
        <pt x="114" y="175" on="1"/>
        <pt x="114" y="130" on="0"/>
        <pt x="133" y="76" on="0"/>
        <pt x="179" y="49" on="0"/>
        <pt x="232" y="42" on="0"/>
        <pt x="280" y="42" on="1"/>
        <pt x="414" y="42" on="1"/>
        <pt x="448" y="42" on="0"/>
        <pt x="474" y="72" on="0"/>
        <pt x="474" y="108" on="1"/>
      </contour>
    </TTGlyph>
    <TTGlyph name="Gamma" xMin="82" yMin="-7" xMax="512" yMax="636">
      <contour>
        <pt x="184" y="594" on="1"/>
        <pt x="150" y="594" on="0"/>
        <pt x="124" y="564" on="0"/>
        <pt x="124" y="529" on="1"/>
        <pt x="124" y="23" on="1"/>
        <pt x="124" y="-7" on="0"/>
        <pt x="102" y="-7" on="1"/>
        <pt x="82" y="-7" on="0"/>
        <pt x="82" y="23" on="1"/>
        <pt x="82" y="512" on="1"/>
        <pt x="82" y="582" on="0"/>
        <pt x="122" y="636" on="0"/>
        <pt x="177" y="636" on="1"/>
        <pt x="482" y="636" on="1"/>
        <pt x="512" y="636" on="0"/>
        <pt x="512" y="594" on="0"/>
        <pt x="482" y="594" on="1"/>
      </contour>
    </TTGlyph>
    <TTGlyph name="Gbreve" xMin="72" yMin="0" xMax="516" yMax="819">
      <contour>
        <pt x="420" y="819" on="1"/>
        <pt x="420" y="771" on="0"/>
        <pt x="352" y="698" on="0"/>
        <pt x="258" y="698" on="0"/>
        <pt x="190" y="771" on="0"/>
        <pt x="190" y="819" on="1"/>
        <pt x="233" y="819" on="1"/>
        <pt x="233" y="785" on="0"/>
        <pt x="272" y="742" on="0"/>
        <pt x="338" y="742" on="0"/>
        <pt x="377" y="785" on="0"/>
        <pt x="377" y="819" on="1"/>
      </contour>
      <contour>
        <pt x="474" y="251" on="1"/>
        <pt x="341" y="251" on="1"/>
        <pt x="311" y="251" on="0"/>
        <pt x="311" y="271" on="1"/>
        <pt x="311" y="293" on="0"/>
        <pt x="341" y="293" on="1"/>
        <pt x="516" y="293" on="1"/>
        <pt x="516" y="106" on="1"/>
        <pt x="516" y="84" on="0"/>
        <pt x="510" y="52" on="0"/>
        <pt x="493" y="18" on="0"/>
        <pt x="452" y="0" on="0"/>
        <pt x="421" y="0" on="1"/>
        <pt x="280" y="0" on="1"/>
        <pt x="228" y="0" on="0"/>
        <pt x="160" y="12" on="0"/>
        <pt x="100" y="48" on="0"/>
        <pt x="72" y="120" on="0"/>
        <pt x="72" y="175" on="1"/>
        <pt x="72" y="461" on="1"/>
        <pt x="72" y="516" on="0"/>
        <pt x="100" y="588" on="0"/>
        <pt x="160" y="624" on="0"/>
        <pt x="228" y="636" on="0"/>
        <pt x="280" y="636" on="1"/>
        <pt x="421" y="636" on="1"/>
        <pt x="452" y="636" on="0"/>
        <pt x="493" y="618" on="0"/>
        <pt x="510" y="584" on="0"/>
        <pt x="516" y="552" on="0"/>
        <pt x="516" y="530" on="1"/>
        <pt x="516" y="499" on="0"/>
        <pt x="474" y="499" on="0"/>
        <pt x="474" y="528" on="1"/>
        <pt x="474" y="564" on="0"/>
        <pt x="448" y="594" on="0"/>
        <pt x="414" y="594" on="1"/>
        <pt x="280" y="594" on="1"/>
        <pt x="232" y="594" on="0"/>
        <pt x="179" y="587" on="0"/>
        <pt x="133" y="560" on="0"/>
        <pt x="114" y="506" on="0"/>
        <pt x="114" y="461" on="1"/>
        <pt x="114" y="175" on="1"/>
        <pt x="114" y="130" on="0"/>
        <pt x="133" y="76" on="0"/>
        <pt x="179" y="49" on="0"/>
        <pt x="232" y="42" on="0"/>
        <pt x="280" y="42" on="1"/>
        <pt x="414" y="42" on="1"/>
        <pt x="448" y="42" on="0"/>
        <pt x="474" y="72" on="0"/>
        <pt x="474" y="108" on="1"/>
      </contour>
    </TTGlyph>
    <TTGlyph name="Gcircumflex" xMin="72" yMin="0" xMax="516" yMax="819">
      <contour>
        <pt x="304" y="773" on="1"/>
        <pt x="301" y="773" on="1"/>
        <pt x="209" y="669" on="1"/>
        <pt x="207" y="667" on="0"/>
        <pt x="200" y="659" on="0"/>
        <pt x="197" y="656" on="0"/>
        <pt x="192" y="652" on="0"/>
        <pt x="188" y="651" on="0"/>
        <pt x="185" y="651" on="1"/>
        <pt x="167" y="651" on="0"/>
        <pt x="167" y="669" on="1"/>
        <pt x="167" y="678" on="0"/>
        <pt x="171" y="682" on="1"/>
        <pt x="275" y="819" on="1"/>
        <pt x="330" y="819" on="1"/>
        <pt x="436" y="682" on="1"/>
        <pt x="440" y="677" on="0"/>
        <pt x="440" y="669" on="1"/>
        <pt x="440" y="651" on="0"/>
        <pt x="422" y="651" on="1"/>
        <pt x="418" y="651" on="0"/>
        <pt x="411" y="654" on="0"/>
        <pt x="408" y="657" on="0"/>
        <pt x="400" y="667" on="0"/>
        <pt x="398" y="669" on="1"/>
      </contour>
      <contour>
        <pt x="474" y="251" on="1"/>
        <pt x="341" y="251" on="1"/>
        <pt x="311" y="251" on="0"/>
        <pt x="311" y="271" on="1"/>
        <pt x="311" y="293" on="0"/>
        <pt x="341" y="293" on="1"/>
        <pt x="516" y="293" on="1"/>
        <pt x="516" y="106" on="1"/>
        <pt x="516" y="84" on="0"/>
        <pt x="510" y="52" on="0"/>
        <pt x="493" y="18" on="0"/>
        <pt x="452" y="0" on="0"/>
        <pt x="421" y="0" on="1"/>
        <pt x="280" y="0" on="1"/>
        <pt x="228" y="0" on="0"/>
        <pt x="160" y="12" on="0"/>
        <pt x="100" y="48" on="0"/>
        <pt x="72" y="120" on="0"/>
        <pt x="72" y="175" on="1"/>
        <pt x="72" y="461" on="1"/>
        <pt x="72" y="516" on="0"/>
        <pt x="100" y="588" on="0"/>
        <pt x="160" y="624" on="0"/>
        <pt x="228" y="636" on="0"/>
        <pt x="280" y="636" on="1"/>
        <pt x="421" y="636" on="1"/>
        <pt x="452" y="636" on="0"/>
        <pt x="493" y="618" on="0"/>
        <pt x="510" y="584" on="0"/>
        <pt x="516" y="552" on="0"/>
        <pt x="516" y="530" on="1"/>
        <pt x="516" y="499" on="0"/>
        <pt x="474" y="499" on="0"/>
        <pt x="474" y="528" on="1"/>
        <pt x="474" y="564" on="0"/>
        <pt x="448" y="594" on="0"/>
        <pt x="414" y="594" on="1"/>
        <pt x="280" y="594" on="1"/>
        <pt x="232" y="594" on="0"/>
        <pt x="179" y="587" on="0"/>
        <pt x="133" y="560" on="0"/>
        <pt x="114" y="506" on="0"/>
        <pt x="114" y="461" on="1"/>
        <pt x="114" y="175" on="1"/>
        <pt x="114" y="130" on="0"/>
        <pt x="133" y="76" on="0"/>
        <pt x="179" y="49" on="0"/>
        <pt x="232" y="42" on="0"/>
        <pt x="280" y="42" on="1"/>
        <pt x="414" y="42" on="1"/>
        <pt x="448" y="42" on="0"/>
        <pt x="474" y="72" on="0"/>
        <pt x="474" y="108" on="1"/>
      </contour>
    </TTGlyph>
    <TTGlyph name="Gcommaaccent" xMin="72" yMin="-205" xMax="516" yMax="636">
      <contour>
        <pt x="308" y="-64" on="1"/>
        <pt x="318" y="-64" on="0"/>
        <pt x="344" y="-74" on="0"/>
        <pt x="344" y="-84" on="1"/>
        <pt x="344" y="-93" on="0"/>
        <pt x="340" y="-101" on="1"/>
        <pt x="298" y="-184" on="1"/>
        <pt x="289" y="-205" on="0"/>
        <pt x="278" y="-205" on="1"/>
        <pt x="261" y="-205" on="0"/>
        <pt x="261" y="-185" on="1"/>
        <pt x="261" y="-179" on="0"/>
        <pt x="264" y="-170" on="1"/>
        <pt x="288" y="-84" on="1"/>
        <pt x="294" y="-64" on="0"/>
      </contour>
      <contour>
        <pt x="474" y="251" on="1"/>
        <pt x="341" y="251" on="1"/>
        <pt x="311" y="251" on="0"/>
        <pt x="311" y="271" on="1"/>
        <pt x="311" y="293" on="0"/>
        <pt x="341" y="293" on="1"/>
        <pt x="516" y="293" on="1"/>
        <pt x="516" y="106" on="1"/>
        <pt x="516" y="84" on="0"/>
        <pt x="510" y="52" on="0"/>
        <pt x="493" y="18" on="0"/>
        <pt x="452" y="0" on="0"/>
        <pt x="421" y="0" on="1"/>
        <pt x="280" y="0" on="1"/>
        <pt x="228" y="0" on="0"/>
        <pt x="160" y="12" on="0"/>
        <pt x="100" y="48" on="0"/>
        <pt x="72" y="120" on="0"/>
        <pt x="72" y="175" on="1"/>
        <pt x="72" y="461" on="1"/>
        <pt x="72" y="516" on="0"/>
        <pt x="100" y="588" on="0"/>
        <pt x="160" y="624" on="0"/>
        <pt x="228" y="636" on="0"/>
        <pt x="280" y="636" on="1"/>
        <pt x="421" y="636" on="1"/>
        <pt x="452" y="636" on="0"/>
        <pt x="493" y="618" on="0"/>
        <pt x="510" y="584" on="0"/>
        <pt x="516" y="552" on="0"/>
        <pt x="516" y="530" on="1"/>
        <pt x="516" y="499" on="0"/>
        <pt x="474" y="499" on="0"/>
        <pt x="474" y="528" on="1"/>
        <pt x="474" y="564" on="0"/>
        <pt x="448" y="594" on="0"/>
        <pt x="414" y="594" on="1"/>
        <pt x="280" y="594" on="1"/>
        <pt x="232" y="594" on="0"/>
        <pt x="179" y="587" on="0"/>
        <pt x="133" y="560" on="0"/>
        <pt x="114" y="506" on="0"/>
        <pt x="114" y="461" on="1"/>
        <pt x="114" y="175" on="1"/>
        <pt x="114" y="130" on="0"/>
        <pt x="133" y="76" on="0"/>
        <pt x="179" y="49" on="0"/>
        <pt x="232" y="42" on="0"/>
        <pt x="280" y="42" on="1"/>
        <pt x="414" y="42" on="1"/>
        <pt x="448" y="42" on="0"/>
        <pt x="474" y="72" on="0"/>
        <pt x="474" y="108" on="1"/>
      </contour>
    </TTGlyph>
    <TTGlyph name="Gdotaccent" xMin="72" yMin="0" xMax="516" yMax="778">
      <contour>
        <pt x="243" y="728" on="0"/>
        <pt x="243" y="756" on="0"/>
        <pt x="273" y="778" on="0"/>
        <pt x="289" y="778" on="1"/>
        <pt x="304" y="778" on="0"/>
        <pt x="335" y="756" on="0"/>
        <pt x="335" y="728" on="0"/>
        <pt x="304" y="706" on="0"/>
        <pt x="289" y="706" on="1"/>
        <pt x="273" y="706" on="0"/>
      </contour>
      <contour>
        <pt x="474" y="251" on="1"/>
        <pt x="341" y="251" on="1"/>
        <pt x="311" y="251" on="0"/>
        <pt x="311" y="271" on="1"/>
        <pt x="311" y="293" on="0"/>
        <pt x="341" y="293" on="1"/>
        <pt x="516" y="293" on="1"/>
        <pt x="516" y="106" on="1"/>
        <pt x="516" y="84" on="0"/>
        <pt x="510" y="52" on="0"/>
        <pt x="493" y="18" on="0"/>
        <pt x="452" y="0" on="0"/>
        <pt x="421" y="0" on="1"/>
        <pt x="280" y="0" on="1"/>
        <pt x="228" y="0" on="0"/>
        <pt x="160" y="12" on="0"/>
        <pt x="100" y="48" on="0"/>
        <pt x="72" y="120" on="0"/>
        <pt x="72" y="175" on="1"/>
        <pt x="72" y="461" on="1"/>
        <pt x="72" y="516" on="0"/>
        <pt x="100" y="588" on="0"/>
        <pt x="160" y="624" on="0"/>
        <pt x="228" y="636" on="0"/>
        <pt x="280" y="636" on="1"/>
        <pt x="421" y="636" on="1"/>
        <pt x="452" y="636" on="0"/>
        <pt x="493" y="618" on="0"/>
        <pt x="510" y="584" on="0"/>
        <pt x="516" y="552" on="0"/>
        <pt x="516" y="530" on="1"/>
        <pt x="516" y="499" on="0"/>
        <pt x="474" y="499" on="0"/>
        <pt x="474" y="528" on="1"/>
        <pt x="474" y="564" on="0"/>
        <pt x="448" y="594" on="0"/>
        <pt x="414" y="594" on="1"/>
        <pt x="280" y="594" on="1"/>
        <pt x="232" y="594" on="0"/>
        <pt x="179" y="587" on="0"/>
        <pt x="133" y="560" on="0"/>
        <pt x="114" y="506" on="0"/>
        <pt x="114" y="461" on="1"/>
        <pt x="114" y="175" on="1"/>
        <pt x="114" y="130" on="0"/>
        <pt x="133" y="76" on="0"/>
        <pt x="179" y="49" on="0"/>
        <pt x="232" y="42" on="0"/>
        <pt x="280" y="42" on="1"/>
        <pt x="414" y="42" on="1"/>
        <pt x="448" y="42" on="0"/>
        <pt x="474" y="72" on="0"/>
        <pt x="474" y="108" on="1"/>
      </contour>
    </TTGlyph>
    <TTGlyph name="Gecyrillic" xMin="82" yMin="-7" xMax="512" yMax="636">
      <component glyphName="Gamma" x="0" y="0" flags="0x1004"/>
    </TTGlyph>
    <TTGlyph name="Gheupturncyrillic" xMin="82" yMin="-7" xMax="512" yMax="748">
      <contour>
        <pt x="512" y="594" on="1"/>
        <pt x="184" y="594" on="1"/>
        <pt x="150" y="594" on="0"/>
        <pt x="124" y="564" on="0"/>
        <pt x="124" y="529" on="1"/>
        <pt x="124" y="23" on="1"/>
        <pt x="124" y="-7" on="0"/>
        <pt x="102" y="-7" on="1"/>
        <pt x="82" y="-7" on="0"/>
        <pt x="82" y="23" on="1"/>
        <pt x="82" y="512" on="1"/>
        <pt x="82" y="582" on="0"/>
        <pt x="122" y="636" on="0"/>
        <pt x="177" y="636" on="1"/>
        <pt x="470" y="636" on="1"/>
        <pt x="470" y="718" on="1"/>
        <pt x="470" y="748" on="0"/>
        <pt x="492" y="748" on="1"/>
        <pt x="512" y="748" on="0"/>
        <pt x="512" y="718" on="1"/>
      </contour>
    </TTGlyph>
    <TTGlyph name="Gjecyrillic" xMin="82" yMin="-7" xMax="512" yMax="819">
      <component glyphName="acutecomb" x="639" y="188" flags="0x1004"/>
      <component glyphName="Gecyrillic" x="0" y="0" flags="0x1204"/>
    </TTGlyph>
    <TTGlyph name="H" xMin="84" yMin="-7" xMax="528" yMax="643">
      <contour>
        <pt x="126" y="23" on="1"/>
        <pt x="126" y="-7" on="0"/>
        <pt x="84" y="-7" on="0"/>
        <pt x="84" y="23" on="1"/>
        <pt x="84" y="612" on="1"/>
        <pt x="84" y="643" on="0"/>
        <pt x="103" y="643" on="1"/>
        <pt x="126" y="643" on="0"/>
        <pt x="126" y="612" on="1"/>
        <pt x="126" y="364" on="1"/>
        <pt x="486" y="364" on="1"/>
        <pt x="486" y="612" on="1"/>
        <pt x="486" y="643" on="0"/>
        <pt x="506" y="643" on="1"/>
        <pt x="528" y="643" on="0"/>
        <pt x="528" y="612" on="1"/>
        <pt x="528" y="23" on="1"/>
        <pt x="528" y="-7" on="0"/>
        <pt x="508" y="-7" on="1"/>
        <pt x="486" y="-7" on="0"/>
        <pt x="486" y="23" on="1"/>
        <pt x="486" y="322" on="1"/>
        <pt x="126" y="322" on="1"/>
      </contour>
    </TTGlyph>
    <TTGlyph name="Hardsigncyrillic" xMin="23" yMin="-7" xMax="557" yMax="636">
      <contour>
        <pt x="155" y="594" on="1"/>
        <pt x="54" y="594" on="1"/>
        <pt x="23" y="594" on="0"/>
        <pt x="23" y="617" on="1"/>
        <pt x="23" y="636" on="0"/>
        <pt x="54" y="636" on="1"/>
        <pt x="197" y="636" on="1"/>
        <pt x="197" y="461" on="1"/>
        <pt x="350" y="461" on="1"/>
        <pt x="440" y="461" on="0"/>
        <pt x="557" y="322" on="0"/>
        <pt x="557" y="227" on="1"/>
        <pt x="557" y="131" on="0"/>
        <pt x="441" y="-7" on="0"/>
        <pt x="350" y="-7" on="1"/>
        <pt x="174" y="-7" on="1"/>
        <pt x="155" y="-7" on="0"/>
        <pt x="155" y="24" on="1"/>
      </contour>
      <contour>
        <pt x="350" y="419" on="1"/>
        <pt x="197" y="419" on="1"/>
        <pt x="197" y="35" on="1"/>
        <pt x="350" y="35" on="1"/>
        <pt x="428" y="35" on="0"/>
        <pt x="515" y="150" on="0"/>
        <pt x="515" y="304" on="0"/>
        <pt x="428" y="419" on="0"/>
      </contour>
    </TTGlyph>
    <TTGlyph name="Hbar" xMin="27" yMin="-7" xMax="587" yMax="643">
      <contour>
        <pt x="53" y="508" on="1"/>
        <pt x="27" y="508" on="0"/>
        <pt x="27" y="530" on="1"/>
        <pt x="27" y="551" on="0"/>
        <pt x="53" y="551" on="1"/>
        <pt x="85" y="551" on="1"/>
        <pt x="85" y="612" on="1"/>
        <pt x="85" y="643" on="0"/>
        <pt x="104" y="643" on="1"/>
        <pt x="127" y="643" on="0"/>
        <pt x="127" y="612" on="1"/>
        <pt x="127" y="551" on="1"/>
        <pt x="487" y="551" on="1"/>
        <pt x="487" y="612" on="1"/>
        <pt x="487" y="643" on="0"/>
        <pt x="507" y="643" on="1"/>
        <pt x="529" y="643" on="0"/>
        <pt x="529" y="612" on="1"/>
        <pt x="529" y="551" on="1"/>
        <pt x="558" y="551" on="1"/>
        <pt x="587" y="551" on="0"/>
        <pt x="587" y="528" on="1"/>
        <pt x="587" y="508" on="0"/>
        <pt x="558" y="508" on="1"/>
        <pt x="529" y="508" on="1"/>
        <pt x="529" y="23" on="1"/>
        <pt x="529" y="-7" on="0"/>
        <pt x="509" y="-7" on="1"/>
        <pt x="487" y="-7" on="0"/>
        <pt x="487" y="23" on="1"/>
        <pt x="487" y="322" on="1"/>
        <pt x="127" y="322" on="1"/>
        <pt x="127" y="23" on="1"/>
        <pt x="127" y="-7" on="0"/>
        <pt x="85" y="-7" on="0"/>
        <pt x="85" y="23" on="1"/>
        <pt x="85" y="508" on="1"/>
      </contour>
      <contour>
        <pt x="487" y="508" on="1"/>
        <pt x="127" y="508" on="1"/>
        <pt x="127" y="364" on="1"/>
        <pt x="487" y="364" on="1"/>
      </contour>
    </TTGlyph>
    <TTGlyph name="Hcircumflex" xMin="84" yMin="-7" xMax="528" yMax="819">
      <contour>
        <pt x="305" y="773" on="1"/>
        <pt x="302" y="773" on="1"/>
        <pt x="210" y="669" on="1"/>
        <pt x="194" y="651" on="0"/>
        <pt x="186" y="651" on="1"/>
        <pt x="168" y="651" on="0"/>
        <pt x="168" y="669" on="1"/>
        <pt x="168" y="678" on="0"/>
        <pt x="172" y="682" on="1"/>
        <pt x="276" y="819" on="1"/>
        <pt x="331" y="819" on="1"/>
        <pt x="437" y="682" on="1"/>
        <pt x="441" y="677" on="0"/>
        <pt x="441" y="669" on="1"/>
        <pt x="441" y="651" on="0"/>
        <pt x="423" y="651" on="1"/>
        <pt x="419" y="651" on="0"/>
        <pt x="412" y="654" on="0"/>
        <pt x="409" y="657" on="0"/>
        <pt x="401" y="667" on="0"/>
        <pt x="399" y="669" on="1"/>
      </contour>
      <contour>
        <pt x="126" y="23" on="1"/>
        <pt x="126" y="-7" on="0"/>
        <pt x="84" y="-7" on="0"/>
        <pt x="84" y="23" on="1"/>
        <pt x="84" y="612" on="1"/>
        <pt x="84" y="643" on="0"/>
        <pt x="103" y="643" on="1"/>
        <pt x="126" y="643" on="0"/>
        <pt x="126" y="612" on="1"/>
        <pt x="126" y="364" on="1"/>
        <pt x="486" y="364" on="1"/>
        <pt x="486" y="612" on="1"/>
        <pt x="486" y="643" on="0"/>
        <pt x="506" y="643" on="1"/>
        <pt x="528" y="643" on="0"/>
        <pt x="528" y="612" on="1"/>
        <pt x="528" y="23" on="1"/>
        <pt x="528" y="-7" on="0"/>
        <pt x="508" y="-7" on="1"/>
        <pt x="486" y="-7" on="0"/>
        <pt x="486" y="23" on="1"/>
        <pt x="486" y="322" on="1"/>
        <pt x="126" y="322" on="1"/>
      </contour>
    </TTGlyph>
    <TTGlyph name="I" xMin="84" yMin="-7" xMax="126" yMax="643">
      <contour>
        <pt x="126" y="20" on="1"/>
        <pt x="126" y="-7" on="0"/>
        <pt x="104" y="-7" on="1"/>
        <pt x="84" y="-7" on="0"/>
        <pt x="84" y="20" on="1"/>
        <pt x="84" y="615" on="1"/>
        <pt x="84" y="643" on="0"/>
        <pt x="126" y="643" on="0"/>
        <pt x="126" y="615" on="1"/>
      </contour>
    </TTGlyph>
    <TTGlyph name="I.sc" xMin="86" yMin="-7" xMax="128" yMax="559">
      <contour>
        <pt x="128" y="20" on="1"/>
        <pt x="128" y="-7" on="0"/>
        <pt x="106" y="-7" on="1"/>
        <pt x="86" y="-7" on="0"/>
        <pt x="86" y="20" on="1"/>
        <pt x="86" y="531" on="1"/>
        <pt x="86" y="559" on="0"/>
        <pt x="128" y="559" on="0"/>
        <pt x="128" y="531" on="1"/>
      </contour>
    </TTGlyph>
    <TTGlyph name="IAcyrillic" xMin="6" yMin="-7" xMax="480" yMax="636">
      <contour>
        <pt x="292" y="341" on="1"/>
        <pt x="438" y="341" on="1"/>
        <pt x="438" y="594" on="1"/>
        <pt x="292" y="594" on="1"/>
        <pt x="207" y="594" on="0"/>
        <pt x="127" y="535" on="0"/>
        <pt x="127" y="399" on="0"/>
        <pt x="207" y="341" on="0"/>
      </contour>
      <contour>
        <pt x="204" y="308" on="1"/>
        <pt x="85" y="339" on="0"/>
        <pt x="85" y="467" on="1"/>
        <pt x="85" y="636" on="0"/>
        <pt x="292" y="636" on="1"/>
        <pt x="461" y="636" on="1"/>
        <pt x="480" y="636" on="0"/>
        <pt x="480" y="605" on="1"/>
        <pt x="480" y="20" on="1"/>
        <pt x="480" y="-7" on="0"/>
        <pt x="460" y="-7" on="1"/>
        <pt x="438" y="-7" on="0"/>
        <pt x="438" y="20" on="1"/>
        <pt x="438" y="299" on="1"/>
        <pt x="308" y="299" on="1"/>
        <pt x="210" y="299" on="0"/>
        <pt x="186" y="214" on="1"/>
        <pt x="158" y="110" on="1"/>
        <pt x="144" y="57" on="0"/>
        <pt x="78" y="-7" on="0"/>
        <pt x="37" y="-7" on="1"/>
        <pt x="6" y="-7" on="0"/>
        <pt x="6" y="35" on="0"/>
        <pt x="37" y="35" on="1"/>
        <pt x="64" y="35" on="0"/>
        <pt x="106" y="81" on="0"/>
        <pt x="113" y="104" on="1"/>
        <pt x="144" y="218" on="1"/>
        <pt x="158" y="274" on="0"/>
      </contour>
    </TTGlyph>
    <TTGlyph name="IUcyrillic" xMin="84" yMin="-9" xMax="635" yMax="645">
      <contour>
        <pt x="497" y="603" on="0"/>
        <pt x="329" y="603" on="0"/>
        <pt x="233" y="500" on="0"/>
        <pt x="233" y="409" on="1"/>
        <pt x="233" y="227" on="1"/>
        <pt x="233" y="136" on="0"/>
        <pt x="329" y="33" on="0"/>
        <pt x="497" y="33" on="0"/>
        <pt x="593" y="136" on="0"/>
        <pt x="593" y="227" on="1"/>
        <pt x="593" y="409" on="1"/>
        <pt x="593" y="500" on="0"/>
      </contour>
      <contour>
        <pt x="510" y="-9" on="0"/>
        <pt x="316" y="-9" on="0"/>
        <pt x="191" y="117" on="0"/>
        <pt x="191" y="227" on="1"/>
        <pt x="191" y="302" on="1"/>
        <pt x="126" y="302" on="1"/>
        <pt x="126" y="20" on="1"/>
        <pt x="126" y="-7" on="0"/>
        <pt x="104" y="-7" on="1"/>
        <pt x="84" y="-7" on="0"/>
        <pt x="84" y="20" on="1"/>
        <pt x="84" y="615" on="1"/>
        <pt x="84" y="643" on="0"/>
        <pt x="126" y="643" on="0"/>
        <pt x="126" y="615" on="1"/>
        <pt x="126" y="344" on="1"/>
        <pt x="191" y="344" on="1"/>
        <pt x="191" y="409" on="1"/>
        <pt x="191" y="519" on="0"/>
        <pt x="316" y="645" on="0"/>
        <pt x="510" y="645" on="0"/>
        <pt x="635" y="519" on="0"/>
        <pt x="635" y="409" on="1"/>
        <pt x="635" y="227" on="1"/>
        <pt x="635" y="117" on="0"/>
      </contour>
    </TTGlyph>
    <TTGlyph name="Iacute" xMin="84" yMin="-7" xMax="207" yMax="819">
      <component glyphName="acutecomb" x="455" y="188" flags="0x1004"/>
      <component glyphName="I" x="0" y="0" flags="0x1204"/>
    </TTGlyph>
    <TTGlyph name="Icircumflex" xMin="-30" yMin="-7" xMax="243" yMax="819">
      <component glyphName="uni0302" x="408" y="141" flags="0x1004"/>
      <component glyphName="I" x="0" y="0" flags="0x1204"/>
    </TTGlyph>
    <TTGlyph name="Icyrillic" xMin="84" yMin="-7" xMax="126" yMax="643">
      <component glyphName="I" x="0" y="0" flags="0x1004"/>
    </TTGlyph>
    <TTGlyph name="Idieresis" xMin="-14" yMin="-7" xMax="224" yMax="778">
      <component glyphName="dieresis" x="-79" y="112" flags="0x1004"/>
      <component glyphName="I" x="0" y="0" flags="0x1204"/>
    </TTGlyph>
    <TTGlyph name="Idotaccent" xMin="59" yMin="-7" xMax="151" yMax="778">
      <contour>
        <pt x="59" y="728" on="0"/>
        <pt x="59" y="756" on="0"/>
        <pt x="89" y="778" on="0"/>
        <pt x="105" y="778" on="1"/>
        <pt x="120" y="778" on="0"/>
        <pt x="151" y="756" on="0"/>
        <pt x="151" y="728" on="0"/>
        <pt x="120" y="706" on="0"/>
        <pt x="105" y="706" on="1"/>
        <pt x="89" y="706" on="0"/>
      </contour>
      <contour>
        <pt x="126" y="20" on="1"/>
        <pt x="126" y="-7" on="0"/>
        <pt x="104" y="-7" on="1"/>
        <pt x="84" y="-7" on="0"/>
        <pt x="84" y="20" on="1"/>
        <pt x="84" y="615" on="1"/>
        <pt x="84" y="643" on="0"/>
        <pt x="126" y="643" on="0"/>
        <pt x="126" y="615" on="1"/>
      </contour>
    </TTGlyph>
    <TTGlyph name="Ie.ukran" xMin="72" yMin="0" xMax="516" yMax="636">
      <contour>
        <pt x="421" y="636" on="1"/>
        <pt x="452" y="636" on="0"/>
        <pt x="493" y="618" on="0"/>
        <pt x="510" y="584" on="0"/>
        <pt x="516" y="552" on="0"/>
        <pt x="516" y="530" on="1"/>
        <pt x="516" y="499" on="0"/>
        <pt x="474" y="499" on="0"/>
        <pt x="474" y="527" on="1"/>
        <pt x="474" y="564" on="0"/>
        <pt x="448" y="594" on="0"/>
        <pt x="414" y="594" on="1"/>
        <pt x="280" y="594" on="1"/>
        <pt x="232" y="594" on="0"/>
        <pt x="179" y="587" on="0"/>
        <pt x="133" y="560" on="0"/>
        <pt x="114" y="506" on="0"/>
        <pt x="114" y="461" on="1"/>
        <pt x="114" y="354" on="1"/>
        <pt x="368" y="354" on="1"/>
        <pt x="398" y="354" on="0"/>
        <pt x="398" y="335" on="1"/>
        <pt x="398" y="312" on="0"/>
        <pt x="368" y="312" on="1"/>
        <pt x="114" y="312" on="1"/>
        <pt x="114" y="175" on="1"/>
        <pt x="114" y="130" on="0"/>
        <pt x="133" y="76" on="0"/>
        <pt x="179" y="49" on="0"/>
        <pt x="232" y="42" on="0"/>
        <pt x="280" y="42" on="1"/>
        <pt x="414" y="42" on="1"/>
        <pt x="448" y="42" on="0"/>
        <pt x="474" y="73" on="0"/>
        <pt x="474" y="109" on="1"/>
        <pt x="474" y="137" on="0"/>
        <pt x="516" y="137" on="0"/>
        <pt x="516" y="107" on="1"/>
        <pt x="516" y="84" on="0"/>
        <pt x="510" y="52" on="0"/>
        <pt x="493" y="18" on="0"/>
        <pt x="452" y="0" on="0"/>
        <pt x="421" y="0" on="1"/>
        <pt x="280" y="0" on="1"/>
        <pt x="174" y="0" on="0"/>
        <pt x="72" y="70" on="0"/>
        <pt x="72" y="175" on="1"/>
        <pt x="72" y="461" on="1"/>
        <pt x="72" y="566" on="0"/>
        <pt x="174" y="636" on="0"/>
        <pt x="280" y="636" on="1"/>
      </contour>
    </TTGlyph>
    <TTGlyph name="Iecyrillic" xMin="84" yMin="0" xMax="528" yMax="636">
      <component glyphName="E" x="0" y="0" flags="0x1004"/>
    </TTGlyph>
    <TTGlyph name="Igrave" xMin="4" yMin="-7" xMax="126" yMax="819">
      <component glyphName="gravecomb" x="374" y="188" flags="0x1004"/>
      <component glyphName="I" x="0" y="0" flags="0x1204"/>
    </TTGlyph>
    <TTGlyph name="Iicyrillic" xMin="84" yMin="-7" xMax="528" yMax="643">
      <contour>
        <pt x="104" y="-7" on="1"/>
        <pt x="84" y="-7" on="0"/>
        <pt x="84" y="23" on="1"/>
        <pt x="84" y="612" on="1"/>
        <pt x="84" y="643" on="0"/>
        <pt x="106" y="643" on="1"/>
        <pt x="126" y="643" on="0"/>
        <pt x="126" y="612" on="1"/>
        <pt x="126" y="84" on="1"/>
        <pt x="483" y="626" on="1"/>
        <pt x="494" y="643" on="0"/>
        <pt x="509" y="643" on="1"/>
        <pt x="528" y="643" on="0"/>
        <pt x="528" y="612" on="1"/>
        <pt x="528" y="23" on="1"/>
        <pt x="528" y="-7" on="0"/>
        <pt x="486" y="-7" on="0"/>
        <pt x="486" y="23" on="1"/>
        <pt x="486" y="557" on="1"/>
        <pt x="120" y="0" on="1"/>
        <pt x="116" y="-7" on="0"/>
      </contour>
    </TTGlyph>
    <TTGlyph name="Iicyrillic_grave" xMin="84" yMin="-7" xMax="528" yMax="804">
      <component glyphName="grave" x="171" y="126" flags="0x1004"/>
      <component glyphName="Iicyrillic" x="0" y="0" flags="0x1204"/>
    </TTGlyph>
    <TTGlyph name="Iishortcyrillic" xMin="84" yMin="-7" xMax="528" yMax="770">
      <contour>
        <pt x="449" y="770" on="1"/>
        <pt x="449" y="748" on="1"/>
        <pt x="449" y="684" on="0"/>
        <pt x="413" y="636" on="0"/>
        <pt x="363" y="636" on="1"/>
        <pt x="246" y="636" on="1"/>
        <pt x="197" y="636" on="0"/>
        <pt x="160" y="685" on="0"/>
        <pt x="160" y="748" on="1"/>
        <pt x="160" y="770" on="1"/>
        <pt x="202" y="770" on="1"/>
        <pt x="202" y="732" on="1"/>
        <pt x="202" y="701" on="0"/>
        <pt x="223" y="678" on="0"/>
        <pt x="254" y="678" on="1"/>
        <pt x="356" y="678" on="1"/>
        <pt x="387" y="678" on="0"/>
        <pt x="407" y="701" on="0"/>
        <pt x="407" y="732" on="1"/>
        <pt x="407" y="770" on="1"/>
      </contour>
      <contour>
        <pt x="104" y="-7" on="1"/>
        <pt x="84" y="-7" on="0"/>
        <pt x="84" y="23" on="1"/>
        <pt x="84" y="612" on="1"/>
        <pt x="84" y="643" on="0"/>
        <pt x="106" y="643" on="1"/>
        <pt x="126" y="643" on="0"/>
        <pt x="126" y="612" on="1"/>
        <pt x="126" y="84" on="1"/>
        <pt x="483" y="626" on="1"/>
        <pt x="494" y="643" on="0"/>
        <pt x="509" y="643" on="1"/>
        <pt x="528" y="643" on="0"/>
        <pt x="528" y="612" on="1"/>
        <pt x="528" y="23" on="1"/>
        <pt x="528" y="-7" on="0"/>
        <pt x="486" y="-7" on="0"/>
        <pt x="486" y="23" on="1"/>
        <pt x="486" y="557" on="1"/>
        <pt x="120" y="0" on="1"/>
        <pt x="116" y="-7" on="0"/>
      </contour>
    </TTGlyph>
    <TTGlyph name="Imacron" xMin="-45" yMin="-7" xMax="255" yMax="749">
      <contour>
        <pt x="-19" y="706" on="1"/>
        <pt x="-45" y="706" on="0"/>
        <pt x="-45" y="728" on="1"/>
        <pt x="-45" y="749" on="0"/>
        <pt x="-19" y="749" on="1"/>
        <pt x="226" y="749" on="1"/>
        <pt x="255" y="749" on="0"/>
        <pt x="255" y="726" on="1"/>
        <pt x="255" y="706" on="0"/>
        <pt x="226" y="706" on="1"/>
      </contour>
      <contour>
        <pt x="126" y="20" on="1"/>
        <pt x="126" y="-7" on="0"/>
        <pt x="104" y="-7" on="1"/>
        <pt x="84" y="-7" on="0"/>
        <pt x="84" y="20" on="1"/>
        <pt x="84" y="615" on="1"/>
        <pt x="84" y="643" on="0"/>
        <pt x="126" y="643" on="0"/>
        <pt x="126" y="615" on="1"/>
      </contour>
    </TTGlyph>
    <TTGlyph name="Iocyrillic" xMin="84" yMin="0" xMax="528" yMax="778">
      <component glyphName="Edieresis" x="0" y="0" flags="0x1004"/>
    </TTGlyph>
    <TTGlyph name="Iogonek" xMin="19" yMin="-196" xMax="184" yMax="643">
      <contour>
        <pt x="184" y="-151" on="1"/>
        <pt x="184" y="-175" on="0"/>
        <pt x="133" y="-196" on="0"/>
        <pt x="110" y="-196" on="1"/>
        <pt x="70" y="-196" on="0"/>
        <pt x="19" y="-141" on="0"/>
        <pt x="19" y="-97" on="1"/>
        <pt x="19" y="-75" on="0"/>
        <pt x="62" y="0" on="0"/>
        <pt x="85" y="26" on="1"/>
        <pt x="85" y="615" on="1"/>
        <pt x="85" y="643" on="0"/>
        <pt x="127" y="643" on="0"/>
        <pt x="127" y="615" on="1"/>
        <pt x="127" y="20" on="1"/>
        <pt x="127" y="-4" on="0"/>
        <pt x="110" y="-7" on="1"/>
        <pt x="92" y="-25" on="0"/>
        <pt x="61" y="-82" on="0"/>
        <pt x="61" y="-97" on="1"/>
        <pt x="61" y="-156" on="0"/>
        <pt x="108" y="-156" on="1"/>
        <pt x="125" y="-156" on="0"/>
        <pt x="171" y="-138" on="0"/>
        <pt x="174" y="-138" on="1"/>
        <pt x="184" y="-138" on="0"/>
      </contour>
    </TTGlyph>
    <TTGlyph name="Iota" xMin="84" yMin="-7" xMax="126" yMax="643">
      <component glyphName="I" x="0" y="0" flags="0x1004"/>
    </TTGlyph>
    <TTGlyph name="Iotadieresis" xMin="-14" yMin="-7" xMax="224" yMax="778">
      <component glyphName="Idieresis" x="0" y="0" flags="0x1004"/>
    </TTGlyph>
    <TTGlyph name="Iotatonos" xMin="22" yMin="-7" xMax="156" yMax="750">
      <component glyphName="tonos" x="-53" y="102" flags="0x1004"/>
      <component glyphName="Iota" x="30" y="0" flags="0x1004"/>
    </TTGlyph>
    <TTGlyph name="Itilde" xMin="-31" yMin="-7" xMax="241" yMax="794">
      <contour>
        <pt x="152" y="755" on="1"/>
        <pt x="156" y="753" on="0"/>
        <pt x="159" y="753" on="1"/>
        <pt x="163" y="753" on="0"/>
        <pt x="170" y="758" on="1"/>
        <pt x="201" y="786" on="1"/>
        <pt x="212" y="794" on="0"/>
        <pt x="228" y="794" on="0"/>
        <pt x="241" y="784" on="0"/>
        <pt x="241" y="776" on="1"/>
        <pt x="241" y="764" on="0"/>
        <pt x="229" y="753" on="1"/>
        <pt x="182" y="714" on="1"/>
        <pt x="175" y="707" on="0"/>
        <pt x="166" y="707" on="1"/>
        <pt x="162" y="707" on="0"/>
        <pt x="156" y="709" on="1"/>
        <pt x="58" y="745" on="1"/>
        <pt x="54" y="747" on="0"/>
        <pt x="46" y="747" on="0"/>
        <pt x="39" y="742" on="1"/>
        <pt x="8" y="714" on="1"/>
        <pt x="-3" y="706" on="0"/>
        <pt x="-11" y="706" on="1"/>
        <pt x="-18" y="706" on="0"/>
        <pt x="-31" y="717" on="0"/>
        <pt x="-31" y="725" on="1"/>
        <pt x="-31" y="738" on="0"/>
        <pt x="-19" y="747" on="1"/>
        <pt x="28" y="786" on="1"/>
        <pt x="33" y="793" on="0"/>
        <pt x="43" y="793" on="1"/>
        <pt x="46" y="793" on="0"/>
        <pt x="54" y="791" on="1"/>
      </contour>
      <contour>
        <pt x="126" y="20" on="1"/>
        <pt x="126" y="-7" on="0"/>
        <pt x="104" y="-7" on="1"/>
        <pt x="84" y="-7" on="0"/>
        <pt x="84" y="20" on="1"/>
        <pt x="84" y="615" on="1"/>
        <pt x="84" y="643" on="0"/>
        <pt x="126" y="643" on="0"/>
        <pt x="126" y="615" on="1"/>
      </contour>
    </TTGlyph>
    <TTGlyph name="J" xMin="32" yMin="-8" xMax="449" yMax="643">
      <contour>
        <pt x="241" y="34" on="1"/>
        <pt x="289" y="34" on="0"/>
        <pt x="342" y="41" on="0"/>
        <pt x="388" y="68" on="0"/>
        <pt x="407" y="122" on="0"/>
        <pt x="407" y="167" on="1"/>
        <pt x="407" y="615" on="1"/>
        <pt x="407" y="643" on="0"/>
        <pt x="449" y="643" on="0"/>
        <pt x="449" y="615" on="1"/>
        <pt x="449" y="167" on="1"/>
        <pt x="449" y="112" on="0"/>
        <pt x="421" y="40" on="0"/>
        <pt x="361" y="4" on="0"/>
        <pt x="293" y="-8" on="0"/>
        <pt x="189" y="-8" on="0"/>
        <pt x="120" y="4" on="0"/>
        <pt x="60" y="40" on="0"/>
        <pt x="32" y="112" on="0"/>
        <pt x="32" y="167" on="1"/>
        <pt x="32" y="195" on="0"/>
        <pt x="55" y="195" on="1"/>
        <pt x="75" y="195" on="0"/>
        <pt x="75" y="167" on="1"/>
        <pt x="75" y="81" on="0"/>
        <pt x="147" y="34" on="0"/>
      </contour>
    </TTGlyph>
    <TTGlyph name="Jcircumflex" xMin="32" yMin="-8" xMax="565" yMax="820">
      <contour>
        <pt x="429" y="774" on="1"/>
        <pt x="426" y="774" on="1"/>
        <pt x="334" y="670" on="1"/>
        <pt x="318" y="652" on="0"/>
        <pt x="310" y="652" on="1"/>
        <pt x="292" y="652" on="0"/>
        <pt x="292" y="670" on="1"/>
        <pt x="292" y="679" on="0"/>
        <pt x="296" y="683" on="1"/>
        <pt x="400" y="820" on="1"/>
        <pt x="455" y="820" on="1"/>
        <pt x="561" y="683" on="1"/>
        <pt x="565" y="678" on="0"/>
        <pt x="565" y="670" on="1"/>
        <pt x="565" y="652" on="0"/>
        <pt x="547" y="652" on="1"/>
        <pt x="543" y="652" on="0"/>
        <pt x="536" y="655" on="0"/>
        <pt x="533" y="658" on="0"/>
        <pt x="525" y="668" on="0"/>
        <pt x="523" y="670" on="1"/>
      </contour>
      <contour>
        <pt x="241" y="34" on="1"/>
        <pt x="289" y="34" on="0"/>
        <pt x="342" y="41" on="0"/>
        <pt x="388" y="68" on="0"/>
        <pt x="407" y="122" on="0"/>
        <pt x="407" y="167" on="1"/>
        <pt x="407" y="615" on="1"/>
        <pt x="407" y="643" on="0"/>
        <pt x="449" y="643" on="0"/>
        <pt x="449" y="615" on="1"/>
        <pt x="449" y="167" on="1"/>
        <pt x="449" y="112" on="0"/>
        <pt x="421" y="40" on="0"/>
        <pt x="361" y="4" on="0"/>
        <pt x="293" y="-8" on="0"/>
        <pt x="189" y="-8" on="0"/>
        <pt x="120" y="4" on="0"/>
        <pt x="60" y="40" on="0"/>
        <pt x="32" y="112" on="0"/>
        <pt x="32" y="167" on="1"/>
        <pt x="32" y="195" on="0"/>
        <pt x="55" y="195" on="1"/>
        <pt x="75" y="195" on="0"/>
        <pt x="75" y="167" on="1"/>
        <pt x="75" y="81" on="0"/>
        <pt x="147" y="34" on="0"/>
      </contour>
    </TTGlyph>
    <TTGlyph name="Jecyrillic" xMin="32" yMin="-8" xMax="449" yMax="643">
      <component glyphName="J" x="0" y="0" flags="0x1004"/>
    </TTGlyph>
    <TTGlyph name="K" xMin="84" yMin="-7" xMax="494" yMax="643">
      <contour>
        <pt x="494" y="13" on="1"/>
        <pt x="494" y="5" on="0"/>
        <pt x="480" y="-7" on="0"/>
        <pt x="473" y="-7" on="1"/>
        <pt x="462" y="-7" on="0"/>
        <pt x="452" y="6" on="1"/>
        <pt x="184" y="325" on="1"/>
        <pt x="126" y="255" on="1"/>
        <pt x="126" y="20" on="1"/>
        <pt x="126" y="-7" on="0"/>
        <pt x="104" y="-7" on="1"/>
        <pt x="84" y="-7" on="0"/>
        <pt x="84" y="20" on="1"/>
        <pt x="84" y="615" on="1"/>
        <pt x="84" y="643" on="0"/>
        <pt x="126" y="643" on="0"/>
        <pt x="126" y="615" on="1"/>
        <pt x="126" y="321" on="1"/>
        <pt x="386" y="630" on="1"/>
        <pt x="396" y="643" on="0"/>
        <pt x="407" y="643" on="1"/>
        <pt x="414" y="643" on="0"/>
        <pt x="427" y="632" on="0"/>
        <pt x="427" y="624" on="1"/>
        <pt x="427" y="614" on="0"/>
        <pt x="418" y="603" on="1"/>
        <pt x="212" y="357" on="1"/>
        <pt x="484" y="33" on="1"/>
        <pt x="494" y="23" on="0"/>
      </contour>
    </TTGlyph>
    <TTGlyph name="Kacyrillic" xMin="84" yMin="-7" xMax="514" yMax="599">
      <contour>
        <pt x="126" y="275" on="1"/>
        <pt x="126" y="20" on="1"/>
        <pt x="126" y="-7" on="0"/>
        <pt x="104" y="-7" on="1"/>
        <pt x="84" y="-7" on="0"/>
        <pt x="84" y="20" on="1"/>
        <pt x="84" y="570" on="1"/>
        <pt x="84" y="598" on="0"/>
        <pt x="126" y="598" on="0"/>
        <pt x="126" y="570" on="1"/>
        <pt x="126" y="317" on="1"/>
        <pt x="223" y="317" on="1"/>
        <pt x="248" y="317" on="0"/>
        <pt x="312" y="405" on="0"/>
        <pt x="366" y="511" on="0"/>
        <pt x="445" y="599" on="0"/>
        <pt x="483" y="599" on="1"/>
        <pt x="514" y="599" on="0"/>
        <pt x="514" y="557" on="0"/>
        <pt x="483" y="557" on="1"/>
        <pt x="456" y="557" on="0"/>
        <pt x="400" y="492" on="0"/>
        <pt x="359" y="410" on="0"/>
        <pt x="300" y="316" on="0"/>
        <pt x="274" y="295" on="1"/>
        <pt x="300" y="274" on="0"/>
        <pt x="360" y="181" on="0"/>
        <pt x="403" y="99" on="0"/>
        <pt x="458" y="35" on="0"/>
        <pt x="483" y="35" on="1"/>
        <pt x="514" y="35" on="0"/>
        <pt x="514" y="-7" on="0"/>
        <pt x="452" y="-7" on="0"/>
        <pt x="390" y="51" on="0"/>
        <pt x="340" y="134" on="0"/>
        <pt x="293" y="217" on="0"/>
        <pt x="243" y="275" on="0"/>
        <pt x="220" y="275" on="1"/>
      </contour>
    </TTGlyph>
    <TTGlyph name="Kappa" xMin="84" yMin="-7" xMax="494" yMax="643">
      <component glyphName="K" x="0" y="0" flags="0x1004"/>
    </TTGlyph>
    <TTGlyph name="Kcommaaccent" xMin="84" yMin="-141" xMax="494" yMax="643">
      <contour>
        <pt x="294" y="0" on="1"/>
        <pt x="304" y="0" on="0"/>
        <pt x="330" y="-10" on="0"/>
        <pt x="330" y="-20" on="1"/>
        <pt x="330" y="-29" on="0"/>
        <pt x="326" y="-37" on="1"/>
        <pt x="284" y="-120" on="1"/>
        <pt x="275" y="-141" on="0"/>
        <pt x="264" y="-141" on="1"/>
        <pt x="247" y="-141" on="0"/>
        <pt x="247" y="-121" on="1"/>
        <pt x="247" y="-115" on="0"/>
        <pt x="250" y="-106" on="1"/>
        <pt x="274" y="-20" on="1"/>
        <pt x="280" y="0" on="0"/>
      </contour>
      <contour>
        <pt x="494" y="13" on="1"/>
        <pt x="494" y="5" on="0"/>
        <pt x="480" y="-7" on="0"/>
        <pt x="473" y="-7" on="1"/>
        <pt x="462" y="-7" on="0"/>
        <pt x="452" y="6" on="1"/>
        <pt x="184" y="325" on="1"/>
        <pt x="126" y="255" on="1"/>
        <pt x="126" y="20" on="1"/>
        <pt x="126" y="-7" on="0"/>
        <pt x="104" y="-7" on="1"/>
        <pt x="84" y="-7" on="0"/>
        <pt x="84" y="20" on="1"/>
        <pt x="84" y="615" on="1"/>
        <pt x="84" y="643" on="0"/>
        <pt x="126" y="643" on="0"/>
        <pt x="126" y="615" on="1"/>
        <pt x="126" y="321" on="1"/>
        <pt x="386" y="630" on="1"/>
        <pt x="396" y="643" on="0"/>
        <pt x="407" y="643" on="1"/>
        <pt x="414" y="643" on="0"/>
        <pt x="427" y="632" on="0"/>
        <pt x="427" y="624" on="1"/>
        <pt x="427" y="614" on="0"/>
        <pt x="418" y="603" on="1"/>
        <pt x="212" y="357" on="1"/>
        <pt x="484" y="33" on="1"/>
        <pt x="494" y="23" on="0"/>
      </contour>
    </TTGlyph>
    <TTGlyph name="Khacyrillic" xMin="35" yMin="-7" xMax="502" yMax="643">
      <component glyphName="X" x="0" y="0" flags="0x1004"/>
    </TTGlyph>
    <TTGlyph name="Kjecyrillic" xMin="84" yMin="-7" xMax="514" yMax="762">
      <component glyphName="acute" x="194" y="84" flags="0x1004"/>
      <component glyphName="Kacyrillic" x="0" y="0" flags="0x1204"/>
    </TTGlyph>
    <TTGlyph name="L" xMin="84" yMin="0" xMax="472" yMax="643">
      <contour>
        <pt x="103" y="0" on="1"/>
        <pt x="84" y="0" on="0"/>
        <pt x="84" y="31" on="1"/>
        <pt x="84" y="615" on="1"/>
        <pt x="84" y="643" on="0"/>
        <pt x="126" y="643" on="0"/>
        <pt x="126" y="615" on="1"/>
        <pt x="126" y="42" on="1"/>
        <pt x="444" y="42" on="1"/>
        <pt x="472" y="42" on="0"/>
        <pt x="472" y="20" on="1"/>
        <pt x="472" y="0" on="0"/>
        <pt x="444" y="0" on="1"/>
      </contour>
    </TTGlyph>
    <TTGlyph name="Lacute" xMin="84" yMin="0" xMax="472" yMax="819">
      <contour>
        <pt x="206" y="799" on="1"/>
        <pt x="206" y="791" on="0"/>
        <pt x="195" y="778" on="1"/>
        <pt x="125" y="709" on="1"/>
        <pt x="115" y="698" on="0"/>
        <pt x="105" y="698" on="1"/>
        <pt x="97" y="698" on="0"/>
        <pt x="84" y="711" on="0"/>
        <pt x="84" y="717" on="1"/>
        <pt x="84" y="727" on="0"/>
        <pt x="96" y="739" on="1"/>
        <pt x="165" y="808" on="1"/>
        <pt x="175" y="819" on="0"/>
        <pt x="186" y="819" on="1"/>
        <pt x="194" y="819" on="0"/>
        <pt x="206" y="805" on="0"/>
      </contour>
      <contour>
        <pt x="103" y="0" on="1"/>
        <pt x="84" y="0" on="0"/>
        <pt x="84" y="31" on="1"/>
        <pt x="84" y="615" on="1"/>
        <pt x="84" y="643" on="0"/>
        <pt x="126" y="643" on="0"/>
        <pt x="126" y="615" on="1"/>
        <pt x="126" y="42" on="1"/>
        <pt x="444" y="42" on="1"/>
        <pt x="472" y="42" on="0"/>
        <pt x="472" y="20" on="1"/>
        <pt x="472" y="0" on="0"/>
        <pt x="444" y="0" on="1"/>
      </contour>
    </TTGlyph>
    <TTGlyph name="Lambda" xMin="23" yMin="-16" xMax="525" yMax="636">
      <contour>
        <pt x="66" y="4" on="1"/>
        <pt x="57" y="-16" on="0"/>
        <pt x="44" y="-16" on="1"/>
        <pt x="23" y="-16" on="0"/>
        <pt x="23" y="4" on="1"/>
        <pt x="23" y="10" on="0"/>
        <pt x="26" y="18" on="1"/>
        <pt x="251" y="636" on="1"/>
        <pt x="297" y="636" on="1"/>
        <pt x="522" y="18" on="1"/>
        <pt x="525" y="10" on="0"/>
        <pt x="525" y="4" on="1"/>
        <pt x="525" y="-16" on="0"/>
        <pt x="504" y="-16" on="1"/>
        <pt x="490" y="-16" on="0"/>
        <pt x="482" y="4" on="1"/>
        <pt x="273" y="575" on="1"/>
      </contour>
    </TTGlyph>
    <TTGlyph name="Lcaron" xMin="84" yMin="0" xMax="472" yMax="645">
      <contour>
        <pt x="236" y="645" on="1"/>
        <pt x="246" y="645" on="0"/>
        <pt x="272" y="635" on="0"/>
        <pt x="272" y="625" on="1"/>
        <pt x="272" y="616" on="0"/>
        <pt x="268" y="608" on="1"/>
        <pt x="226" y="525" on="1"/>
        <pt x="217" y="504" on="0"/>
        <pt x="206" y="504" on="1"/>
        <pt x="189" y="504" on="0"/>
        <pt x="189" y="524" on="1"/>
        <pt x="189" y="530" on="0"/>
        <pt x="192" y="539" on="1"/>
        <pt x="216" y="625" on="1"/>
        <pt x="222" y="645" on="0"/>
      </contour>
      <contour>
        <pt x="103" y="0" on="1"/>
        <pt x="84" y="0" on="0"/>
        <pt x="84" y="31" on="1"/>
        <pt x="84" y="615" on="1"/>
        <pt x="84" y="643" on="0"/>
        <pt x="126" y="643" on="0"/>
        <pt x="126" y="615" on="1"/>
        <pt x="126" y="42" on="1"/>
        <pt x="444" y="42" on="1"/>
        <pt x="472" y="42" on="0"/>
        <pt x="472" y="20" on="1"/>
        <pt x="472" y="0" on="0"/>
        <pt x="444" y="0" on="1"/>
      </contour>
    </TTGlyph>
    <TTGlyph name="Lcommaaccent" xMin="84" yMin="-202" xMax="472" yMax="643">
      <contour>
        <pt x="279" y="-61" on="1"/>
        <pt x="289" y="-61" on="0"/>
        <pt x="315" y="-71" on="0"/>
        <pt x="315" y="-81" on="1"/>
        <pt x="315" y="-90" on="0"/>
        <pt x="311" y="-98" on="1"/>
        <pt x="269" y="-181" on="1"/>
        <pt x="260" y="-202" on="0"/>
        <pt x="249" y="-202" on="1"/>
        <pt x="232" y="-202" on="0"/>
        <pt x="232" y="-182" on="1"/>
        <pt x="232" y="-176" on="0"/>
        <pt x="235" y="-167" on="1"/>
        <pt x="259" y="-81" on="1"/>
        <pt x="265" y="-61" on="0"/>
      </contour>
      <contour>
        <pt x="103" y="0" on="1"/>
        <pt x="84" y="0" on="0"/>
        <pt x="84" y="31" on="1"/>
        <pt x="84" y="615" on="1"/>
        <pt x="84" y="643" on="0"/>
        <pt x="126" y="643" on="0"/>
        <pt x="126" y="615" on="1"/>
        <pt x="126" y="42" on="1"/>
        <pt x="444" y="42" on="1"/>
        <pt x="472" y="42" on="0"/>
        <pt x="472" y="20" on="1"/>
        <pt x="472" y="0" on="0"/>
        <pt x="444" y="0" on="1"/>
      </contour>
    </TTGlyph>
    <TTGlyph name="Ljecyrillic" xMin="20" yMin="-7" xMax="816" yMax="636">
      <contour>
        <pt x="468" y="35" on="1"/>
        <pt x="609" y="35" on="1"/>
        <pt x="690" y="35" on="0"/>
        <pt x="774" y="124" on="0"/>
        <pt x="774" y="270" on="0"/>
        <pt x="689" y="359" on="0"/>
        <pt x="609" y="359" on="1"/>
        <pt x="468" y="359" on="1"/>
      </contour>
      <contour>
        <pt x="468" y="401" on="1"/>
        <pt x="609" y="401" on="1"/>
        <pt x="702" y="401" on="0"/>
        <pt x="816" y="289" on="0"/>
        <pt x="816" y="197" on="1"/>
        <pt x="816" y="104" on="0"/>
        <pt x="702" y="-7" on="0"/>
        <pt x="609" y="-7" on="1"/>
        <pt x="447" y="-7" on="1"/>
        <pt x="426" y="-7" on="0"/>
        <pt x="426" y="24" on="1"/>
        <pt x="426" y="594" on="1"/>
        <pt x="213" y="594" on="1"/>
        <pt x="179" y="594" on="0"/>
        <pt x="153" y="564" on="0"/>
        <pt x="153" y="529" on="1"/>
        <pt x="153" y="124" on="1"/>
        <pt x="153" y="47" on="0"/>
        <pt x="103" y="0" on="0"/>
        <pt x="51" y="0" on="1"/>
        <pt x="20" y="0" on="0"/>
        <pt x="20" y="22" on="1"/>
        <pt x="20" y="42" on="0"/>
        <pt x="51" y="42" on="1"/>
        <pt x="85" y="42" on="0"/>
        <pt x="111" y="71" on="0"/>
        <pt x="111" y="106" on="1"/>
        <pt x="111" y="512" on="1"/>
        <pt x="111" y="582" on="0"/>
        <pt x="151" y="636" on="0"/>
        <pt x="206" y="636" on="1"/>
        <pt x="468" y="636" on="1"/>
      </contour>
    </TTGlyph>
    <TTGlyph name="Lslash" xMin="1" yMin="0" xMax="478" yMax="643">
      <contour>
        <pt x="205" y="413" on="1"/>
        <pt x="214" y="413" on="0"/>
        <pt x="227" y="400" on="0"/>
        <pt x="227" y="392" on="1"/>
        <pt x="227" y="379" on="0"/>
        <pt x="205" y="370" on="1"/>
        <pt x="132" y="334" on="1"/>
        <pt x="132" y="42" on="1"/>
        <pt x="450" y="42" on="1"/>
        <pt x="478" y="42" on="0"/>
        <pt x="478" y="20" on="1"/>
        <pt x="478" y="0" on="0"/>
        <pt x="450" y="0" on="1"/>
        <pt x="109" y="0" on="1"/>
        <pt x="90" y="0" on="0"/>
        <pt x="90" y="31" on="1"/>
        <pt x="90" y="313" on="1"/>
        <pt x="35" y="286" on="1"/>
        <pt x="28" y="283" on="0"/>
        <pt x="22" y="283" on="1"/>
        <pt x="1" y="283" on="0"/>
        <pt x="1" y="306" on="1"/>
        <pt x="1" y="316" on="0"/>
        <pt x="20" y="326" on="1"/>
        <pt x="90" y="361" on="1"/>
        <pt x="90" y="615" on="1"/>
        <pt x="90" y="643" on="0"/>
        <pt x="132" y="643" on="0"/>
        <pt x="132" y="615" on="1"/>
        <pt x="132" y="381" on="1"/>
        <pt x="190" y="410" on="1"/>
        <pt x="199" y="413" on="0"/>
      </contour>
    </TTGlyph>
    <TTGlyph name="M" xMin="84" yMin="-7" xMax="549" yMax="643">
      <contour>
        <pt x="316" y="279" on="1"/>
        <pt x="309" y="279" on="0"/>
        <pt x="304" y="285" on="1"/>
        <pt x="126" y="557" on="1"/>
        <pt x="126" y="23" on="1"/>
        <pt x="126" y="-7" on="0"/>
        <pt x="84" y="-7" on="0"/>
        <pt x="84" y="23" on="1"/>
        <pt x="84" y="612" on="1"/>
        <pt x="84" y="643" on="0"/>
        <pt x="103" y="643" on="1"/>
        <pt x="118" y="643" on="0"/>
        <pt x="129" y="626" on="1"/>
        <pt x="316" y="342" on="1"/>
        <pt x="504" y="626" on="1"/>
        <pt x="515" y="643" on="0"/>
        <pt x="529" y="643" on="1"/>
        <pt x="549" y="643" on="0"/>
        <pt x="549" y="612" on="1"/>
        <pt x="549" y="23" on="1"/>
        <pt x="549" y="-7" on="0"/>
        <pt x="527" y="-7" on="1"/>
        <pt x="507" y="-7" on="0"/>
        <pt x="507" y="23" on="1"/>
        <pt x="507" y="557" on="1"/>
        <pt x="329" y="285" on="1"/>
        <pt x="324" y="279" on="0"/>
      </contour>
    </TTGlyph>
    <TTGlyph name="Mu" xMin="84" yMin="-7" xMax="549" yMax="643">
      <component glyphName="M" x="0" y="0" flags="0x1004"/>
    </TTGlyph>
    <TTGlyph name="N" xMin="84" yMin="-7" xMax="528" yMax="643">
      <contour>
        <pt x="508" y="-7" on="1"/>
        <pt x="496" y="-7" on="0"/>
        <pt x="492" y="0" on="1"/>
        <pt x="126" y="557" on="1"/>
        <pt x="126" y="23" on="1"/>
        <pt x="126" y="-7" on="0"/>
        <pt x="84" y="-7" on="0"/>
        <pt x="84" y="23" on="1"/>
        <pt x="84" y="612" on="1"/>
        <pt x="84" y="643" on="0"/>
        <pt x="103" y="643" on="1"/>
        <pt x="118" y="643" on="0"/>
        <pt x="129" y="626" on="1"/>
        <pt x="486" y="84" on="1"/>
        <pt x="486" y="612" on="1"/>
        <pt x="486" y="643" on="0"/>
        <pt x="506" y="643" on="1"/>
        <pt x="528" y="643" on="0"/>
        <pt x="528" y="612" on="1"/>
        <pt x="528" y="23" on="1"/>
        <pt x="528" y="-7" on="0"/>
      </contour>
    </TTGlyph>
    <TTGlyph name="Nacute" xMin="84" yMin="-7" xMax="528" yMax="804">
      <contour>
        <pt x="401" y="783" on="1"/>
        <pt x="401" y="773" on="0"/>
        <pt x="393" y="764" on="1"/>
        <pt x="297" y="649" on="1"/>
        <pt x="285" y="636" on="0"/>
        <pt x="276" y="636" on="1"/>
        <pt x="269" y="636" on="0"/>
        <pt x="256" y="648" on="0"/>
        <pt x="256" y="656" on="1"/>
        <pt x="256" y="667" on="0"/>
        <pt x="264" y="676" on="1"/>
        <pt x="360" y="791" on="1"/>
        <pt x="372" y="804" on="0"/>
        <pt x="381" y="804" on="1"/>
        <pt x="388" y="804" on="0"/>
        <pt x="401" y="792" on="0"/>
      </contour>
      <contour>
        <pt x="508" y="-7" on="1"/>
        <pt x="496" y="-7" on="0"/>
        <pt x="492" y="0" on="1"/>
        <pt x="126" y="557" on="1"/>
        <pt x="126" y="23" on="1"/>
        <pt x="126" y="-7" on="0"/>
        <pt x="84" y="-7" on="0"/>
        <pt x="84" y="23" on="1"/>
        <pt x="84" y="612" on="1"/>
        <pt x="84" y="643" on="0"/>
        <pt x="103" y="643" on="1"/>
        <pt x="118" y="643" on="0"/>
        <pt x="129" y="626" on="1"/>
        <pt x="486" y="84" on="1"/>
        <pt x="486" y="612" on="1"/>
        <pt x="486" y="643" on="0"/>
        <pt x="506" y="643" on="1"/>
        <pt x="528" y="643" on="0"/>
        <pt x="528" y="612" on="1"/>
        <pt x="528" y="23" on="1"/>
        <pt x="528" y="-7" on="0"/>
      </contour>
    </TTGlyph>
    <TTGlyph name="Ncaron" xMin="84" yMin="-7" xMax="528" yMax="771">
      <contour>
        <pt x="335" y="637" on="1"/>
        <pt x="283" y="637" on="1"/>
        <pt x="181" y="744" on="1"/>
        <pt x="175" y="750" on="0"/>
        <pt x="175" y="756" on="1"/>
        <pt x="175" y="771" on="0"/>
        <pt x="193" y="771" on="1"/>
        <pt x="203" y="771" on="0"/>
        <pt x="222" y="755" on="1"/>
        <pt x="309" y="683" on="1"/>
        <pt x="396" y="755" on="1"/>
        <pt x="415" y="771" on="0"/>
        <pt x="425" y="771" on="1"/>
        <pt x="443" y="771" on="0"/>
        <pt x="443" y="756" on="1"/>
        <pt x="443" y="750" on="0"/>
        <pt x="437" y="744" on="1"/>
      </contour>
      <contour>
        <pt x="508" y="-7" on="1"/>
        <pt x="496" y="-7" on="0"/>
        <pt x="492" y="0" on="1"/>
        <pt x="126" y="557" on="1"/>
        <pt x="126" y="23" on="1"/>
        <pt x="126" y="-7" on="0"/>
        <pt x="84" y="-7" on="0"/>
        <pt x="84" y="23" on="1"/>
        <pt x="84" y="612" on="1"/>
        <pt x="84" y="643" on="0"/>
        <pt x="103" y="643" on="1"/>
        <pt x="118" y="643" on="0"/>
        <pt x="129" y="626" on="1"/>
        <pt x="486" y="84" on="1"/>
        <pt x="486" y="612" on="1"/>
        <pt x="486" y="643" on="0"/>
        <pt x="506" y="643" on="1"/>
        <pt x="528" y="643" on="0"/>
        <pt x="528" y="612" on="1"/>
        <pt x="528" y="23" on="1"/>
        <pt x="528" y="-7" on="0"/>
      </contour>
    </TTGlyph>
    <TTGlyph name="Ncommaaccent" xMin="84" yMin="-141" xMax="528" yMax="643">
      <contour>
        <pt x="312" y="0" on="1"/>
        <pt x="322" y="0" on="0"/>
        <pt x="348" y="-10" on="0"/>
        <pt x="348" y="-20" on="1"/>
        <pt x="348" y="-29" on="0"/>
        <pt x="344" y="-37" on="1"/>
        <pt x="302" y="-120" on="1"/>
        <pt x="293" y="-141" on="0"/>
        <pt x="282" y="-141" on="1"/>
        <pt x="265" y="-141" on="0"/>
        <pt x="265" y="-121" on="1"/>
        <pt x="265" y="-115" on="0"/>
        <pt x="268" y="-106" on="1"/>
        <pt x="292" y="-20" on="1"/>
        <pt x="298" y="0" on="0"/>
      </contour>
      <contour>
        <pt x="508" y="-7" on="1"/>
        <pt x="496" y="-7" on="0"/>
        <pt x="492" y="0" on="1"/>
        <pt x="126" y="557" on="1"/>
        <pt x="126" y="23" on="1"/>
        <pt x="126" y="-7" on="0"/>
        <pt x="84" y="-7" on="0"/>
        <pt x="84" y="23" on="1"/>
        <pt x="84" y="612" on="1"/>
        <pt x="84" y="643" on="0"/>
        <pt x="103" y="643" on="1"/>
        <pt x="118" y="643" on="0"/>
        <pt x="129" y="626" on="1"/>
        <pt x="486" y="84" on="1"/>
        <pt x="486" y="612" on="1"/>
        <pt x="486" y="643" on="0"/>
        <pt x="506" y="643" on="1"/>
        <pt x="528" y="643" on="0"/>
        <pt x="528" y="612" on="1"/>
        <pt x="528" y="23" on="1"/>
        <pt x="528" y="-7" on="0"/>
      </contour>
    </TTGlyph>
    <TTGlyph name="Njecyrillic" xMin="84" yMin="-7" xMax="876" yMax="643">
      <contour>
        <pt x="528" y="35" on="1"/>
        <pt x="669" y="35" on="1"/>
        <pt x="750" y="35" on="0"/>
        <pt x="834" y="124" on="0"/>
        <pt x="834" y="270" on="0"/>
        <pt x="749" y="359" on="0"/>
        <pt x="669" y="359" on="1"/>
        <pt x="528" y="359" on="1"/>
      </contour>
      <contour>
        <pt x="528" y="401" on="1"/>
        <pt x="669" y="401" on="1"/>
        <pt x="762" y="401" on="0"/>
        <pt x="876" y="289" on="0"/>
        <pt x="876" y="197" on="1"/>
        <pt x="876" y="104" on="0"/>
        <pt x="762" y="-7" on="0"/>
        <pt x="669" y="-7" on="1"/>
        <pt x="507" y="-7" on="1"/>
        <pt x="486" y="-7" on="0"/>
        <pt x="486" y="24" on="1"/>
        <pt x="486" y="359" on="1"/>
        <pt x="126" y="359" on="1"/>
        <pt x="126" y="23" on="1"/>
        <pt x="126" y="-7" on="0"/>
        <pt x="84" y="-7" on="0"/>
        <pt x="84" y="23" on="1"/>
        <pt x="84" y="612" on="1"/>
        <pt x="84" y="643" on="0"/>
        <pt x="103" y="643" on="1"/>
        <pt x="126" y="643" on="0"/>
        <pt x="126" y="612" on="1"/>
        <pt x="126" y="401" on="1"/>
        <pt x="486" y="401" on="1"/>
        <pt x="486" y="612" on="1"/>
        <pt x="486" y="643" on="0"/>
        <pt x="506" y="643" on="1"/>
        <pt x="528" y="643" on="0"/>
        <pt x="528" y="612" on="1"/>
      </contour>
    </TTGlyph>
    <TTGlyph name="Ntilde" xMin="84" yMin="-7" xMax="528" yMax="794">
      <component glyphName="tilde" x="104" y="524" flags="0x1004"/>
      <component glyphName="N" x="0" y="0" flags="0x1204"/>
    </TTGlyph>
    <TTGlyph name="Nu" xMin="84" yMin="-7" xMax="528" yMax="643">
      <component glyphName="N" x="0" y="0" flags="0x1004"/>
    </TTGlyph>
    <TTGlyph name="O" xMin="65" yMin="-9" xMax="509" yMax="645">
      <contour>
        <pt x="384" y="-9" on="0"/>
        <pt x="190" y="-9" on="0"/>
        <pt x="65" y="117" on="0"/>
        <pt x="65" y="227" on="1"/>
        <pt x="65" y="409" on="1"/>
        <pt x="65" y="519" on="0"/>
        <pt x="190" y="645" on="0"/>
        <pt x="384" y="645" on="0"/>
        <pt x="509" y="519" on="0"/>
        <pt x="509" y="409" on="1"/>
        <pt x="509" y="227" on="1"/>
        <pt x="509" y="117" on="0"/>
      </contour>
      <contour>
        <pt x="371" y="603" on="0"/>
        <pt x="203" y="603" on="0"/>
        <pt x="107" y="500" on="0"/>
        <pt x="107" y="409" on="1"/>
        <pt x="107" y="227" on="1"/>
        <pt x="107" y="136" on="0"/>
        <pt x="203" y="33" on="0"/>
        <pt x="371" y="33" on="0"/>
        <pt x="467" y="136" on="0"/>
        <pt x="467" y="227" on="1"/>
        <pt x="467" y="409" on="1"/>
        <pt x="467" y="500" on="0"/>
      </contour>
    </TTGlyph>
    <TTGlyph name="O.sc" xMin="63" yMin="-9" xMax="507" yMax="561">
      <contour>
        <pt x="382" y="-9" on="0"/>
        <pt x="188" y="-9" on="0"/>
        <pt x="63" y="117" on="0"/>
        <pt x="63" y="227" on="1"/>
        <pt x="63" y="325" on="1"/>
        <pt x="63" y="435" on="0"/>
        <pt x="188" y="561" on="0"/>
        <pt x="382" y="561" on="0"/>
        <pt x="507" y="435" on="0"/>
        <pt x="507" y="325" on="1"/>
        <pt x="507" y="227" on="1"/>
        <pt x="507" y="117" on="0"/>
      </contour>
      <contour>
        <pt x="369" y="519" on="0"/>
        <pt x="201" y="519" on="0"/>
        <pt x="105" y="416" on="0"/>
        <pt x="105" y="325" on="1"/>
        <pt x="105" y="227" on="1"/>
        <pt x="105" y="136" on="0"/>
        <pt x="201" y="33" on="0"/>
        <pt x="369" y="33" on="0"/>
        <pt x="465" y="136" on="0"/>
        <pt x="465" y="227" on="1"/>
        <pt x="465" y="325" on="1"/>
        <pt x="465" y="416" on="0"/>
      </contour>
    </TTGlyph>
    <TTGlyph name="OE" xMin="65" yMin="-9" xMax="663" yMax="645">
      <contour>
        <pt x="376" y="617" on="1"/>
        <pt x="379" y="636" on="0"/>
        <pt x="394" y="636" on="1"/>
        <pt x="633" y="636" on="1"/>
        <pt x="663" y="636" on="0"/>
        <pt x="663" y="616" on="1"/>
        <pt x="663" y="594" on="0"/>
        <pt x="633" y="594" on="1"/>
        <pt x="417" y="594" on="1"/>
        <pt x="417" y="379" on="1"/>
        <pt x="515" y="379" on="1"/>
        <pt x="545" y="379" on="0"/>
        <pt x="545" y="356" on="1"/>
        <pt x="545" y="337" on="0"/>
        <pt x="515" y="337" on="1"/>
        <pt x="417" y="337" on="1"/>
        <pt x="417" y="42" on="1"/>
        <pt x="633" y="42" on="1"/>
        <pt x="663" y="42" on="0"/>
        <pt x="663" y="19" on="1"/>
        <pt x="663" y="0" on="0"/>
        <pt x="633" y="0" on="1"/>
        <pt x="394" y="0" on="1"/>
        <pt x="379" y="0" on="0"/>
        <pt x="376" y="18" on="1"/>
        <pt x="331" y="-9" on="0"/>
        <pt x="268" y="-9" on="1"/>
        <pt x="195" y="-9" on="0"/>
        <pt x="65" y="122" on="0"/>
        <pt x="65" y="227" on="1"/>
        <pt x="65" y="409" on="1"/>
        <pt x="65" y="514" on="0"/>
        <pt x="195" y="645" on="0"/>
        <pt x="268" y="645" on="1"/>
        <pt x="332" y="645" on="0"/>
      </contour>
      <contour>
        <pt x="375" y="70" on="1"/>
        <pt x="375" y="566" on="1"/>
        <pt x="338" y="603" on="0"/>
        <pt x="268" y="603" on="1"/>
        <pt x="207" y="603" on="0"/>
        <pt x="106" y="495" on="0"/>
        <pt x="106" y="409" on="1"/>
        <pt x="106" y="227" on="1"/>
        <pt x="106" y="141" on="0"/>
        <pt x="207" y="33" on="0"/>
        <pt x="268" y="33" on="1"/>
        <pt x="338" y="33" on="0"/>
      </contour>
    </TTGlyph>
    <TTGlyph name="Oacute" xMin="65" yMin="-9" xMax="509" yMax="819">
      <component glyphName="acutecomb" x="636" y="188" flags="0x1004"/>
      <component glyphName="O" x="0" y="0" flags="0x1204"/>
    </TTGlyph>
    <TTGlyph name="Ocircumflex" xMin="65" yMin="-9" xMax="509" yMax="819">
      <component glyphName="uni0302" x="589" y="141" flags="0x1004"/>
      <component glyphName="O" x="0" y="0" flags="0x1204"/>
    </TTGlyph>
    <TTGlyph name="Ocyrillic" xMin="65" yMin="-9" xMax="509" yMax="645">
      <component glyphName="O" x="0" y="0" flags="0x1004"/>
    </TTGlyph>
    <TTGlyph name="Odieresis" xMin="65" yMin="-9" xMax="509" yMax="778">
      <component glyphName="dieresis" x="103" y="112" flags="0x1004"/>
      <component glyphName="O" x="0" y="0" flags="0x1204"/>
    </TTGlyph>
    <TTGlyph name="Ograve" xMin="65" yMin="-9" xMax="509" yMax="819">
      <component glyphName="gravecomb" x="555" y="188" flags="0x1004"/>
      <component glyphName="O" x="0" y="0" flags="0x1204"/>
    </TTGlyph>
    <TTGlyph name="Ohorn" xMin="65" yMin="-9" xMax="613" yMax="681">
      <contour>
        <pt x="531" y="661" on="1"/>
        <pt x="531" y="668" on="0"/>
        <pt x="544" y="681" on="0"/>
        <pt x="551" y="681" on="1"/>
        <pt x="560" y="681" on="0"/>
        <pt x="571" y="671" on="1"/>
        <pt x="613" y="636" on="0"/>
        <pt x="613" y="596" on="1"/>
        <pt x="613" y="514" on="0"/>
        <pt x="493" y="507" on="1"/>
        <pt x="509" y="461" on="0"/>
        <pt x="509" y="409" on="1"/>
        <pt x="509" y="227" on="1"/>
        <pt x="509" y="117" on="0"/>
        <pt x="384" y="-9" on="0"/>
        <pt x="190" y="-9" on="0"/>
        <pt x="65" y="117" on="0"/>
        <pt x="65" y="227" on="1"/>
        <pt x="65" y="409" on="1"/>
        <pt x="65" y="519" on="0"/>
        <pt x="190" y="645" on="0"/>
        <pt x="287" y="645" on="1"/>
        <pt x="414" y="645" on="0"/>
        <pt x="474" y="547" on="1"/>
        <pt x="523" y="548" on="0"/>
        <pt x="569" y="571" on="0"/>
        <pt x="569" y="600" on="1"/>
        <pt x="569" y="618" on="0"/>
        <pt x="544" y="639" on="1"/>
        <pt x="531" y="649" on="0"/>
      </contour>
      <contour>
        <pt x="371" y="603" on="0"/>
        <pt x="203" y="603" on="0"/>
        <pt x="107" y="500" on="0"/>
        <pt x="107" y="409" on="1"/>
        <pt x="107" y="227" on="1"/>
        <pt x="107" y="136" on="0"/>
        <pt x="203" y="33" on="0"/>
        <pt x="371" y="33" on="0"/>
        <pt x="467" y="136" on="0"/>
        <pt x="467" y="227" on="1"/>
        <pt x="467" y="409" on="1"/>
        <pt x="467" y="500" on="0"/>
      </contour>
    </TTGlyph>
    <TTGlyph name="Ohungarumlaut" xMin="65" yMin="-9" xMax="509" yMax="819">
      <contour>
        <pt x="445" y="799" on="1"/>
        <pt x="445" y="791" on="0"/>
        <pt x="434" y="778" on="1"/>
        <pt x="364" y="709" on="1"/>
        <pt x="354" y="698" on="0"/>
        <pt x="344" y="698" on="1"/>
        <pt x="336" y="698" on="0"/>
        <pt x="323" y="711" on="0"/>
        <pt x="323" y="717" on="1"/>
        <pt x="323" y="727" on="0"/>
        <pt x="335" y="739" on="1"/>
        <pt x="404" y="808" on="1"/>
        <pt x="414" y="819" on="0"/>
        <pt x="425" y="819" on="1"/>
        <pt x="433" y="819" on="0"/>
        <pt x="445" y="805" on="0"/>
      </contour>
      <contour>
        <pt x="345" y="799" on="1"/>
        <pt x="345" y="791" on="0"/>
        <pt x="334" y="778" on="1"/>
        <pt x="264" y="709" on="1"/>
        <pt x="254" y="698" on="0"/>
        <pt x="244" y="698" on="1"/>
        <pt x="236" y="698" on="0"/>
        <pt x="223" y="711" on="0"/>
        <pt x="223" y="717" on="1"/>
        <pt x="223" y="727" on="0"/>
        <pt x="235" y="739" on="1"/>
        <pt x="304" y="808" on="1"/>
        <pt x="314" y="819" on="0"/>
        <pt x="325" y="819" on="1"/>
        <pt x="333" y="819" on="0"/>
        <pt x="345" y="805" on="0"/>
      </contour>
      <contour>
        <pt x="384" y="-9" on="0"/>
        <pt x="190" y="-9" on="0"/>
        <pt x="65" y="117" on="0"/>
        <pt x="65" y="227" on="1"/>
        <pt x="65" y="409" on="1"/>
        <pt x="65" y="519" on="0"/>
        <pt x="190" y="645" on="0"/>
        <pt x="384" y="645" on="0"/>
        <pt x="509" y="519" on="0"/>
        <pt x="509" y="409" on="1"/>
        <pt x="509" y="227" on="1"/>
        <pt x="509" y="117" on="0"/>
      </contour>
      <contour>
        <pt x="371" y="603" on="0"/>
        <pt x="203" y="603" on="0"/>
        <pt x="107" y="500" on="0"/>
        <pt x="107" y="409" on="1"/>
        <pt x="107" y="227" on="1"/>
        <pt x="107" y="136" on="0"/>
        <pt x="203" y="33" on="0"/>
        <pt x="371" y="33" on="0"/>
        <pt x="467" y="136" on="0"/>
        <pt x="467" y="227" on="1"/>
        <pt x="467" y="409" on="1"/>
        <pt x="467" y="500" on="0"/>
      </contour>
    </TTGlyph>
    <TTGlyph name="Omacron" xMin="65" yMin="-9" xMax="509" yMax="749">
      <contour>
        <pt x="163" y="706" on="1"/>
        <pt x="137" y="706" on="0"/>
        <pt x="137" y="728" on="1"/>
        <pt x="137" y="749" on="0"/>
        <pt x="163" y="749" on="1"/>
        <pt x="408" y="749" on="1"/>
        <pt x="437" y="749" on="0"/>
        <pt x="437" y="726" on="1"/>
        <pt x="437" y="706" on="0"/>
        <pt x="408" y="706" on="1"/>
      </contour>
      <contour>
        <pt x="384" y="-9" on="0"/>
        <pt x="190" y="-9" on="0"/>
        <pt x="65" y="117" on="0"/>
        <pt x="65" y="227" on="1"/>
        <pt x="65" y="409" on="1"/>
        <pt x="65" y="519" on="0"/>
        <pt x="190" y="645" on="0"/>
        <pt x="384" y="645" on="0"/>
        <pt x="509" y="519" on="0"/>
        <pt x="509" y="409" on="1"/>
        <pt x="509" y="227" on="1"/>
        <pt x="509" y="117" on="0"/>
      </contour>
      <contour>
        <pt x="371" y="603" on="0"/>
        <pt x="203" y="603" on="0"/>
        <pt x="107" y="500" on="0"/>
        <pt x="107" y="409" on="1"/>
        <pt x="107" y="227" on="1"/>
        <pt x="107" y="136" on="0"/>
        <pt x="203" y="33" on="0"/>
        <pt x="371" y="33" on="0"/>
        <pt x="467" y="136" on="0"/>
        <pt x="467" y="227" on="1"/>
        <pt x="467" y="409" on="1"/>
        <pt x="467" y="500" on="0"/>
      </contour>
    </TTGlyph>
    <TTGlyph name="Omega" xMin="63" yMin="0" xMax="507" yMax="645">
      <contour>
        <pt x="193" y="109" on="1"/>
        <pt x="133" y="134" on="0"/>
        <pt x="63" y="246" on="0"/>
        <pt x="63" y="327" on="1"/>
        <pt x="63" y="409" on="1"/>
        <pt x="63" y="519" on="0"/>
        <pt x="188" y="645" on="0"/>
        <pt x="382" y="645" on="0"/>
        <pt x="507" y="519" on="0"/>
        <pt x="507" y="409" on="1"/>
        <pt x="507" y="327" on="1"/>
        <pt x="507" y="246" on="0"/>
        <pt x="437" y="134" on="0"/>
        <pt x="377" y="109" on="1"/>
        <pt x="377" y="79" on="1"/>
        <pt x="377" y="53" on="0"/>
        <pt x="392" y="42" on="0"/>
        <pt x="427" y="42" on="1"/>
        <pt x="477" y="42" on="1"/>
        <pt x="507" y="42" on="0"/>
        <pt x="507" y="0" on="0"/>
        <pt x="477" y="0" on="1"/>
        <pt x="420" y="0" on="1"/>
        <pt x="362" y="0" on="0"/>
        <pt x="335" y="28" on="0"/>
        <pt x="335" y="96" on="1"/>
        <pt x="335" y="138" on="1"/>
        <pt x="397" y="152" on="0"/>
        <pt x="465" y="250" on="0"/>
        <pt x="465" y="327" on="1"/>
        <pt x="465" y="409" on="1"/>
        <pt x="465" y="500" on="0"/>
        <pt x="369" y="603" on="0"/>
        <pt x="201" y="603" on="0"/>
        <pt x="105" y="500" on="0"/>
        <pt x="105" y="409" on="1"/>
        <pt x="105" y="327" on="1"/>
        <pt x="105" y="250" on="0"/>
        <pt x="173" y="153" on="0"/>
        <pt x="235" y="138" on="1"/>
        <pt x="235" y="96" on="1"/>
        <pt x="235" y="29" on="0"/>
        <pt x="207" y="0" on="0"/>
        <pt x="150" y="0" on="1"/>
        <pt x="93" y="0" on="1"/>
        <pt x="63" y="0" on="0"/>
        <pt x="63" y="42" on="0"/>
        <pt x="93" y="42" on="1"/>
        <pt x="143" y="42" on="1"/>
        <pt x="178" y="42" on="0"/>
        <pt x="193" y="54" on="0"/>
        <pt x="193" y="80" on="1"/>
      </contour>
    </TTGlyph>
    <TTGlyph name="Omegatonos" xMin="34" yMin="0" xMax="544" yMax="750">
      <component glyphName="tonos" x="-41" y="102" flags="0x1004"/>
      <component glyphName="Omega" x="37" y="0" flags="0x1004"/>
    </TTGlyph>
    <TTGlyph name="Omicron" xMin="65" yMin="-9" xMax="509" yMax="645">
      <component glyphName="O" x="0" y="0" flags="0x1004"/>
    </TTGlyph>
    <TTGlyph name="Omicrontonos" xMin="30" yMin="-9" xMax="538" yMax="750">
      <component glyphName="tonos" x="-45" y="102" flags="0x1004"/>
      <component glyphName="Omicron" x="29" y="0" flags="0x1004"/>
    </TTGlyph>
    <TTGlyph name="Oslash" xMin="65" yMin="-9" xMax="509" yMax="645">
      <contour>
        <pt x="287" y="603" on="1"/>
        <pt x="203" y="603" on="0"/>
        <pt x="107" y="500" on="0"/>
        <pt x="107" y="409" on="1"/>
        <pt x="107" y="227" on="1"/>
        <pt x="107" y="151" on="0"/>
        <pt x="140" y="103" on="1"/>
        <pt x="406" y="564" on="1"/>
        <pt x="360" y="603" on="0"/>
      </contour>
      <contour>
        <pt x="460" y="638" on="1"/>
        <pt x="463" y="638" on="0"/>
        <pt x="472" y="635" on="0"/>
        <pt x="481" y="625" on="0"/>
        <pt x="481" y="618" on="1"/>
        <pt x="481" y="612" on="0"/>
        <pt x="476" y="600" on="1"/>
        <pt x="457" y="570" on="1"/>
        <pt x="509" y="507" on="0"/>
        <pt x="509" y="409" on="1"/>
        <pt x="509" y="227" on="1"/>
        <pt x="509" y="117" on="0"/>
        <pt x="384" y="-9" on="0"/>
        <pt x="287" y="-9" on="1"/>
        <pt x="205" y="-9" on="0"/>
        <pt x="149" y="35" on="1"/>
        <pt x="137" y="14" on="1"/>
        <pt x="128" y="-2" on="0"/>
        <pt x="115" y="-2" on="1"/>
        <pt x="110" y="-2" on="0"/>
        <pt x="95" y="7" on="0"/>
        <pt x="95" y="17" on="1"/>
        <pt x="95" y="24" on="0"/>
        <pt x="100" y="36" on="1"/>
        <pt x="117" y="65" on="1"/>
        <pt x="65" y="126" on="0"/>
        <pt x="65" y="227" on="1"/>
        <pt x="65" y="409" on="1"/>
        <pt x="65" y="519" on="0"/>
        <pt x="190" y="645" on="0"/>
        <pt x="287" y="645" on="1"/>
        <pt x="370" y="645" on="0"/>
        <pt x="426" y="600" on="1"/>
        <pt x="439" y="622" on="1"/>
        <pt x="448" y="638" on="0"/>
      </contour>
      <contour>
        <pt x="435" y="531" on="1"/>
        <pt x="169" y="71" on="1"/>
        <pt x="215" y="33" on="0"/>
        <pt x="287" y="33" on="1"/>
        <pt x="371" y="33" on="0"/>
        <pt x="467" y="136" on="0"/>
        <pt x="467" y="227" on="1"/>
        <pt x="467" y="409" on="1"/>
        <pt x="467" y="484" on="0"/>
      </contour>
    </TTGlyph>
    <TTGlyph name="Otilde" xMin="65" yMin="-9" xMax="509" yMax="794">
      <component glyphName="tilde" x="86" y="524" flags="0x1004"/>
      <component glyphName="O" x="0" y="0" flags="0x1204"/>
    </TTGlyph>
    <TTGlyph name="P" xMin="84" yMin="-7" xMax="486" yMax="636">
      <contour>
        <pt x="126" y="20" on="1"/>
        <pt x="126" y="-7" on="0"/>
        <pt x="104" y="-7" on="1"/>
        <pt x="84" y="-7" on="0"/>
        <pt x="84" y="20" on="1"/>
        <pt x="84" y="605" on="1"/>
        <pt x="84" y="636" on="0"/>
        <pt x="103" y="636" on="1"/>
        <pt x="279" y="636" on="1"/>
        <pt x="382" y="636" on="0"/>
        <pt x="486" y="572" on="0"/>
        <pt x="486" y="486" on="1"/>
        <pt x="486" y="413" on="0"/>
        <pt x="399" y="337" on="0"/>
        <pt x="321" y="337" on="1"/>
        <pt x="126" y="337" on="1"/>
      </contour>
      <contour>
        <pt x="279" y="379" on="1"/>
        <pt x="369" y="379" on="0"/>
        <pt x="444" y="421" on="0"/>
        <pt x="444" y="486" on="1"/>
        <pt x="444" y="552" on="0"/>
        <pt x="369" y="594" on="0"/>
        <pt x="279" y="594" on="1"/>
        <pt x="126" y="594" on="1"/>
        <pt x="126" y="379" on="1"/>
      </contour>
    </TTGlyph>
    <TTGlyph name="Pecyrillic" xMin="84" yMin="-7" xMax="518" yMax="636">
      <contour>
        <pt x="84" y="636" on="1"/>
        <pt x="518" y="636" on="1"/>
        <pt x="518" y="23" on="1"/>
        <pt x="518" y="-7" on="0"/>
        <pt x="498" y="-7" on="1"/>
        <pt x="476" y="-7" on="0"/>
        <pt x="476" y="23" on="1"/>
        <pt x="476" y="594" on="1"/>
        <pt x="126" y="594" on="1"/>
        <pt x="126" y="23" on="1"/>
        <pt x="126" y="-7" on="0"/>
        <pt x="84" y="-7" on="0"/>
        <pt x="84" y="23" on="1"/>
      </contour>
    </TTGlyph>
    <TTGlyph name="Phi" xMin="43" yMin="-7" xMax="487" yMax="643">
      <contour>
        <pt x="288" y="20" on="1"/>
        <pt x="288" y="-7" on="0"/>
        <pt x="266" y="-7" on="1"/>
        <pt x="246" y="-7" on="0"/>
        <pt x="246" y="20" on="1"/>
        <pt x="246" y="77" on="1"/>
        <pt x="156" y="83" on="0"/>
        <pt x="43" y="207" on="0"/>
        <pt x="43" y="312" on="1"/>
        <pt x="43" y="324" on="1"/>
        <pt x="43" y="429" on="0"/>
        <pt x="156" y="553" on="0"/>
        <pt x="246" y="559" on="1"/>
        <pt x="246" y="615" on="1"/>
        <pt x="246" y="643" on="0"/>
        <pt x="288" y="643" on="0"/>
        <pt x="288" y="615" on="1"/>
        <pt x="288" y="559" on="1"/>
        <pt x="376" y="551" on="0"/>
        <pt x="487" y="427" on="0"/>
        <pt x="487" y="324" on="1"/>
        <pt x="487" y="312" on="1"/>
        <pt x="487" y="209" on="0"/>
        <pt x="376" y="85" on="0"/>
        <pt x="288" y="77" on="1"/>
      </contour>
      <contour>
        <pt x="288" y="119" on="1"/>
        <pt x="362" y="126" on="0"/>
        <pt x="445" y="228" on="0"/>
        <pt x="445" y="312" on="1"/>
        <pt x="445" y="324" on="1"/>
        <pt x="445" y="408" on="0"/>
        <pt x="362" y="509" on="0"/>
        <pt x="288" y="517" on="1"/>
      </contour>
      <contour>
        <pt x="246" y="119" on="1"/>
        <pt x="246" y="517" on="1"/>
        <pt x="170" y="511" on="0"/>
        <pt x="85" y="409" on="0"/>
        <pt x="85" y="324" on="1"/>
        <pt x="85" y="312" on="1"/>
        <pt x="85" y="226" on="0"/>
        <pt x="170" y="125" on="0"/>
      </contour>
    </TTGlyph>
    <TTGlyph name="Pi" xMin="84" yMin="-7" xMax="518" yMax="636">
      <contour>
        <pt x="84" y="636" on="1"/>
        <pt x="518" y="636" on="1"/>
        <pt x="518" y="23" on="1"/>
        <pt x="518" y="-7" on="0"/>
        <pt x="498" y="-7" on="1"/>
        <pt x="476" y="-7" on="0"/>
        <pt x="476" y="23" on="1"/>
        <pt x="476" y="594" on="1"/>
        <pt x="126" y="594" on="1"/>
        <pt x="126" y="23" on="1"/>
        <pt x="126" y="-7" on="0"/>
        <pt x="84" y="-7" on="0"/>
        <pt x="84" y="23" on="1"/>
      </contour>
    </TTGlyph>
    <TTGlyph name="Psi" xMin="48" yMin="-7" xMax="492" yMax="643">
      <contour>
        <pt x="450" y="615" on="1"/>
        <pt x="450" y="643" on="0"/>
        <pt x="472" y="643" on="1"/>
        <pt x="492" y="643" on="0"/>
        <pt x="492" y="615" on="1"/>
        <pt x="492" y="459" on="1"/>
        <pt x="492" y="355" on="0"/>
        <pt x="380" y="231" on="0"/>
        <pt x="292" y="224" on="1"/>
        <pt x="292" y="20" on="1"/>
        <pt x="292" y="-7" on="0"/>
        <pt x="270" y="-7" on="1"/>
        <pt x="250" y="-7" on="0"/>
        <pt x="250" y="20" on="1"/>
        <pt x="250" y="224" on="1"/>
        <pt x="160" y="230" on="0"/>
        <pt x="48" y="355" on="0"/>
        <pt x="48" y="459" on="1"/>
        <pt x="48" y="615" on="1"/>
        <pt x="48" y="643" on="0"/>
        <pt x="90" y="643" on="0"/>
        <pt x="90" y="615" on="1"/>
        <pt x="90" y="459" on="1"/>
        <pt x="90" y="373" on="0"/>
        <pt x="175" y="272" on="0"/>
        <pt x="250" y="266" on="1"/>
        <pt x="250" y="615" on="1"/>
        <pt x="250" y="643" on="0"/>
        <pt x="292" y="643" on="0"/>
        <pt x="292" y="615" on="1"/>
        <pt x="292" y="266" on="1"/>
        <pt x="367" y="273" on="0"/>
        <pt x="450" y="374" on="0"/>
        <pt x="450" y="459" on="1"/>
      </contour>
    </TTGlyph>
    <TTGlyph name="Q" xMin="65" yMin="-12" xMax="509" yMax="645">
      <contour>
        <pt x="371" y="603" on="0"/>
        <pt x="203" y="603" on="0"/>
        <pt x="107" y="500" on="0"/>
        <pt x="107" y="409" on="1"/>
        <pt x="107" y="227" on="1"/>
        <pt x="107" y="136" on="0"/>
        <pt x="203" y="33" on="0"/>
        <pt x="287" y="33" on="1"/>
        <pt x="356" y="33" on="0"/>
        <pt x="399" y="67" on="1"/>
        <pt x="341" y="124" on="1"/>
        <pt x="330" y="135" on="0"/>
        <pt x="330" y="144" on="1"/>
        <pt x="330" y="151" on="0"/>
        <pt x="342" y="165" on="0"/>
        <pt x="350" y="165" on="1"/>
        <pt x="360" y="165" on="0"/>
        <pt x="371" y="154" on="1"/>
        <pt x="429" y="95" on="1"/>
        <pt x="467" y="145" on="0"/>
        <pt x="467" y="227" on="1"/>
        <pt x="467" y="409" on="1"/>
        <pt x="467" y="500" on="0"/>
      </contour>
      <contour>
        <pt x="287" y="-9" on="1"/>
        <pt x="190" y="-9" on="0"/>
        <pt x="65" y="117" on="0"/>
        <pt x="65" y="227" on="1"/>
        <pt x="65" y="409" on="1"/>
        <pt x="65" y="519" on="0"/>
        <pt x="190" y="645" on="0"/>
        <pt x="384" y="645" on="0"/>
        <pt x="509" y="519" on="0"/>
        <pt x="509" y="409" on="1"/>
        <pt x="509" y="227" on="1"/>
        <pt x="509" y="128" on="0"/>
        <pt x="458" y="67" on="1"/>
        <pt x="496" y="29" on="1"/>
        <pt x="506" y="19" on="0"/>
        <pt x="506" y="8" on="1"/>
        <pt x="506" y="1" on="0"/>
        <pt x="495" y="-12" on="0"/>
        <pt x="479" y="-12" on="0"/>
        <pt x="466" y="-1" on="1"/>
        <pt x="429" y="37" on="1"/>
        <pt x="369" y="-9" on="0"/>
      </contour>
    </TTGlyph>
    <TTGlyph name="R" xMin="84" yMin="-7" xMax="494" yMax="636">
      <contour>
        <pt x="279" y="379" on="1"/>
        <pt x="369" y="379" on="0"/>
        <pt x="444" y="421" on="0"/>
        <pt x="444" y="486" on="1"/>
        <pt x="444" y="552" on="0"/>
        <pt x="369" y="594" on="0"/>
        <pt x="279" y="594" on="1"/>
        <pt x="126" y="594" on="1"/>
        <pt x="126" y="379" on="1"/>
      </contour>
      <contour>
        <pt x="126" y="20" on="1"/>
        <pt x="126" y="-7" on="0"/>
        <pt x="104" y="-7" on="1"/>
        <pt x="84" y="-7" on="0"/>
        <pt x="84" y="20" on="1"/>
        <pt x="84" y="605" on="1"/>
        <pt x="84" y="636" on="0"/>
        <pt x="103" y="636" on="1"/>
        <pt x="279" y="636" on="1"/>
        <pt x="382" y="636" on="0"/>
        <pt x="486" y="572" on="0"/>
        <pt x="486" y="486" on="1"/>
        <pt x="486" y="423" on="0"/>
        <pt x="422" y="349" on="0"/>
        <pt x="363" y="340" on="1"/>
        <pt x="396" y="314" on="0"/>
        <pt x="461" y="157" on="0"/>
        <pt x="494" y="32" on="0"/>
        <pt x="494" y="20" on="1"/>
        <pt x="494" y="-7" on="0"/>
        <pt x="472" y="-7" on="1"/>
        <pt x="463" y="-7" on="0"/>
        <pt x="452" y="9" on="0"/>
        <pt x="452" y="20" on="1"/>
        <pt x="452" y="34" on="0"/>
        <pt x="424" y="148" on="0"/>
        <pt x="356" y="304" on="0"/>
        <pt x="314" y="337" on="1"/>
        <pt x="126" y="337" on="1"/>
      </contour>
    </TTGlyph>
    <TTGlyph name="Racute" xMin="84" yMin="-7" xMax="494" yMax="819">
      <contour>
        <pt x="330" y="799" on="1"/>
        <pt x="330" y="791" on="0"/>
        <pt x="319" y="778" on="1"/>
        <pt x="249" y="709" on="1"/>
        <pt x="239" y="698" on="0"/>
        <pt x="229" y="698" on="1"/>
        <pt x="221" y="698" on="0"/>
        <pt x="208" y="711" on="0"/>
        <pt x="208" y="717" on="1"/>
        <pt x="208" y="727" on="0"/>
        <pt x="220" y="739" on="1"/>
        <pt x="289" y="808" on="1"/>
        <pt x="299" y="819" on="0"/>
        <pt x="310" y="819" on="1"/>
        <pt x="318" y="819" on="0"/>
        <pt x="330" y="805" on="0"/>
      </contour>
      <contour>
        <pt x="279" y="379" on="1"/>
        <pt x="369" y="379" on="0"/>
        <pt x="444" y="421" on="0"/>
        <pt x="444" y="486" on="1"/>
        <pt x="444" y="552" on="0"/>
        <pt x="369" y="594" on="0"/>
        <pt x="279" y="594" on="1"/>
        <pt x="126" y="594" on="1"/>
        <pt x="126" y="379" on="1"/>
      </contour>
      <contour>
        <pt x="126" y="20" on="1"/>
        <pt x="126" y="-7" on="0"/>
        <pt x="104" y="-7" on="1"/>
        <pt x="84" y="-7" on="0"/>
        <pt x="84" y="20" on="1"/>
        <pt x="84" y="605" on="1"/>
        <pt x="84" y="636" on="0"/>
        <pt x="103" y="636" on="1"/>
        <pt x="279" y="636" on="1"/>
        <pt x="382" y="636" on="0"/>
        <pt x="486" y="572" on="0"/>
        <pt x="486" y="486" on="1"/>
        <pt x="486" y="423" on="0"/>
        <pt x="422" y="349" on="0"/>
        <pt x="363" y="340" on="1"/>
        <pt x="396" y="314" on="0"/>
        <pt x="461" y="157" on="0"/>
        <pt x="494" y="32" on="0"/>
        <pt x="494" y="20" on="1"/>
        <pt x="494" y="-7" on="0"/>
        <pt x="472" y="-7" on="1"/>
        <pt x="463" y="-7" on="0"/>
        <pt x="452" y="9" on="0"/>
        <pt x="452" y="20" on="1"/>
        <pt x="452" y="34" on="0"/>
        <pt x="424" y="148" on="0"/>
        <pt x="356" y="304" on="0"/>
        <pt x="314" y="337" on="1"/>
        <pt x="126" y="337" on="1"/>
      </contour>
    </TTGlyph>
    <TTGlyph name="Rcaron" xMin="84" yMin="-7" xMax="494" yMax="812">
      <contour>
        <pt x="296" y="678" on="1"/>
        <pt x="244" y="678" on="1"/>
        <pt x="142" y="785" on="1"/>
        <pt x="136" y="791" on="0"/>
        <pt x="136" y="797" on="1"/>
        <pt x="136" y="812" on="0"/>
        <pt x="154" y="812" on="1"/>
        <pt x="164" y="812" on="0"/>
        <pt x="183" y="796" on="1"/>
        <pt x="270" y="724" on="1"/>
        <pt x="357" y="796" on="1"/>
        <pt x="376" y="812" on="0"/>
        <pt x="386" y="812" on="1"/>
        <pt x="404" y="812" on="0"/>
        <pt x="404" y="797" on="1"/>
        <pt x="404" y="791" on="0"/>
        <pt x="398" y="785" on="1"/>
      </contour>
      <contour>
        <pt x="279" y="379" on="1"/>
        <pt x="369" y="379" on="0"/>
        <pt x="444" y="421" on="0"/>
        <pt x="444" y="486" on="1"/>
        <pt x="444" y="552" on="0"/>
        <pt x="369" y="594" on="0"/>
        <pt x="279" y="594" on="1"/>
        <pt x="126" y="594" on="1"/>
        <pt x="126" y="379" on="1"/>
      </contour>
      <contour>
        <pt x="126" y="20" on="1"/>
        <pt x="126" y="-7" on="0"/>
        <pt x="104" y="-7" on="1"/>
        <pt x="84" y="-7" on="0"/>
        <pt x="84" y="20" on="1"/>
        <pt x="84" y="605" on="1"/>
        <pt x="84" y="636" on="0"/>
        <pt x="103" y="636" on="1"/>
        <pt x="279" y="636" on="1"/>
        <pt x="382" y="636" on="0"/>
        <pt x="486" y="572" on="0"/>
        <pt x="486" y="486" on="1"/>
        <pt x="486" y="423" on="0"/>
        <pt x="422" y="349" on="0"/>
        <pt x="363" y="340" on="1"/>
        <pt x="396" y="314" on="0"/>
        <pt x="461" y="157" on="0"/>
        <pt x="494" y="32" on="0"/>
        <pt x="494" y="20" on="1"/>
        <pt x="494" y="-7" on="0"/>
        <pt x="472" y="-7" on="1"/>
        <pt x="463" y="-7" on="0"/>
        <pt x="452" y="9" on="0"/>
        <pt x="452" y="20" on="1"/>
        <pt x="452" y="34" on="0"/>
        <pt x="424" y="148" on="0"/>
        <pt x="356" y="304" on="0"/>
        <pt x="314" y="337" on="1"/>
        <pt x="126" y="337" on="1"/>
      </contour>
    </TTGlyph>
    <TTGlyph name="Rcommaaccent" xMin="84" yMin="-141" xMax="494" yMax="636">
      <contour>
        <pt x="294" y="0" on="1"/>
        <pt x="304" y="0" on="0"/>
        <pt x="330" y="-10" on="0"/>
        <pt x="330" y="-20" on="1"/>
        <pt x="330" y="-29" on="0"/>
        <pt x="326" y="-37" on="1"/>
        <pt x="284" y="-120" on="1"/>
        <pt x="275" y="-141" on="0"/>
        <pt x="264" y="-141" on="1"/>
        <pt x="247" y="-141" on="0"/>
        <pt x="247" y="-121" on="1"/>
        <pt x="247" y="-115" on="0"/>
        <pt x="250" y="-106" on="1"/>
        <pt x="274" y="-20" on="1"/>
        <pt x="280" y="0" on="0"/>
      </contour>
      <contour>
        <pt x="279" y="379" on="1"/>
        <pt x="369" y="379" on="0"/>
        <pt x="444" y="421" on="0"/>
        <pt x="444" y="486" on="1"/>
        <pt x="444" y="552" on="0"/>
        <pt x="369" y="594" on="0"/>
        <pt x="279" y="594" on="1"/>
        <pt x="126" y="594" on="1"/>
        <pt x="126" y="379" on="1"/>
      </contour>
      <contour>
        <pt x="126" y="20" on="1"/>
        <pt x="126" y="-7" on="0"/>
        <pt x="104" y="-7" on="1"/>
        <pt x="84" y="-7" on="0"/>
        <pt x="84" y="20" on="1"/>
        <pt x="84" y="605" on="1"/>
        <pt x="84" y="636" on="0"/>
        <pt x="103" y="636" on="1"/>
        <pt x="279" y="636" on="1"/>
        <pt x="382" y="636" on="0"/>
        <pt x="486" y="572" on="0"/>
        <pt x="486" y="486" on="1"/>
        <pt x="486" y="423" on="0"/>
        <pt x="422" y="349" on="0"/>
        <pt x="363" y="340" on="1"/>
        <pt x="396" y="314" on="0"/>
        <pt x="461" y="157" on="0"/>
        <pt x="494" y="32" on="0"/>
        <pt x="494" y="20" on="1"/>
        <pt x="494" y="-7" on="0"/>
        <pt x="472" y="-7" on="1"/>
        <pt x="463" y="-7" on="0"/>
        <pt x="452" y="9" on="0"/>
        <pt x="452" y="20" on="1"/>
        <pt x="452" y="34" on="0"/>
        <pt x="424" y="148" on="0"/>
        <pt x="356" y="304" on="0"/>
        <pt x="314" y="337" on="1"/>
        <pt x="126" y="337" on="1"/>
      </contour>
    </TTGlyph>
    <TTGlyph name="Rho" xMin="84" yMin="-7" xMax="486" yMax="636">
      <component glyphName="P" x="0" y="0" flags="0x1004"/>
    </TTGlyph>
    <TTGlyph name="S" xMin="62" yMin="-8" xMax="508" yMax="644">
      <contour>
        <pt x="104" y="484" on="1"/>
        <pt x="104" y="442" on="0"/>
        <pt x="141" y="383" on="0"/>
        <pt x="168" y="376" on="1"/>
        <pt x="385" y="324" on="1"/>
        <pt x="508" y="293" on="0"/>
        <pt x="508" y="154" on="1"/>
        <pt x="508" y="88" on="0"/>
        <pt x="433" y="-8" on="0"/>
        <pt x="347" y="-8" on="1"/>
        <pt x="271" y="-8" on="1"/>
        <pt x="219" y="-8" on="0"/>
        <pt x="150" y="4" on="0"/>
        <pt x="90" y="40" on="0"/>
        <pt x="62" y="112" on="0"/>
        <pt x="62" y="167" on="1"/>
        <pt x="62" y="195" on="0"/>
        <pt x="85" y="195" on="1"/>
        <pt x="105" y="195" on="0"/>
        <pt x="105" y="167" on="1"/>
        <pt x="105" y="81" on="0"/>
        <pt x="177" y="34" on="0"/>
        <pt x="271" y="34" on="1"/>
        <pt x="364" y="34" on="1"/>
        <pt x="417" y="34" on="0"/>
        <pt x="466" y="110" on="0"/>
        <pt x="466" y="154" on="1"/>
        <pt x="466" y="205" on="0"/>
        <pt x="425" y="271" on="0"/>
        <pt x="402" y="276" on="1"/>
        <pt x="186" y="329" on="1"/>
        <pt x="118" y="345" on="0"/>
        <pt x="62" y="417" on="0"/>
        <pt x="62" y="484" on="1"/>
        <pt x="62" y="550" on="0"/>
        <pt x="138" y="644" on="0"/>
        <pt x="224" y="644" on="1"/>
        <pt x="300" y="644" on="1"/>
        <pt x="352" y="644" on="0"/>
        <pt x="420" y="632" on="0"/>
        <pt x="480" y="597" on="0"/>
        <pt x="508" y="526" on="0"/>
        <pt x="508" y="471" on="1"/>
        <pt x="508" y="443" on="0"/>
        <pt x="486" y="443" on="1"/>
        <pt x="465" y="443" on="0"/>
        <pt x="465" y="471" on="1"/>
        <pt x="465" y="516" on="0"/>
        <pt x="447" y="570" on="0"/>
        <pt x="400" y="595" on="0"/>
        <pt x="348" y="602" on="0"/>
        <pt x="300" y="602" on="1"/>
        <pt x="206" y="602" on="1"/>
        <pt x="153" y="602" on="0"/>
        <pt x="104" y="527" on="0"/>
      </contour>
    </TTGlyph>
    <TTGlyph name="Sacute" xMin="62" yMin="-8" xMax="508" yMax="819">
      <contour>
        <pt x="363" y="799" on="1"/>
        <pt x="363" y="791" on="0"/>
        <pt x="352" y="778" on="1"/>
        <pt x="282" y="709" on="1"/>
        <pt x="272" y="698" on="0"/>
        <pt x="262" y="698" on="1"/>
        <pt x="254" y="698" on="0"/>
        <pt x="241" y="711" on="0"/>
        <pt x="241" y="717" on="1"/>
        <pt x="241" y="727" on="0"/>
        <pt x="253" y="739" on="1"/>
        <pt x="322" y="808" on="1"/>
        <pt x="332" y="819" on="0"/>
        <pt x="343" y="819" on="1"/>
        <pt x="351" y="819" on="0"/>
        <pt x="363" y="805" on="0"/>
      </contour>
      <contour>
        <pt x="104" y="484" on="1"/>
        <pt x="104" y="442" on="0"/>
        <pt x="141" y="383" on="0"/>
        <pt x="168" y="376" on="1"/>
        <pt x="385" y="324" on="1"/>
        <pt x="508" y="293" on="0"/>
        <pt x="508" y="154" on="1"/>
        <pt x="508" y="88" on="0"/>
        <pt x="433" y="-8" on="0"/>
        <pt x="347" y="-8" on="1"/>
        <pt x="271" y="-8" on="1"/>
        <pt x="219" y="-8" on="0"/>
        <pt x="150" y="4" on="0"/>
        <pt x="90" y="40" on="0"/>
        <pt x="62" y="112" on="0"/>
        <pt x="62" y="167" on="1"/>
        <pt x="62" y="195" on="0"/>
        <pt x="85" y="195" on="1"/>
        <pt x="105" y="195" on="0"/>
        <pt x="105" y="167" on="1"/>
        <pt x="105" y="81" on="0"/>
        <pt x="177" y="34" on="0"/>
        <pt x="271" y="34" on="1"/>
        <pt x="364" y="34" on="1"/>
        <pt x="417" y="34" on="0"/>
        <pt x="466" y="110" on="0"/>
        <pt x="466" y="154" on="1"/>
        <pt x="466" y="205" on="0"/>
        <pt x="425" y="271" on="0"/>
        <pt x="402" y="276" on="1"/>
        <pt x="186" y="329" on="1"/>
        <pt x="118" y="345" on="0"/>
        <pt x="62" y="417" on="0"/>
        <pt x="62" y="484" on="1"/>
        <pt x="62" y="550" on="0"/>
        <pt x="138" y="644" on="0"/>
        <pt x="224" y="644" on="1"/>
        <pt x="300" y="644" on="1"/>
        <pt x="352" y="644" on="0"/>
        <pt x="420" y="632" on="0"/>
        <pt x="480" y="597" on="0"/>
        <pt x="508" y="526" on="0"/>
        <pt x="508" y="471" on="1"/>
        <pt x="508" y="443" on="0"/>
        <pt x="486" y="443" on="1"/>
        <pt x="465" y="443" on="0"/>
        <pt x="465" y="471" on="1"/>
        <pt x="465" y="516" on="0"/>
        <pt x="447" y="570" on="0"/>
        <pt x="400" y="595" on="0"/>
        <pt x="348" y="602" on="0"/>
        <pt x="300" y="602" on="1"/>
        <pt x="206" y="602" on="1"/>
        <pt x="153" y="602" on="0"/>
        <pt x="104" y="527" on="0"/>
      </contour>
    </TTGlyph>
    <TTGlyph name="Scaron" xMin="62" yMin="-8" xMax="508" yMax="812">
      <contour>
        <pt x="310" y="678" on="1"/>
        <pt x="258" y="678" on="1"/>
        <pt x="156" y="785" on="1"/>
        <pt x="150" y="791" on="0"/>
        <pt x="150" y="797" on="1"/>
        <pt x="150" y="812" on="0"/>
        <pt x="168" y="812" on="1"/>
        <pt x="178" y="812" on="0"/>
        <pt x="197" y="796" on="1"/>
        <pt x="284" y="724" on="1"/>
        <pt x="371" y="796" on="1"/>
        <pt x="390" y="812" on="0"/>
        <pt x="400" y="812" on="1"/>
        <pt x="418" y="812" on="0"/>
        <pt x="418" y="797" on="1"/>
        <pt x="418" y="791" on="0"/>
        <pt x="412" y="785" on="1"/>
      </contour>
      <contour>
        <pt x="104" y="484" on="1"/>
        <pt x="104" y="442" on="0"/>
        <pt x="141" y="383" on="0"/>
        <pt x="168" y="376" on="1"/>
        <pt x="385" y="324" on="1"/>
        <pt x="508" y="293" on="0"/>
        <pt x="508" y="154" on="1"/>
        <pt x="508" y="88" on="0"/>
        <pt x="433" y="-8" on="0"/>
        <pt x="347" y="-8" on="1"/>
        <pt x="271" y="-8" on="1"/>
        <pt x="219" y="-8" on="0"/>
        <pt x="150" y="4" on="0"/>
        <pt x="90" y="40" on="0"/>
        <pt x="62" y="112" on="0"/>
        <pt x="62" y="167" on="1"/>
        <pt x="62" y="195" on="0"/>
        <pt x="85" y="195" on="1"/>
        <pt x="105" y="195" on="0"/>
        <pt x="105" y="167" on="1"/>
        <pt x="105" y="81" on="0"/>
        <pt x="177" y="34" on="0"/>
        <pt x="271" y="34" on="1"/>
        <pt x="364" y="34" on="1"/>
        <pt x="417" y="34" on="0"/>
        <pt x="466" y="110" on="0"/>
        <pt x="466" y="154" on="1"/>
        <pt x="466" y="205" on="0"/>
        <pt x="425" y="271" on="0"/>
        <pt x="402" y="276" on="1"/>
        <pt x="186" y="329" on="1"/>
        <pt x="118" y="345" on="0"/>
        <pt x="62" y="417" on="0"/>
        <pt x="62" y="484" on="1"/>
        <pt x="62" y="550" on="0"/>
        <pt x="138" y="644" on="0"/>
        <pt x="224" y="644" on="1"/>
        <pt x="300" y="644" on="1"/>
        <pt x="352" y="644" on="0"/>
        <pt x="420" y="632" on="0"/>
        <pt x="480" y="597" on="0"/>
        <pt x="508" y="526" on="0"/>
        <pt x="508" y="471" on="1"/>
        <pt x="508" y="443" on="0"/>
        <pt x="486" y="443" on="1"/>
        <pt x="465" y="443" on="0"/>
        <pt x="465" y="471" on="1"/>
        <pt x="465" y="516" on="0"/>
        <pt x="447" y="570" on="0"/>
        <pt x="400" y="595" on="0"/>
        <pt x="348" y="602" on="0"/>
        <pt x="300" y="602" on="1"/>
        <pt x="206" y="602" on="1"/>
        <pt x="153" y="602" on="0"/>
        <pt x="104" y="527" on="0"/>
      </contour>
    </TTGlyph>
    <TTGlyph name="Scedilla" xMin="62" yMin="-165" xMax="508" yMax="644">
      <contour>
        <pt x="200" y="-120" on="1"/>
        <pt x="200" y="-107" on="0"/>
        <pt x="210" y="-107" on="1"/>
        <pt x="213" y="-107" on="0"/>
        <pt x="259" y="-125" on="0"/>
        <pt x="276" y="-125" on="1"/>
        <pt x="323" y="-125" on="0"/>
        <pt x="323" y="-94" on="1"/>
        <pt x="323" y="-78" on="0"/>
        <pt x="264" y="-31" on="0"/>
        <pt x="257" y="-8" on="1"/>
        <pt x="209" y="-7" on="0"/>
        <pt x="144" y="7" on="0"/>
        <pt x="89" y="43" on="0"/>
        <pt x="62" y="114" on="0"/>
        <pt x="62" y="167" on="1"/>
        <pt x="62" y="195" on="0"/>
        <pt x="85" y="195" on="1"/>
        <pt x="105" y="195" on="0"/>
        <pt x="105" y="167" on="1"/>
        <pt x="105" y="81" on="0"/>
        <pt x="177" y="34" on="0"/>
        <pt x="271" y="34" on="1"/>
        <pt x="364" y="34" on="1"/>
        <pt x="417" y="34" on="0"/>
        <pt x="466" y="110" on="0"/>
        <pt x="466" y="154" on="1"/>
        <pt x="466" y="205" on="0"/>
        <pt x="425" y="271" on="0"/>
        <pt x="402" y="276" on="1"/>
        <pt x="186" y="329" on="1"/>
        <pt x="118" y="346" on="0"/>
        <pt x="62" y="417" on="0"/>
        <pt x="62" y="484" on="1"/>
        <pt x="62" y="550" on="0"/>
        <pt x="138" y="644" on="0"/>
        <pt x="224" y="644" on="1"/>
        <pt x="300" y="644" on="1"/>
        <pt x="352" y="644" on="0"/>
        <pt x="420" y="632" on="0"/>
        <pt x="480" y="597" on="0"/>
        <pt x="508" y="526" on="0"/>
        <pt x="508" y="471" on="1"/>
        <pt x="508" y="443" on="0"/>
        <pt x="486" y="443" on="1"/>
        <pt x="465" y="443" on="0"/>
        <pt x="465" y="471" on="1"/>
        <pt x="465" y="516" on="0"/>
        <pt x="447" y="570" on="0"/>
        <pt x="400" y="595" on="0"/>
        <pt x="348" y="602" on="0"/>
        <pt x="300" y="602" on="1"/>
        <pt x="206" y="602" on="1"/>
        <pt x="153" y="602" on="0"/>
        <pt x="104" y="527" on="0"/>
        <pt x="104" y="484" on="1"/>
        <pt x="104" y="442" on="0"/>
        <pt x="141" y="383" on="0"/>
        <pt x="168" y="376" on="1"/>
        <pt x="385" y="324" on="1"/>
        <pt x="508" y="293" on="0"/>
        <pt x="508" y="154" on="1"/>
        <pt x="508" y="88" on="0"/>
        <pt x="433" y="-8" on="0"/>
        <pt x="347" y="-8" on="1"/>
        <pt x="301" y="-8" on="1"/>
        <pt x="306" y="-18" on="0"/>
        <pt x="365" y="-63" on="0"/>
        <pt x="365" y="-89" on="1"/>
        <pt x="365" y="-122" on="0"/>
        <pt x="313" y="-165" on="0"/>
        <pt x="274" y="-165" on="1"/>
        <pt x="251" y="-165" on="0"/>
        <pt x="200" y="-144" on="0"/>
      </contour>
    </TTGlyph>
    <TTGlyph name="Scircumflex" xMin="62" yMin="-8" xMax="508" yMax="819">
      <contour>
        <pt x="267" y="773" on="1"/>
        <pt x="264" y="773" on="1"/>
        <pt x="172" y="669" on="1"/>
        <pt x="156" y="651" on="0"/>
        <pt x="148" y="651" on="1"/>
        <pt x="130" y="651" on="0"/>
        <pt x="130" y="669" on="1"/>
        <pt x="130" y="678" on="0"/>
        <pt x="134" y="682" on="1"/>
        <pt x="238" y="819" on="1"/>
        <pt x="293" y="819" on="1"/>
        <pt x="399" y="682" on="1"/>
        <pt x="403" y="677" on="0"/>
        <pt x="403" y="669" on="1"/>
        <pt x="403" y="651" on="0"/>
        <pt x="385" y="651" on="1"/>
        <pt x="381" y="651" on="0"/>
        <pt x="374" y="654" on="0"/>
        <pt x="371" y="657" on="0"/>
        <pt x="363" y="667" on="0"/>
        <pt x="361" y="669" on="1"/>
      </contour>
      <contour>
        <pt x="104" y="484" on="1"/>
        <pt x="104" y="442" on="0"/>
        <pt x="141" y="383" on="0"/>
        <pt x="168" y="376" on="1"/>
        <pt x="385" y="324" on="1"/>
        <pt x="508" y="293" on="0"/>
        <pt x="508" y="154" on="1"/>
        <pt x="508" y="88" on="0"/>
        <pt x="433" y="-8" on="0"/>
        <pt x="347" y="-8" on="1"/>
        <pt x="271" y="-8" on="1"/>
        <pt x="219" y="-8" on="0"/>
        <pt x="150" y="4" on="0"/>
        <pt x="90" y="40" on="0"/>
        <pt x="62" y="112" on="0"/>
        <pt x="62" y="167" on="1"/>
        <pt x="62" y="195" on="0"/>
        <pt x="85" y="195" on="1"/>
        <pt x="105" y="195" on="0"/>
        <pt x="105" y="167" on="1"/>
        <pt x="105" y="81" on="0"/>
        <pt x="177" y="34" on="0"/>
        <pt x="271" y="34" on="1"/>
        <pt x="364" y="34" on="1"/>
        <pt x="417" y="34" on="0"/>
        <pt x="466" y="110" on="0"/>
        <pt x="466" y="154" on="1"/>
        <pt x="466" y="205" on="0"/>
        <pt x="425" y="271" on="0"/>
        <pt x="402" y="276" on="1"/>
        <pt x="186" y="329" on="1"/>
        <pt x="118" y="345" on="0"/>
        <pt x="62" y="417" on="0"/>
        <pt x="62" y="484" on="1"/>
        <pt x="62" y="550" on="0"/>
        <pt x="138" y="644" on="0"/>
        <pt x="224" y="644" on="1"/>
        <pt x="300" y="644" on="1"/>
        <pt x="352" y="644" on="0"/>
        <pt x="420" y="632" on="0"/>
        <pt x="480" y="597" on="0"/>
        <pt x="508" y="526" on="0"/>
        <pt x="508" y="471" on="1"/>
        <pt x="508" y="443" on="0"/>
        <pt x="486" y="443" on="1"/>
        <pt x="465" y="443" on="0"/>
        <pt x="465" y="471" on="1"/>
        <pt x="465" y="516" on="0"/>
        <pt x="447" y="570" on="0"/>
        <pt x="400" y="595" on="0"/>
        <pt x="348" y="602" on="0"/>
        <pt x="300" y="602" on="1"/>
        <pt x="206" y="602" on="1"/>
        <pt x="153" y="602" on="0"/>
        <pt x="104" y="527" on="0"/>
      </contour>
    </TTGlyph>
    <TTGlyph name="Scommaaccent" xMin="62" yMin="-205" xMax="508" yMax="644">
      <contour>
        <pt x="292" y="-64" on="1"/>
        <pt x="302" y="-64" on="0"/>
        <pt x="328" y="-74" on="0"/>
        <pt x="328" y="-84" on="1"/>
        <pt x="328" y="-93" on="0"/>
        <pt x="324" y="-101" on="1"/>
        <pt x="282" y="-184" on="1"/>
        <pt x="273" y="-205" on="0"/>
        <pt x="262" y="-205" on="1"/>
        <pt x="245" y="-205" on="0"/>
        <pt x="245" y="-185" on="1"/>
        <pt x="245" y="-179" on="0"/>
        <pt x="248" y="-170" on="1"/>
        <pt x="272" y="-84" on="1"/>
        <pt x="278" y="-64" on="0"/>
      </contour>
      <contour>
        <pt x="104" y="484" on="1"/>
        <pt x="104" y="442" on="0"/>
        <pt x="141" y="383" on="0"/>
        <pt x="168" y="376" on="1"/>
        <pt x="385" y="324" on="1"/>
        <pt x="508" y="293" on="0"/>
        <pt x="508" y="154" on="1"/>
        <pt x="508" y="88" on="0"/>
        <pt x="433" y="-8" on="0"/>
        <pt x="347" y="-8" on="1"/>
        <pt x="271" y="-8" on="1"/>
        <pt x="219" y="-8" on="0"/>
        <pt x="150" y="4" on="0"/>
        <pt x="90" y="40" on="0"/>
        <pt x="62" y="112" on="0"/>
        <pt x="62" y="167" on="1"/>
        <pt x="62" y="195" on="0"/>
        <pt x="85" y="195" on="1"/>
        <pt x="105" y="195" on="0"/>
        <pt x="105" y="167" on="1"/>
        <pt x="105" y="81" on="0"/>
        <pt x="177" y="34" on="0"/>
        <pt x="271" y="34" on="1"/>
        <pt x="364" y="34" on="1"/>
        <pt x="417" y="34" on="0"/>
        <pt x="466" y="110" on="0"/>
        <pt x="466" y="154" on="1"/>
        <pt x="466" y="205" on="0"/>
        <pt x="425" y="271" on="0"/>
        <pt x="402" y="276" on="1"/>
        <pt x="186" y="329" on="1"/>
        <pt x="118" y="345" on="0"/>
        <pt x="62" y="417" on="0"/>
        <pt x="62" y="484" on="1"/>
        <pt x="62" y="550" on="0"/>
        <pt x="138" y="644" on="0"/>
        <pt x="224" y="644" on="1"/>
        <pt x="300" y="644" on="1"/>
        <pt x="352" y="644" on="0"/>
        <pt x="420" y="632" on="0"/>
        <pt x="480" y="597" on="0"/>
        <pt x="508" y="526" on="0"/>
        <pt x="508" y="471" on="1"/>
        <pt x="508" y="443" on="0"/>
        <pt x="486" y="443" on="1"/>
        <pt x="465" y="443" on="0"/>
        <pt x="465" y="471" on="1"/>
        <pt x="465" y="516" on="0"/>
        <pt x="447" y="570" on="0"/>
        <pt x="400" y="595" on="0"/>
        <pt x="348" y="602" on="0"/>
        <pt x="300" y="602" on="1"/>
        <pt x="206" y="602" on="1"/>
        <pt x="153" y="602" on="0"/>
        <pt x="104" y="527" on="0"/>
      </contour>
    </TTGlyph>
    <TTGlyph name="Shacyrillic" xMin="84" yMin="0" xMax="590" yMax="601">
      <contour>
        <pt x="84" y="0" on="1"/>
        <pt x="84" y="571" on="1"/>
        <pt x="84" y="601" on="0"/>
        <pt x="104" y="601" on="1"/>
        <pt x="126" y="601" on="0"/>
        <pt x="126" y="571" on="1"/>
        <pt x="126" y="42" on="1"/>
        <pt x="316" y="42" on="1"/>
        <pt x="316" y="571" on="1"/>
        <pt x="316" y="601" on="0"/>
        <pt x="336" y="601" on="1"/>
        <pt x="358" y="601" on="0"/>
        <pt x="358" y="571" on="1"/>
        <pt x="358" y="42" on="1"/>
        <pt x="548" y="42" on="1"/>
        <pt x="548" y="571" on="1"/>
        <pt x="548" y="601" on="0"/>
        <pt x="590" y="601" on="0"/>
        <pt x="590" y="571" on="1"/>
        <pt x="590" y="0" on="1"/>
      </contour>
    </TTGlyph>
    <TTGlyph name="Shchacyrillic" xMin="84" yMin="-92" xMax="648" yMax="601">
      <contour>
        <pt x="316" y="571" on="1"/>
        <pt x="316" y="601" on="0"/>
        <pt x="336" y="601" on="1"/>
        <pt x="358" y="601" on="0"/>
        <pt x="358" y="571" on="1"/>
        <pt x="358" y="42" on="1"/>
        <pt x="548" y="42" on="1"/>
        <pt x="548" y="571" on="1"/>
        <pt x="548" y="601" on="0"/>
        <pt x="590" y="601" on="0"/>
        <pt x="590" y="571" on="1"/>
        <pt x="590" y="42" on="1"/>
        <pt x="602" y="42" on="1"/>
        <pt x="648" y="42" on="0"/>
        <pt x="648" y="-10" on="1"/>
        <pt x="648" y="-62" on="1"/>
        <pt x="648" y="-92" on="0"/>
        <pt x="606" y="-92" on="0"/>
        <pt x="606" y="-62" on="1"/>
        <pt x="606" y="0" on="1"/>
        <pt x="84" y="0" on="1"/>
        <pt x="84" y="571" on="1"/>
        <pt x="84" y="601" on="0"/>
        <pt x="104" y="601" on="1"/>
        <pt x="126" y="601" on="0"/>
        <pt x="126" y="571" on="1"/>
        <pt x="126" y="42" on="1"/>
        <pt x="316" y="42" on="1"/>
      </contour>
    </TTGlyph>
    <TTGlyph name="Sigma" xMin="29" yMin="0" xMax="514" yMax="637">
      <contour>
        <pt x="29" y="617" on="1"/>
        <pt x="29" y="637" on="0"/>
        <pt x="55" y="637" on="1"/>
        <pt x="485" y="637" on="1"/>
        <pt x="514" y="637" on="0"/>
        <pt x="514" y="614" on="1"/>
        <pt x="514" y="595" on="0"/>
        <pt x="485" y="595" on="1"/>
        <pt x="95" y="595" on="1"/>
        <pt x="318" y="337" on="1"/>
        <pt x="328" y="324" on="0"/>
        <pt x="328" y="318" on="1"/>
        <pt x="328" y="310" on="0"/>
        <pt x="319" y="299" on="1"/>
        <pt x="95" y="42" on="1"/>
        <pt x="485" y="42" on="1"/>
        <pt x="514" y="42" on="0"/>
        <pt x="514" y="19" on="1"/>
        <pt x="514" y="0" on="0"/>
        <pt x="485" y="0" on="1"/>
        <pt x="49" y="0" on="1"/>
        <pt x="41" y="0" on="0"/>
        <pt x="29" y="11" on="0"/>
        <pt x="29" y="29" on="0"/>
        <pt x="38" y="40" on="1"/>
        <pt x="279" y="318" on="1"/>
        <pt x="38" y="597" on="1"/>
        <pt x="29" y="606" on="0"/>
      </contour>
    </TTGlyph>
    <TTGlyph name="Softsigncyrillic" xMin="84" yMin="-7" xMax="486" yMax="636">
      <contour>
        <pt x="279" y="461" on="1"/>
        <pt x="369" y="461" on="0"/>
        <pt x="486" y="322" on="0"/>
        <pt x="486" y="227" on="1"/>
        <pt x="486" y="131" on="0"/>
        <pt x="370" y="-7" on="0"/>
        <pt x="279" y="-7" on="1"/>
        <pt x="103" y="-7" on="1"/>
        <pt x="84" y="-7" on="0"/>
        <pt x="84" y="24" on="1"/>
        <pt x="84" y="609" on="1"/>
        <pt x="84" y="636" on="0"/>
        <pt x="104" y="636" on="1"/>
        <pt x="126" y="636" on="0"/>
        <pt x="126" y="609" on="1"/>
        <pt x="126" y="461" on="1"/>
      </contour>
      <contour>
        <pt x="279" y="419" on="1"/>
        <pt x="126" y="419" on="1"/>
        <pt x="126" y="35" on="1"/>
        <pt x="279" y="35" on="1"/>
        <pt x="357" y="35" on="0"/>
        <pt x="444" y="150" on="0"/>
        <pt x="444" y="304" on="0"/>
        <pt x="357" y="419" on="0"/>
      </contour>
    </TTGlyph>
    <TTGlyph name="T" xMin="26" yMin="-7" xMax="433" yMax="636">
      <contour>
        <pt x="405" y="636" on="1"/>
        <pt x="433" y="636" on="0"/>
        <pt x="433" y="614" on="1"/>
        <pt x="433" y="594" on="0"/>
        <pt x="405" y="594" on="1"/>
        <pt x="251" y="594" on="1"/>
        <pt x="251" y="20" on="1"/>
        <pt x="251" y="-7" on="0"/>
        <pt x="229" y="-7" on="1"/>
        <pt x="209" y="-7" on="0"/>
        <pt x="209" y="20" on="1"/>
        <pt x="209" y="594" on="1"/>
        <pt x="54" y="594" on="1"/>
        <pt x="26" y="594" on="0"/>
        <pt x="26" y="636" on="0"/>
        <pt x="54" y="636" on="1"/>
      </contour>
    </TTGlyph>
    <TTGlyph name="Tau" xMin="26" yMin="-7" xMax="433" yMax="636">
      <component glyphName="T" x="0" y="0" flags="0x1004"/>
    </TTGlyph>
    <TTGlyph name="Tbar" xMin="27" yMin="-7" xMax="434" yMax="636">
      <contour>
        <pt x="110" y="318" on="1"/>
        <pt x="84" y="318" on="0"/>
        <pt x="84" y="340" on="1"/>
        <pt x="84" y="361" on="0"/>
        <pt x="110" y="361" on="1"/>
        <pt x="210" y="361" on="1"/>
        <pt x="210" y="594" on="1"/>
        <pt x="55" y="594" on="1"/>
        <pt x="27" y="594" on="0"/>
        <pt x="27" y="636" on="0"/>
        <pt x="55" y="636" on="1"/>
        <pt x="406" y="636" on="1"/>
        <pt x="434" y="636" on="0"/>
        <pt x="434" y="614" on="1"/>
        <pt x="434" y="594" on="0"/>
        <pt x="406" y="594" on="1"/>
        <pt x="252" y="594" on="1"/>
        <pt x="252" y="361" on="1"/>
        <pt x="355" y="361" on="1"/>
        <pt x="384" y="361" on="0"/>
        <pt x="384" y="338" on="1"/>
        <pt x="384" y="318" on="0"/>
        <pt x="355" y="318" on="1"/>
        <pt x="252" y="318" on="1"/>
        <pt x="252" y="20" on="1"/>
        <pt x="252" y="-7" on="0"/>
        <pt x="230" y="-7" on="1"/>
        <pt x="210" y="-7" on="0"/>
        <pt x="210" y="20" on="1"/>
        <pt x="210" y="318" on="1"/>
      </contour>
    </TTGlyph>
    <TTGlyph name="Tcaron" xMin="26" yMin="-7" xMax="433" yMax="812">
      <contour>
        <pt x="258" y="678" on="1"/>
        <pt x="206" y="678" on="1"/>
        <pt x="104" y="785" on="1"/>
        <pt x="98" y="791" on="0"/>
        <pt x="98" y="797" on="1"/>
        <pt x="98" y="812" on="0"/>
        <pt x="116" y="812" on="1"/>
        <pt x="126" y="812" on="0"/>
        <pt x="145" y="796" on="1"/>
        <pt x="232" y="724" on="1"/>
        <pt x="319" y="796" on="1"/>
        <pt x="338" y="812" on="0"/>
        <pt x="348" y="812" on="1"/>
        <pt x="366" y="812" on="0"/>
        <pt x="366" y="797" on="1"/>
        <pt x="366" y="791" on="0"/>
        <pt x="360" y="785" on="1"/>
      </contour>
      <contour>
        <pt x="405" y="636" on="1"/>
        <pt x="433" y="636" on="0"/>
        <pt x="433" y="614" on="1"/>
        <pt x="433" y="594" on="0"/>
        <pt x="405" y="594" on="1"/>
        <pt x="251" y="594" on="1"/>
        <pt x="251" y="20" on="1"/>
        <pt x="251" y="-7" on="0"/>
        <pt x="229" y="-7" on="1"/>
        <pt x="209" y="-7" on="0"/>
        <pt x="209" y="20" on="1"/>
        <pt x="209" y="594" on="1"/>
        <pt x="54" y="594" on="1"/>
        <pt x="26" y="594" on="0"/>
        <pt x="26" y="636" on="0"/>
        <pt x="54" y="636" on="1"/>
      </contour>
    </TTGlyph>
    <TTGlyph name="Tcommaaccent" xMin="26" yMin="-165" xMax="433" yMax="636">
      <contour>
        <pt x="251" y="15" on="1"/>
        <pt x="251" y="-3" on="0"/>
        <pt x="273" y="-29" on="0"/>
        <pt x="298" y="-43" on="0"/>
        <pt x="320" y="-70" on="0"/>
        <pt x="320" y="-89" on="1"/>
        <pt x="320" y="-122" on="0"/>
        <pt x="268" y="-165" on="0"/>
        <pt x="229" y="-165" on="1"/>
        <pt x="206" y="-165" on="0"/>
        <pt x="155" y="-144" on="0"/>
        <pt x="155" y="-120" on="1"/>
        <pt x="155" y="-107" on="0"/>
        <pt x="165" y="-107" on="1"/>
        <pt x="168" y="-107" on="0"/>
        <pt x="214" y="-125" on="0"/>
        <pt x="231" y="-125" on="1"/>
        <pt x="278" y="-125" on="0"/>
        <pt x="278" y="-94" on="1"/>
        <pt x="278" y="-82" on="0"/>
        <pt x="256" y="-59" on="0"/>
        <pt x="231" y="-43" on="0"/>
        <pt x="209" y="-8" on="0"/>
        <pt x="209" y="15" on="1"/>
        <pt x="209" y="594" on="1"/>
        <pt x="54" y="594" on="1"/>
        <pt x="26" y="594" on="0"/>
        <pt x="26" y="636" on="0"/>
        <pt x="54" y="636" on="1"/>
        <pt x="405" y="636" on="1"/>
        <pt x="433" y="636" on="0"/>
        <pt x="433" y="614" on="1"/>
        <pt x="433" y="594" on="0"/>
        <pt x="405" y="594" on="1"/>
        <pt x="251" y="594" on="1"/>
      </contour>
    </TTGlyph>
    <TTGlyph name="Tecyrillic" xMin="26" yMin="-7" xMax="433" yMax="636">
      <component glyphName="T" x="0" y="0" flags="0x1004"/>
    </TTGlyph>
    <TTGlyph name="Theta" xMin="65" yMin="-9" xMax="509" yMax="645">
      <contour>
        <pt x="203" y="296" on="1"/>
        <pt x="177" y="296" on="0"/>
        <pt x="177" y="318" on="1"/>
        <pt x="177" y="339" on="0"/>
        <pt x="203" y="339" on="1"/>
        <pt x="368" y="339" on="1"/>
        <pt x="397" y="339" on="0"/>
        <pt x="397" y="318" on="1"/>
        <pt x="397" y="309" on="0"/>
        <pt x="381" y="296" on="0"/>
        <pt x="368" y="296" on="1"/>
      </contour>
      <contour>
        <pt x="384" y="-9" on="0"/>
        <pt x="190" y="-9" on="0"/>
        <pt x="65" y="117" on="0"/>
        <pt x="65" y="227" on="1"/>
        <pt x="65" y="409" on="1"/>
        <pt x="65" y="519" on="0"/>
        <pt x="190" y="645" on="0"/>
        <pt x="384" y="645" on="0"/>
        <pt x="509" y="519" on="0"/>
        <pt x="509" y="409" on="1"/>
        <pt x="509" y="227" on="1"/>
        <pt x="509" y="117" on="0"/>
      </contour>
      <contour>
        <pt x="371" y="603" on="0"/>
        <pt x="203" y="603" on="0"/>
        <pt x="107" y="500" on="0"/>
        <pt x="107" y="409" on="1"/>
        <pt x="107" y="227" on="1"/>
        <pt x="107" y="136" on="0"/>
        <pt x="203" y="33" on="0"/>
        <pt x="371" y="33" on="0"/>
        <pt x="467" y="136" on="0"/>
        <pt x="467" y="227" on="1"/>
        <pt x="467" y="409" on="1"/>
        <pt x="467" y="500" on="0"/>
      </contour>
    </TTGlyph>
    <TTGlyph name="Thorn" xMin="84" yMin="-7" xMax="465" yMax="601">
      <contour>
        <pt x="126" y="461" on="1"/>
        <pt x="299" y="461" on="1"/>
        <pt x="377" y="461" on="0"/>
        <pt x="465" y="385" on="0"/>
        <pt x="465" y="311" on="1"/>
        <pt x="465" y="238" on="0"/>
        <pt x="376" y="161" on="0"/>
        <pt x="298" y="161" on="1"/>
        <pt x="126" y="161" on="1"/>
        <pt x="126" y="20" on="1"/>
        <pt x="126" y="-7" on="0"/>
        <pt x="104" y="-7" on="1"/>
        <pt x="84" y="-7" on="0"/>
        <pt x="84" y="20" on="1"/>
        <pt x="84" y="573" on="1"/>
        <pt x="84" y="601" on="0"/>
        <pt x="126" y="601" on="0"/>
        <pt x="126" y="573" on="1"/>
      </contour>
      <contour>
        <pt x="126" y="419" on="1"/>
        <pt x="126" y="203" on="1"/>
        <pt x="256" y="203" on="1"/>
        <pt x="347" y="203" on="0"/>
        <pt x="421" y="244" on="0"/>
        <pt x="422" y="310" on="1"/>
        <pt x="422" y="376" on="0"/>
        <pt x="347" y="419" on="0"/>
        <pt x="257" y="419" on="1"/>
      </contour>
    </TTGlyph>
    <TTGlyph name="Tsecyrillic" xMin="84" yMin="-92" xMax="518" yMax="601">
      <contour>
        <pt x="518" y="-62" on="1"/>
        <pt x="518" y="-92" on="0"/>
        <pt x="476" y="-92" on="0"/>
        <pt x="476" y="-62" on="1"/>
        <pt x="476" y="0" on="1"/>
        <pt x="84" y="0" on="1"/>
        <pt x="84" y="571" on="1"/>
        <pt x="84" y="601" on="0"/>
        <pt x="104" y="601" on="1"/>
        <pt x="126" y="601" on="0"/>
        <pt x="126" y="571" on="1"/>
        <pt x="126" y="42" on="1"/>
        <pt x="418" y="42" on="1"/>
        <pt x="418" y="571" on="1"/>
        <pt x="418" y="601" on="0"/>
        <pt x="460" y="601" on="0"/>
        <pt x="460" y="571" on="1"/>
        <pt x="460" y="42" on="1"/>
        <pt x="472" y="42" on="1"/>
        <pt x="518" y="42" on="0"/>
        <pt x="518" y="-10" on="1"/>
      </contour>
    </TTGlyph>
    <TTGlyph name="Tshecyrillic" xMin="26" yMin="-7" xMax="624" yMax="636">
      <contour>
        <pt x="404" y="594" on="1"/>
        <pt x="251" y="594" on="1"/>
        <pt x="251" y="389" on="1"/>
        <pt x="307" y="461" on="0"/>
        <pt x="417" y="461" on="1"/>
        <pt x="522" y="461" on="0"/>
        <pt x="624" y="391" on="0"/>
        <pt x="624" y="286" on="1"/>
        <pt x="624" y="23" on="1"/>
        <pt x="624" y="-7" on="0"/>
        <pt x="604" y="-7" on="1"/>
        <pt x="582" y="-7" on="0"/>
        <pt x="582" y="23" on="1"/>
        <pt x="582" y="286" on="1"/>
        <pt x="582" y="331" on="0"/>
        <pt x="563" y="385" on="0"/>
        <pt x="517" y="412" on="0"/>
        <pt x="464" y="419" on="0"/>
        <pt x="417" y="419" on="1"/>
        <pt x="337" y="419" on="0"/>
        <pt x="251" y="322" on="0"/>
        <pt x="251" y="232" on="1"/>
        <pt x="251" y="23" on="1"/>
        <pt x="251" y="-7" on="0"/>
        <pt x="209" y="-7" on="0"/>
        <pt x="209" y="23" on="1"/>
        <pt x="209" y="594" on="1"/>
        <pt x="54" y="594" on="1"/>
        <pt x="26" y="594" on="0"/>
        <pt x="26" y="636" on="0"/>
        <pt x="54" y="636" on="1"/>
        <pt x="404" y="636" on="1"/>
        <pt x="432" y="636" on="0"/>
        <pt x="432" y="614" on="1"/>
        <pt x="432" y="594" on="0"/>
      </contour>
    </TTGlyph>
    <TTGlyph name="U" xMin="77" yMin="-9" xMax="521" yMax="643">
      <contour>
        <pt x="479" y="615" on="1"/>
        <pt x="479" y="643" on="0"/>
        <pt x="501" y="643" on="1"/>
        <pt x="521" y="643" on="0"/>
        <pt x="521" y="615" on="1"/>
        <pt x="521" y="227" on="1"/>
        <pt x="521" y="117" on="0"/>
        <pt x="396" y="-9" on="0"/>
        <pt x="202" y="-9" on="0"/>
        <pt x="77" y="117" on="0"/>
        <pt x="77" y="227" on="1"/>
        <pt x="77" y="615" on="1"/>
        <pt x="77" y="643" on="0"/>
        <pt x="119" y="643" on="0"/>
        <pt x="119" y="615" on="1"/>
        <pt x="119" y="227" on="1"/>
        <pt x="119" y="136" on="0"/>
        <pt x="215" y="33" on="0"/>
        <pt x="383" y="33" on="0"/>
        <pt x="479" y="136" on="0"/>
        <pt x="479" y="227" on="1"/>
      </contour>
    </TTGlyph>
    <TTGlyph name="Uacute" xMin="77" yMin="-9" xMax="521" yMax="804">
      <component glyphName="acute" x="245" y="126" flags="0x1004"/>
      <component glyphName="U" x="0" y="0" flags="0x1204"/>
    </TTGlyph>
    <TTGlyph name="Ubreve" xMin="77" yMin="-9" xMax="521" yMax="757">
      <contour>
        <pt x="415" y="757" on="1"/>
        <pt x="415" y="709" on="0"/>
        <pt x="347" y="636" on="0"/>
        <pt x="253" y="636" on="0"/>
        <pt x="185" y="709" on="0"/>
        <pt x="185" y="757" on="1"/>
        <pt x="228" y="757" on="1"/>
        <pt x="228" y="723" on="0"/>
        <pt x="267" y="680" on="0"/>
        <pt x="333" y="680" on="0"/>
        <pt x="372" y="723" on="0"/>
        <pt x="372" y="757" on="1"/>
      </contour>
      <contour>
        <pt x="479" y="615" on="1"/>
        <pt x="479" y="643" on="0"/>
        <pt x="501" y="643" on="1"/>
        <pt x="521" y="643" on="0"/>
        <pt x="521" y="615" on="1"/>
        <pt x="521" y="227" on="1"/>
        <pt x="521" y="117" on="0"/>
        <pt x="396" y="-9" on="0"/>
        <pt x="202" y="-9" on="0"/>
        <pt x="77" y="117" on="0"/>
        <pt x="77" y="227" on="1"/>
        <pt x="77" y="615" on="1"/>
        <pt x="77" y="643" on="0"/>
        <pt x="119" y="643" on="0"/>
        <pt x="119" y="615" on="1"/>
        <pt x="119" y="227" on="1"/>
        <pt x="119" y="136" on="0"/>
        <pt x="215" y="33" on="0"/>
        <pt x="383" y="33" on="0"/>
        <pt x="479" y="136" on="0"/>
        <pt x="479" y="227" on="1"/>
      </contour>
    </TTGlyph>
    <TTGlyph name="Ucircumflex" xMin="77" yMin="-9" xMax="521" yMax="819">
      <component glyphName="uni0302" x="601" y="141" flags="0x1004"/>
      <component glyphName="U" x="0" y="0" flags="0x1204"/>
    </TTGlyph>
    <TTGlyph name="Ucyrillic" xMin="41" yMin="-6" xMax="485" yMax="636">
      <contour>
        <pt x="155" y="36" on="1"/>
        <pt x="183" y="36" on="0"/>
        <pt x="198" y="67" on="1"/>
        <pt x="234" y="148" on="1"/>
        <pt x="44" y="607" on="1"/>
        <pt x="41" y="609" on="0"/>
        <pt x="41" y="625" on="0"/>
        <pt x="52" y="636" on="0"/>
        <pt x="60" y="636" on="1"/>
        <pt x="75" y="636" on="0"/>
        <pt x="83" y="617" on="1"/>
        <pt x="260" y="206" on="1"/>
        <pt x="443" y="618" on="1"/>
        <pt x="451" y="636" on="0"/>
        <pt x="466" y="636" on="1"/>
        <pt x="485" y="636" on="0"/>
        <pt x="485" y="618" on="1"/>
        <pt x="485" y="613" on="0"/>
        <pt x="482" y="607" on="1"/>
        <pt x="233" y="40" on="1"/>
        <pt x="213" y="-6" on="0"/>
        <pt x="156" y="-6" on="1"/>
        <pt x="125" y="-6" on="0"/>
        <pt x="84" y="12" on="0"/>
        <pt x="67" y="47" on="0"/>
        <pt x="61" y="78" on="0"/>
        <pt x="61" y="101" on="1"/>
        <pt x="61" y="131" on="0"/>
        <pt x="103" y="131" on="0"/>
        <pt x="103" y="103" on="1"/>
        <pt x="103" y="67" on="0"/>
        <pt x="126" y="36" on="0"/>
      </contour>
    </TTGlyph>
    <TTGlyph name="Udieresis" xMin="77" yMin="-9" xMax="521" yMax="778">
      <component glyphName="dieresis" x="116" y="112" flags="0x1004"/>
      <component glyphName="U" x="0" y="0" flags="0x1204"/>
    </TTGlyph>
    <TTGlyph name="Ugrave" xMin="77" yMin="-9" xMax="521" yMax="804">
      <component glyphName="grave" x="164" y="126" flags="0x1004"/>
      <component glyphName="U" x="0" y="0" flags="0x1204"/>
    </TTGlyph>
    <TTGlyph name="Uhorn" xMin="77" yMin="-9" xMax="652" yMax="676">
      <contour>
        <pt x="570" y="656" on="1"/>
        <pt x="570" y="663" on="0"/>
        <pt x="583" y="676" on="0"/>
        <pt x="590" y="676" on="1"/>
        <pt x="599" y="676" on="0"/>
        <pt x="610" y="666" on="1"/>
        <pt x="652" y="631" on="0"/>
        <pt x="652" y="591" on="1"/>
        <pt x="652" y="506" on="0"/>
        <pt x="521" y="501" on="1"/>
        <pt x="521" y="227" on="1"/>
        <pt x="521" y="117" on="0"/>
        <pt x="396" y="-9" on="0"/>
        <pt x="202" y="-9" on="0"/>
        <pt x="77" y="117" on="0"/>
        <pt x="77" y="227" on="1"/>
        <pt x="77" y="615" on="1"/>
        <pt x="77" y="643" on="0"/>
        <pt x="119" y="643" on="0"/>
        <pt x="119" y="615" on="1"/>
        <pt x="119" y="227" on="1"/>
        <pt x="119" y="136" on="0"/>
        <pt x="215" y="33" on="0"/>
        <pt x="383" y="33" on="0"/>
        <pt x="479" y="136" on="0"/>
        <pt x="479" y="227" on="1"/>
        <pt x="479" y="615" on="1"/>
        <pt x="479" y="643" on="0"/>
        <pt x="501" y="643" on="1"/>
        <pt x="521" y="643" on="0"/>
        <pt x="521" y="615" on="1"/>
        <pt x="521" y="542" on="1"/>
        <pt x="565" y="544" on="0"/>
        <pt x="608" y="567" on="0"/>
        <pt x="608" y="595" on="1"/>
        <pt x="608" y="613" on="0"/>
        <pt x="583" y="634" on="1"/>
        <pt x="570" y="644" on="0"/>
      </contour>
    </TTGlyph>
    <TTGlyph name="Uhungarumlaut" xMin="77" yMin="-9" xMax="521" yMax="804">
      <contour>
        <pt x="477" y="783" on="1"/>
        <pt x="477" y="773" on="0"/>
        <pt x="469" y="764" on="1"/>
        <pt x="373" y="649" on="1"/>
        <pt x="361" y="636" on="0"/>
        <pt x="352" y="636" on="1"/>
        <pt x="345" y="636" on="0"/>
        <pt x="332" y="648" on="0"/>
        <pt x="332" y="656" on="1"/>
        <pt x="332" y="667" on="0"/>
        <pt x="340" y="676" on="1"/>
        <pt x="436" y="791" on="1"/>
        <pt x="448" y="804" on="0"/>
        <pt x="457" y="804" on="1"/>
        <pt x="464" y="804" on="0"/>
        <pt x="477" y="792" on="0"/>
      </contour>
      <contour>
        <pt x="357" y="783" on="1"/>
        <pt x="357" y="773" on="0"/>
        <pt x="349" y="764" on="1"/>
        <pt x="253" y="649" on="1"/>
        <pt x="241" y="636" on="0"/>
        <pt x="232" y="636" on="1"/>
        <pt x="225" y="636" on="0"/>
        <pt x="212" y="648" on="0"/>
        <pt x="212" y="656" on="1"/>
        <pt x="212" y="667" on="0"/>
        <pt x="220" y="676" on="1"/>
        <pt x="316" y="791" on="1"/>
        <pt x="328" y="804" on="0"/>
        <pt x="337" y="804" on="1"/>
        <pt x="344" y="804" on="0"/>
        <pt x="357" y="792" on="0"/>
      </contour>
      <contour>
        <pt x="479" y="615" on="1"/>
        <pt x="479" y="643" on="0"/>
        <pt x="501" y="643" on="1"/>
        <pt x="521" y="643" on="0"/>
        <pt x="521" y="615" on="1"/>
        <pt x="521" y="227" on="1"/>
        <pt x="521" y="117" on="0"/>
        <pt x="396" y="-9" on="0"/>
        <pt x="202" y="-9" on="0"/>
        <pt x="77" y="117" on="0"/>
        <pt x="77" y="227" on="1"/>
        <pt x="77" y="615" on="1"/>
        <pt x="77" y="643" on="0"/>
        <pt x="119" y="643" on="0"/>
        <pt x="119" y="615" on="1"/>
        <pt x="119" y="227" on="1"/>
        <pt x="119" y="136" on="0"/>
        <pt x="215" y="33" on="0"/>
        <pt x="383" y="33" on="0"/>
        <pt x="479" y="136" on="0"/>
        <pt x="479" y="227" on="1"/>
      </contour>
    </TTGlyph>
    <TTGlyph name="Umacron" xMin="77" yMin="-9" xMax="521" yMax="749">
      <contour>
        <pt x="176" y="706" on="1"/>
        <pt x="150" y="706" on="0"/>
        <pt x="150" y="728" on="1"/>
        <pt x="150" y="749" on="0"/>
        <pt x="176" y="749" on="1"/>
        <pt x="421" y="749" on="1"/>
        <pt x="450" y="749" on="0"/>
        <pt x="450" y="726" on="1"/>
        <pt x="450" y="706" on="0"/>
        <pt x="421" y="706" on="1"/>
      </contour>
      <contour>
        <pt x="479" y="615" on="1"/>
        <pt x="479" y="643" on="0"/>
        <pt x="501" y="643" on="1"/>
        <pt x="521" y="643" on="0"/>
        <pt x="521" y="615" on="1"/>
        <pt x="521" y="227" on="1"/>
        <pt x="521" y="117" on="0"/>
        <pt x="396" y="-9" on="0"/>
        <pt x="202" y="-9" on="0"/>
        <pt x="77" y="117" on="0"/>
        <pt x="77" y="227" on="1"/>
        <pt x="77" y="615" on="1"/>
        <pt x="77" y="643" on="0"/>
        <pt x="119" y="643" on="0"/>
        <pt x="119" y="615" on="1"/>
        <pt x="119" y="227" on="1"/>
        <pt x="119" y="136" on="0"/>
        <pt x="215" y="33" on="0"/>
        <pt x="383" y="33" on="0"/>
        <pt x="479" y="136" on="0"/>
        <pt x="479" y="227" on="1"/>
      </contour>
    </TTGlyph>
    <TTGlyph name="Uogonek" xMin="78" yMin="-204" xMax="522" yMax="643">
      <contour>
        <pt x="390" y="-159" on="1"/>
        <pt x="390" y="-183" on="0"/>
        <pt x="339" y="-204" on="0"/>
        <pt x="316" y="-204" on="1"/>
        <pt x="276" y="-204" on="0"/>
        <pt x="225" y="-149" on="0"/>
        <pt x="225" y="-105" on="1"/>
        <pt x="225" y="-71" on="0"/>
        <pt x="271" y="-7" on="1"/>
        <pt x="185" y="2" on="0"/>
        <pt x="78" y="126" on="0"/>
        <pt x="78" y="227" on="1"/>
        <pt x="78" y="615" on="1"/>
        <pt x="78" y="643" on="0"/>
        <pt x="120" y="643" on="0"/>
        <pt x="120" y="615" on="1"/>
        <pt x="120" y="227" on="1"/>
        <pt x="120" y="136" on="0"/>
        <pt x="216" y="33" on="0"/>
        <pt x="384" y="33" on="0"/>
        <pt x="480" y="136" on="0"/>
        <pt x="480" y="227" on="1"/>
        <pt x="480" y="615" on="1"/>
        <pt x="480" y="643" on="0"/>
        <pt x="502" y="643" on="1"/>
        <pt x="522" y="643" on="0"/>
        <pt x="522" y="615" on="1"/>
        <pt x="522" y="227" on="1"/>
        <pt x="522" y="124" on="0"/>
        <pt x="411" y="0" on="0"/>
        <pt x="323" y="-8" on="1"/>
        <pt x="304" y="-24" on="0"/>
        <pt x="267" y="-88" on="0"/>
        <pt x="267" y="-105" on="1"/>
        <pt x="267" y="-164" on="0"/>
        <pt x="314" y="-164" on="1"/>
        <pt x="331" y="-164" on="0"/>
        <pt x="377" y="-146" on="0"/>
        <pt x="380" y="-146" on="1"/>
        <pt x="390" y="-146" on="0"/>
      </contour>
    </TTGlyph>
    <TTGlyph name="Upsilon" xMin="16" yMin="-7" xMax="482" yMax="643">
      <component glyphName="Y" x="0" y="0" flags="0x1004"/>
    </TTGlyph>
    <TTGlyph name="Upsilondieresis" xMin="16" yMin="-7" xMax="482" yMax="778">
      <component glyphName="Ydieresis" x="0" y="0" flags="0x1004"/>
    </TTGlyph>
    <TTGlyph name="Upsilontonos" xMin="25" yMin="-7" xMax="595" yMax="750">
      <component glyphName="tonos" x="-50" y="102" flags="0x1004"/>
      <component glyphName="Upsilon" x="113" y="0" flags="0x1004"/>
    </TTGlyph>
    <TTGlyph name="Uring" xMin="77" yMin="-9" xMax="521" yMax="792">
      <contour>
        <pt x="252" y="736" on="0"/>
        <pt x="252" y="696" on="0"/>
        <pt x="281" y="667" on="0"/>
        <pt x="321" y="667" on="0"/>
        <pt x="350" y="696" on="0"/>
        <pt x="350" y="736" on="0"/>
        <pt x="320" y="765" on="0"/>
        <pt x="301" y="765" on="1"/>
        <pt x="281" y="765" on="0"/>
      </contour>
      <contour>
        <pt x="225" y="684" on="0"/>
        <pt x="225" y="748" on="0"/>
        <pt x="270" y="792" on="0"/>
        <pt x="332" y="792" on="0"/>
        <pt x="377" y="748" on="0"/>
        <pt x="377" y="684" on="0"/>
        <pt x="332" y="640" on="0"/>
        <pt x="270" y="640" on="0"/>
      </contour>
      <contour>
        <pt x="479" y="615" on="1"/>
        <pt x="479" y="643" on="0"/>
        <pt x="501" y="643" on="1"/>
        <pt x="521" y="643" on="0"/>
        <pt x="521" y="615" on="1"/>
        <pt x="521" y="227" on="1"/>
        <pt x="521" y="117" on="0"/>
        <pt x="396" y="-9" on="0"/>
        <pt x="202" y="-9" on="0"/>
        <pt x="77" y="117" on="0"/>
        <pt x="77" y="227" on="1"/>
        <pt x="77" y="615" on="1"/>
        <pt x="77" y="643" on="0"/>
        <pt x="119" y="643" on="0"/>
        <pt x="119" y="615" on="1"/>
        <pt x="119" y="227" on="1"/>
        <pt x="119" y="136" on="0"/>
        <pt x="215" y="33" on="0"/>
        <pt x="383" y="33" on="0"/>
        <pt x="479" y="136" on="0"/>
        <pt x="479" y="227" on="1"/>
      </contour>
    </TTGlyph>
    <TTGlyph name="Ushortcyrillic" xMin="41" yMin="-6" xMax="485" yMax="770">
      <contour>
        <pt x="407" y="770" on="1"/>
        <pt x="407" y="748" on="1"/>
        <pt x="407" y="684" on="0"/>
        <pt x="371" y="636" on="0"/>
        <pt x="321" y="636" on="1"/>
        <pt x="204" y="636" on="1"/>
        <pt x="155" y="636" on="0"/>
        <pt x="118" y="685" on="0"/>
        <pt x="118" y="748" on="1"/>
        <pt x="118" y="770" on="1"/>
        <pt x="160" y="770" on="1"/>
        <pt x="160" y="732" on="1"/>
        <pt x="160" y="701" on="0"/>
        <pt x="181" y="678" on="0"/>
        <pt x="212" y="678" on="1"/>
        <pt x="314" y="678" on="1"/>
        <pt x="345" y="678" on="0"/>
        <pt x="365" y="701" on="0"/>
        <pt x="365" y="732" on="1"/>
        <pt x="365" y="770" on="1"/>
      </contour>
      <contour>
        <pt x="155" y="36" on="1"/>
        <pt x="183" y="36" on="0"/>
        <pt x="198" y="67" on="1"/>
        <pt x="234" y="148" on="1"/>
        <pt x="44" y="607" on="1"/>
        <pt x="41" y="609" on="0"/>
        <pt x="41" y="625" on="0"/>
        <pt x="52" y="636" on="0"/>
        <pt x="60" y="636" on="1"/>
        <pt x="75" y="636" on="0"/>
        <pt x="83" y="617" on="1"/>
        <pt x="260" y="206" on="1"/>
        <pt x="443" y="618" on="1"/>
        <pt x="451" y="636" on="0"/>
        <pt x="466" y="636" on="1"/>
        <pt x="485" y="636" on="0"/>
        <pt x="485" y="618" on="1"/>
        <pt x="485" y="613" on="0"/>
        <pt x="482" y="607" on="1"/>
        <pt x="233" y="40" on="1"/>
        <pt x="213" y="-6" on="0"/>
        <pt x="156" y="-6" on="1"/>
        <pt x="125" y="-6" on="0"/>
        <pt x="84" y="12" on="0"/>
        <pt x="67" y="47" on="0"/>
        <pt x="61" y="78" on="0"/>
        <pt x="61" y="101" on="1"/>
        <pt x="61" y="131" on="0"/>
        <pt x="103" y="131" on="0"/>
        <pt x="103" y="103" on="1"/>
        <pt x="103" y="67" on="0"/>
        <pt x="126" y="36" on="0"/>
      </contour>
    </TTGlyph>
    <TTGlyph name="Utilde" xMin="77" yMin="-9" xMax="521" yMax="794">
      <contour>
        <pt x="347" y="755" on="1"/>
        <pt x="351" y="753" on="0"/>
        <pt x="354" y="753" on="1"/>
        <pt x="358" y="753" on="0"/>
        <pt x="365" y="758" on="1"/>
        <pt x="396" y="786" on="1"/>
        <pt x="407" y="794" on="0"/>
        <pt x="423" y="794" on="0"/>
        <pt x="436" y="784" on="0"/>
        <pt x="436" y="776" on="1"/>
        <pt x="436" y="764" on="0"/>
        <pt x="424" y="753" on="1"/>
        <pt x="377" y="714" on="1"/>
        <pt x="370" y="707" on="0"/>
        <pt x="361" y="707" on="1"/>
        <pt x="357" y="707" on="0"/>
        <pt x="351" y="709" on="1"/>
        <pt x="253" y="745" on="1"/>
        <pt x="249" y="747" on="0"/>
        <pt x="241" y="747" on="0"/>
        <pt x="234" y="742" on="1"/>
        <pt x="203" y="714" on="1"/>
        <pt x="192" y="706" on="0"/>
        <pt x="184" y="706" on="1"/>
        <pt x="177" y="706" on="0"/>
        <pt x="164" y="717" on="0"/>
        <pt x="164" y="725" on="1"/>
        <pt x="164" y="738" on="0"/>
        <pt x="176" y="747" on="1"/>
        <pt x="223" y="786" on="1"/>
        <pt x="228" y="793" on="0"/>
        <pt x="238" y="793" on="1"/>
        <pt x="241" y="793" on="0"/>
        <pt x="249" y="791" on="1"/>
      </contour>
      <contour>
        <pt x="479" y="615" on="1"/>
        <pt x="479" y="643" on="0"/>
        <pt x="501" y="643" on="1"/>
        <pt x="521" y="643" on="0"/>
        <pt x="521" y="615" on="1"/>
        <pt x="521" y="227" on="1"/>
        <pt x="521" y="117" on="0"/>
        <pt x="396" y="-9" on="0"/>
        <pt x="202" y="-9" on="0"/>
        <pt x="77" y="117" on="0"/>
        <pt x="77" y="227" on="1"/>
        <pt x="77" y="615" on="1"/>
        <pt x="77" y="643" on="0"/>
        <pt x="119" y="643" on="0"/>
        <pt x="119" y="615" on="1"/>
        <pt x="119" y="227" on="1"/>
        <pt x="119" y="136" on="0"/>
        <pt x="215" y="33" on="0"/>
        <pt x="383" y="33" on="0"/>
        <pt x="479" y="136" on="0"/>
        <pt x="479" y="227" on="1"/>
      </contour>
    </TTGlyph>
    <TTGlyph name="V" xMin="23" yMin="0" xMax="525" yMax="652">
      <contour>
        <pt x="23" y="632" on="1"/>
        <pt x="23" y="639" on="0"/>
        <pt x="32" y="649" on="0"/>
        <pt x="41" y="652" on="0"/>
        <pt x="44" y="652" on="1"/>
        <pt x="57" y="652" on="0"/>
        <pt x="66" y="632" on="1"/>
        <pt x="274" y="60" on="1"/>
        <pt x="482" y="632" on="1"/>
        <pt x="490" y="652" on="0"/>
        <pt x="504" y="652" on="1"/>
        <pt x="507" y="652" on="0"/>
        <pt x="516" y="649" on="0"/>
        <pt x="525" y="639" on="0"/>
        <pt x="525" y="632" on="1"/>
        <pt x="525" y="626" on="0"/>
        <pt x="522" y="617" on="1"/>
        <pt x="297" y="0" on="1"/>
        <pt x="251" y="0" on="1"/>
        <pt x="26" y="617" on="1"/>
        <pt x="23" y="626" on="0"/>
      </contour>
    </TTGlyph>
    <TTGlyph name="Vecyrillic" xMin="84" yMin="0" xMax="528" yMax="636">
      <component glyphName="B" x="0" y="0" flags="0x1004"/>
    </TTGlyph>
</ttFont>
